<?xml version="1.0" encoding="UTF-8" standalone="no"?>
<!DOCTYPE svg PUBLIC "-//W3C//DTD SVG 1.1//EN"
 "http://www.w3.org/Graphics/SVG/1.1/DTD/svg11.dtd">
<svg
   xmlns:svg="http://www.w3.org/2000/svg"
   xmlns="http://www.w3.org/2000/svg"
   version="1.1"
   width="800px"
   height="800px"
   viewBox="-5.25 -1 8.0 6">
<text style="fill:blue;text-anchor:middle;font-size:0.4;" x="0" y="0.2">1</text>
<line style="stroke-width:0.01;stroke:black;" x1="0" y1="0" x2="0.0" y2="1" />
<text style="fill:blue;text-anchor:middle;font-size:0.4;" x="0.0" y="1.2">2</text>
<line style="stroke-width:0.01;stroke:black;" x1="0.0" y1="1" x2="-1.75" y2="2" />
<text style="fill:blue;text-anchor:middle;font-size:0.4;" x="-1.75" y="2.2">3</text>
<line style="stroke-width:0.01;stroke:black;" x1="-1.75" y1="2" x2="-4.25" y2="3" />
<circle style="fill:red;stroke-width:0.01;stroke:black" cx="-4.25" cy="3" r="0.1" />
<line style="stroke-width:0.01;stroke:black;" x1="-1.75" y1="2" x2="-4.25" y2="3" />
<text style="fill:black;text-anchor:start;font-size:0.3;" x="-2.95" y="2.65">5</text>
<line style="stroke-width:0.01;stroke:black;" x1="-1.75" y1="2" x2="-3.25" y2="3" />
<text style="fill:blue;text-anchor:middle;font-size:0.4;" x="-3.25" y="3.2">4</text>
<line style="stroke-width:0.01;stroke:black;" x1="-3.25" y1="3" x2="-3.75" y2="4" />
<circle style="fill:red;stroke-width:0.01;stroke:black" cx="-3.75" cy="4" r="0.1" />
<line style="stroke-width:0.01;stroke:black;" x1="-3.25" y1="3" x2="-3.75" y2="4" />
<text style="fill:black;text-anchor:start;font-size:0.3;" x="-3.45" y="3.65">2</text>
<line style="stroke-width:0.01;stroke:black;" x1="-3.25" y1="3" x2="-2.75" y2="4" />
<circle style="fill:red;stroke-width:0.01;stroke:black" cx="-2.75" cy="4" r="0.1" />
<line style="stroke-width:0.01;stroke:black;" x1="-3.25" y1="3" x2="-2.75" y2="4" />
<text style="fill:black;text-anchor:start;font-size:0.3;" x="-2.95" y="3.65">8</text>
<line style="stroke-width:0.01;stroke:black;" x1="-1.75" y1="2" x2="-3.25" y2="3" />
<text style="fill:black;text-anchor:start;font-size:0.3;" x="-2.45" y="2.65">6</text>
<line style="stroke-width:0.01;stroke:black;" x1="-1.75" y1="2" x2="-1.25" y2="3" />
<text style="fill:blue;text-anchor:middle;font-size:0.4;" x="-1.25" y="3.2">5</text>
<line style="stroke-width:0.01;stroke:black;" x1="-1.25" y1="3" x2="-1.75" y2="4" />
<circle style="fill:red;stroke-width:0.01;stroke:black" cx="-1.75" cy="4" r="0.1" />
<line style="stroke-width:0.01;stroke:black;" x1="-1.25" y1="3" x2="-1.75" y2="4" />
<text style="fill:black;text-anchor:start;font-size:0.3;" x="-1.45" y="3.65">4</text>
<line style="stroke-width:0.01;stroke:black;" x1="-1.25" y1="3" x2="-0.75" y2="4" />
<circle style="fill:red;stroke-width:0.01;stroke:black" cx="-0.75" cy="4" r="0.1" />
<line style="stroke-width:0.01;stroke:black;" x1="-1.25" y1="3" x2="-0.75" y2="4" />
<text style="fill:black;text-anchor:start;font-size:0.3;" x="-0.95" y="3.65">8</text>
<line style="stroke-width:0.01;stroke:black;" x1="-1.75" y1="2" x2="-1.25" y2="3" />
<text style="fill:black;text-anchor:start;font-size:0.3;" x="-1.45" y="2.65">7</text>
<line style="stroke-width:0.01;stroke:black;" x1="-1.75" y1="2" x2="0.75" y2="3" />
<text style="fill:blue;text-anchor:middle;font-size:0.4;" x="0.75" y="3.2">4</text>
<line style="stroke-width:0.01;stroke:black;" x1="0.75" y1="3" x2="0.25" y2="4" />
<circle style="fill:red;stroke-width:0.01;stroke:black" cx="0.25" cy="4" r="0.1" />
<line style="stroke-width:0.01;stroke:black;" x1="0.75" y1="3" x2="0.25" y2="4" />
<text style="fill:black;text-anchor:start;font-size:0.3;" x="0.55" y="3.65">2</text>
<line style="stroke-width:0.01;stroke:black;" x1="0.75" y1="3" x2="1.25" y2="4" />
<circle style="fill:red;stroke-width:0.01;stroke:black" cx="1.25" cy="4" r="0.1" />
<line style="stroke-width:0.01;stroke:black;" x1="0.75" y1="3" x2="1.25" y2="4" />
<text style="fill:black;text-anchor:start;font-size:0.3;" x="1.05" y="3.65">6</text>
<line style="stroke-width:0.01;stroke:black;" x1="-1.75" y1="2" x2="0.75" y2="3" />
<text style="fill:black;text-anchor:start;font-size:0.3;" x="-0.45" y="2.65">8</text>
<line style="stroke-width:0.01;stroke:black;" x1="0.0" y1="1" x2="-1.75" y2="2" />
<text style="fill:black;text-anchor:start;font-size:0.3;" x="-0.825" y="1.65">3</text>
<line style="stroke-width:0.01;stroke:black;" x1="0.0" y1="1" x2="1.75" y2="2" />
<text style="fill:blue;text-anchor:middle;font-size:0.4;" x="1.75" y="2.2">3</text>
<line style="stroke-width:0.01;stroke:black;" x1="1.75" y1="2" x2="1.75" y2="3" />
<polygon style="fill:blue;stroke-width:0.01;stroke:black;" points="1.75,3 2.25,3.5 1.25,3.5" />
<line style="stroke-width:0.01;stroke:black;" x1="1.75" y1="2" x2="1.75" y2="3" />
<text style="fill:black;text-anchor:start;font-size:0.3;" x="1.8" y="2.65">2</text>
<line style="stroke-width:0.01;stroke:black;" x1="0.0" y1="1" x2="1.75" y2="2" />
<text style="fill:black;text-anchor:start;font-size:0.3;" x="0.925" y="1.65">4</text>
<line style="stroke-width:0.01;stroke:black;" x1="0" y1="0" x2="0.0" y2="1" />
<text style="fill:black;text-anchor:start;font-size:0.3;" x="0.05" y="0.65">1</text>
</svg>
