<?xml version="1.0" encoding="UTF-8" standalone="no"?>
<!DOCTYPE svg PUBLIC "-//W3C//DTD SVG 1.1//EN"
 "http://www.w3.org/Graphics/SVG/1.1/DTD/svg11.dtd">
<svg
   xmlns:svg="http://www.w3.org/2000/svg"
   xmlns="http://www.w3.org/2000/svg"
   version="1.1"
   width="800px"
   height="800px"
   viewBox="-9.75 -1 17.0 7">
<text style="fill:blue;text-anchor:middle;font-size:0.4;" x="0" y="0.2">1</text>
<line style="stroke-width:0.01;stroke:black;" x1="0" y1="0" x2="0.0" y2="1" />
<text style="fill:blue;text-anchor:middle;font-size:0.4;" x="0.0" y="1.2">2</text>
<line style="stroke-width:0.01;stroke:black;" x1="0.0" y1="1" x2="-6.25" y2="2" />
<text style="fill:blue;text-anchor:middle;font-size:0.4;" x="-6.25" y="2.2">3</text>
<line style="stroke-width:0.01;stroke:black;" x1="-6.25" y1="2" x2="-8.75" y2="3" />
<circle style="fill:red;stroke-width:0.01;stroke:black" cx="-8.75" cy="3" r="0.1" />
<line style="stroke-width:0.01;stroke:black;" x1="-6.25" y1="2" x2="-8.75" y2="3" />
<text style="fill:black;text-anchor:start;font-size:0.3;" x="-7.45" y="2.65">5</text>
<line style="stroke-width:0.01;stroke:black;" x1="-6.25" y1="2" x2="-7.75" y2="3" />
<text style="fill:blue;text-anchor:middle;font-size:0.4;" x="-7.75" y="3.2">4</text>
<line style="stroke-width:0.01;stroke:black;" x1="-7.75" y1="3" x2="-8.25" y2="4" />
<circle style="fill:red;stroke-width:0.01;stroke:black" cx="-8.25" cy="4" r="0.1" />
<line style="stroke-width:0.01;stroke:black;" x1="-7.75" y1="3" x2="-8.25" y2="4" />
<text style="fill:black;text-anchor:start;font-size:0.3;" x="-7.95" y="3.65">2</text>
<line style="stroke-width:0.01;stroke:black;" x1="-7.75" y1="3" x2="-7.25" y2="4" />
<circle style="fill:red;stroke-width:0.01;stroke:black" cx="-7.25" cy="4" r="0.1" />
<line style="stroke-width:0.01;stroke:black;" x1="-7.75" y1="3" x2="-7.25" y2="4" />
<text style="fill:black;text-anchor:start;font-size:0.3;" x="-7.45" y="3.65">8</text>
<line style="stroke-width:0.01;stroke:black;" x1="-6.25" y1="2" x2="-7.75" y2="3" />
<text style="fill:black;text-anchor:start;font-size:0.3;" x="-6.95" y="2.65">6</text>
<line style="stroke-width:0.01;stroke:black;" x1="-6.25" y1="2" x2="-5.75" y2="3" />
<text style="fill:blue;text-anchor:middle;font-size:0.4;" x="-5.75" y="3.2">5</text>
<line style="stroke-width:0.01;stroke:black;" x1="-5.75" y1="3" x2="-6.25" y2="4" />
<circle style="fill:red;stroke-width:0.01;stroke:black" cx="-6.25" cy="4" r="0.1" />
<line style="stroke-width:0.01;stroke:black;" x1="-5.75" y1="3" x2="-6.25" y2="4" />
<text style="fill:black;text-anchor:start;font-size:0.3;" x="-5.95" y="3.65">4</text>
<line style="stroke-width:0.01;stroke:black;" x1="-5.75" y1="3" x2="-5.25" y2="4" />
<circle style="fill:red;stroke-width:0.01;stroke:black" cx="-5.25" cy="4" r="0.1" />
<line style="stroke-width:0.01;stroke:black;" x1="-5.75" y1="3" x2="-5.25" y2="4" />
<text style="fill:black;text-anchor:start;font-size:0.3;" x="-5.45" y="3.65">8</text>
<line style="stroke-width:0.01;stroke:black;" x1="-6.25" y1="2" x2="-5.75" y2="3" />
<text style="fill:black;text-anchor:start;font-size:0.3;" x="-5.95" y="2.65">7</text>
<line style="stroke-width:0.01;stroke:black;" x1="-6.25" y1="2" x2="-3.75" y2="3" />
<text style="fill:blue;text-anchor:middle;font-size:0.4;" x="-3.75" y="3.2">4</text>
<line style="stroke-width:0.01;stroke:black;" x1="-3.75" y1="3" x2="-4.25" y2="4" />
<circle style="fill:red;stroke-width:0.01;stroke:black" cx="-4.25" cy="4" r="0.1" />
<line style="stroke-width:0.01;stroke:black;" x1="-3.75" y1="3" x2="-4.25" y2="4" />
<text style="fill:black;text-anchor:start;font-size:0.3;" x="-3.95" y="3.65">2</text>
<line style="stroke-width:0.01;stroke:black;" x1="-3.75" y1="3" x2="-3.25" y2="4" />
<circle style="fill:red;stroke-width:0.01;stroke:black" cx="-3.25" cy="4" r="0.1" />
<line style="stroke-width:0.01;stroke:black;" x1="-3.75" y1="3" x2="-3.25" y2="4" />
<text style="fill:black;text-anchor:start;font-size:0.3;" x="-3.45" y="3.65">6</text>
<line style="stroke-width:0.01;stroke:black;" x1="-6.25" y1="2" x2="-3.75" y2="3" />
<text style="fill:black;text-anchor:start;font-size:0.3;" x="-4.95" y="2.65">8</text>
<line style="stroke-width:0.01;stroke:black;" x1="0.0" y1="1" x2="-6.25" y2="2" />
<text style="fill:black;text-anchor:start;font-size:0.3;" x="-3.075" y="1.65">3</text>
<line style="stroke-width:0.01;stroke:black;" x1="0.0" y1="1" x2="2.0" y2="2" />
<text style="fill:blue;text-anchor:middle;font-size:0.4;" x="2.0" y="2.2">3</text>
<line style="stroke-width:0.01;stroke:black;" x1="2.0" y1="2" x2="-1.25" y2="3" />
<text style="fill:blue;text-anchor:middle;font-size:0.4;" x="-1.25" y="3.2">4</text>
<line style="stroke-width:0.01;stroke:black;" x1="-1.25" y1="3" x2="-2.25" y2="4" />
<circle style="fill:red;stroke-width:0.01;stroke:black" cx="-2.25" cy="4" r="0.1" />
<line style="stroke-width:0.01;stroke:black;" x1="-1.25" y1="3" x2="-2.25" y2="4" />
<text style="fill:black;text-anchor:start;font-size:0.3;" x="-1.7" y="3.65">5</text>
<line style="stroke-width:0.01;stroke:black;" x1="-1.25" y1="3" x2="-1.25" y2="4" />
<circle style="fill:red;stroke-width:0.01;stroke:black" cx="-1.25" cy="4" r="0.1" />
<line style="stroke-width:0.01;stroke:black;" x1="-1.25" y1="3" x2="-1.25" y2="4" />
<text style="fill:black;text-anchor:start;font-size:0.3;" x="-1.2" y="3.65">7</text>
<line style="stroke-width:0.01;stroke:black;" x1="-1.25" y1="3" x2="-0.25" y2="4" />
<circle style="fill:red;stroke-width:0.01;stroke:black" cx="-0.25" cy="4" r="0.1" />
<line style="stroke-width:0.01;stroke:black;" x1="-1.25" y1="3" x2="-0.25" y2="4" />
<text style="fill:black;text-anchor:start;font-size:0.3;" x="-0.7" y="3.65">8</text>
<line style="stroke-width:0.01;stroke:black;" x1="2.0" y1="2" x2="-1.25" y2="3" />
<text style="fill:black;text-anchor:start;font-size:0.3;" x="0.425" y="2.65">2</text>
<line style="stroke-width:0.01;stroke:black;" x1="2.0" y1="2" x2="1.25" y2="3" />
<text style="fill:blue;text-anchor:middle;font-size:0.4;" x="1.25" y="3.2">4</text>
<line style="stroke-width:0.01;stroke:black;" x1="1.25" y1="3" x2="0.75" y2="4" />
<circle style="fill:red;stroke-width:0.01;stroke:black" cx="0.75" cy="4" r="0.1" />
<line style="stroke-width:0.01;stroke:black;" x1="1.25" y1="3" x2="0.75" y2="4" />
<text style="fill:black;text-anchor:start;font-size:0.3;" x="1.05" y="3.65">3</text>
<line style="stroke-width:0.01;stroke:black;" x1="1.25" y1="3" x2="1.75" y2="4" />
<circle style="fill:red;stroke-width:0.01;stroke:black" cx="1.75" cy="4" r="0.1" />
<line style="stroke-width:0.01;stroke:black;" x1="1.25" y1="3" x2="1.75" y2="4" />
<text style="fill:black;text-anchor:start;font-size:0.3;" x="1.55" y="3.65">8</text>
<line style="stroke-width:0.01;stroke:black;" x1="2.0" y1="2" x2="1.25" y2="3" />
<text style="fill:black;text-anchor:start;font-size:0.3;" x="1.675" y="2.65">6</text>
<line style="stroke-width:0.01;stroke:black;" x1="2.0" y1="2" x2="3.25" y2="3" />
<text style="fill:blue;text-anchor:middle;font-size:0.4;" x="3.25" y="3.2">4</text>
<line style="stroke-width:0.01;stroke:black;" x1="3.25" y1="3" x2="2.75" y2="4" />
<text style="fill:blue;text-anchor:middle;font-size:0.4;" x="2.75" y="4.2">5</text>
<line style="stroke-width:0.01;stroke:black;" x1="2.75" y1="4" x2="2.25" y2="5" />
<circle style="fill:red;stroke-width:0.01;stroke:black" cx="2.25" cy="5" r="0.1" />
<line style="stroke-width:0.01;stroke:black;" x1="2.75" y1="4" x2="2.25" y2="5" />
<text style="fill:black;text-anchor:start;font-size:0.3;" x="2.55" y="4.65">6</text>
<line style="stroke-width:0.01;stroke:black;" x1="2.75" y1="4" x2="3.25" y2="5" />
<circle style="fill:red;stroke-width:0.01;stroke:black" cx="3.25" cy="5" r="0.1" />
<line style="stroke-width:0.01;stroke:black;" x1="2.75" y1="4" x2="3.25" y2="5" />
<text style="fill:black;text-anchor:start;font-size:0.3;" x="3.05" y="4.65">8</text>
<line style="stroke-width:0.01;stroke:black;" x1="3.25" y1="3" x2="2.75" y2="4" />
<text style="fill:black;text-anchor:start;font-size:0.3;" x="3.05" y="3.65">3</text>
<line style="stroke-width:0.01;stroke:black;" x1="3.25" y1="3" x2="3.75" y2="4" />
<circle style="fill:red;stroke-width:0.01;stroke:black" cx="3.75" cy="4" r="0.1" />
<line style="stroke-width:0.01;stroke:black;" x1="3.25" y1="3" x2="3.75" y2="4" />
<text style="fill:black;text-anchor:start;font-size:0.3;" x="3.55" y="3.65">5</text>
<line style="stroke-width:0.01;stroke:black;" x1="2.0" y1="2" x2="3.25" y2="3" />
<text style="fill:black;text-anchor:start;font-size:0.3;" x="2.675" y="2.65">7</text>
<line style="stroke-width:0.01;stroke:black;" x1="2.0" y1="2" x2="5.25" y2="3" />
<text style="fill:blue;text-anchor:middle;font-size:0.4;" x="5.25" y="3.2">4</text>
<line style="stroke-width:0.01;stroke:black;" x1="5.25" y1="3" x2="4.75" y2="4" />
<circle style="fill:red;stroke-width:0.01;stroke:black" cx="4.75" cy="4" r="0.1" />
<line style="stroke-width:0.01;stroke:black;" x1="5.25" y1="3" x2="4.75" y2="4" />
<text style="fill:black;text-anchor:start;font-size:0.3;" x="5.05" y="3.65">3</text>
<line style="stroke-width:0.01;stroke:black;" x1="5.25" y1="3" x2="5.75" y2="4" />
<circle style="fill:red;stroke-width:0.01;stroke:black" cx="5.75" cy="4" r="0.1" />
<line style="stroke-width:0.01;stroke:black;" x1="5.25" y1="3" x2="5.75" y2="4" />
<text style="fill:black;text-anchor:start;font-size:0.3;" x="5.55" y="3.65">5</text>
<line style="stroke-width:0.01;stroke:black;" x1="2.0" y1="2" x2="5.25" y2="3" />
<text style="fill:black;text-anchor:start;font-size:0.3;" x="3.675" y="2.65">8</text>
<line style="stroke-width:0.01;stroke:black;" x1="0.0" y1="1" x2="2.0" y2="2" />
<text style="fill:black;text-anchor:start;font-size:0.3;" x="1.05" y="1.65">4</text>
<line style="stroke-width:0.01;stroke:black;" x1="0.0" y1="1" x2="6.25" y2="2" />
<text style="fill:blue;text-anchor:middle;font-size:0.4;" x="6.25" y="2.2">3</text>
<line style="stroke-width:0.01;stroke:black;" x1="6.25" y1="2" x2="6.25" y2="3" />
<polygon style="fill:blue;stroke-width:0.01;stroke:black;" points="6.25,3 6.75,3.5 5.75,3.5" />
<line style="stroke-width:0.01;stroke:black;" x1="6.25" y1="2" x2="6.25" y2="3" />
<text style="fill:black;text-anchor:start;font-size:0.3;" x="6.3" y="2.65">2</text>
<line style="stroke-width:0.01;stroke:black;" x1="0.0" y1="1" x2="6.25" y2="2" />
<text style="fill:black;text-anchor:start;font-size:0.3;" x="3.175" y="1.65">5</text>
<line style="stroke-width:0.01;stroke:black;" x1="0" y1="0" x2="0.0" y2="1" />
<text style="fill:black;text-anchor:start;font-size:0.3;" x="0.05" y="0.65">1</text>
</svg>
