<?xml version="1.0" encoding="UTF-8" standalone="no"?>
<!DOCTYPE svg PUBLIC "-//W3C//DTD SVG 1.1//EN"
 "http://www.w3.org/Graphics/SVG/1.1/DTD/svg11.dtd">
<svg
   xmlns:svg="http://www.w3.org/2000/svg"
   xmlns="http://www.w3.org/2000/svg"
   version="1.1"
   width="800px"
   height="800px"
   viewBox="-3.75 -1 6.5 12">
<text style="fill:blue;text-anchor:middle;font-size:0.4;" x="0" y="0.2">1</text>
<line style="stroke-width:0.01;stroke:black;" x1="0" y1="0" x2="0.0" y2="1" />
<text style="fill:blue;text-anchor:middle;font-size:0.4;" x="0.0" y="1.2">2</text>
<line style="stroke-width:0.01;stroke:black;" x1="0.0" y1="1" x2="0.0" y2="2" />
<text style="fill:blue;text-anchor:middle;font-size:0.4;" x="0.0" y="2.2">3</text>
<line style="stroke-width:0.01;stroke:black;" x1="0.0" y1="2" x2="0.0" y2="3" />
<text style="fill:blue;text-anchor:middle;font-size:0.4;" x="0.0" y="3.2">6</text>
<line style="stroke-width:0.01;stroke:black;" x1="0.0" y1="3" x2="0.0" y2="4" />
<text style="fill:blue;text-anchor:middle;font-size:0.4;" x="0.0" y="4.2">8</text>
<line style="stroke-width:0.01;stroke:black;" x1="0.0" y1="4" x2="0.0" y2="5" />
<text style="fill:blue;text-anchor:middle;font-size:0.4;" x="0.0" y="5.2">13</text>
<line style="stroke-width:0.01;stroke:black;" x1="0.0" y1="5" x2="0.0" y2="6" />
<text style="fill:blue;text-anchor:middle;font-size:0.4;" x="0.0" y="6.2">11</text>
<line style="stroke-width:0.01;stroke:black;" x1="0.0" y1="6" x2="0.0" y2="7" />
<text style="fill:blue;text-anchor:middle;font-size:0.4;" x="0.0" y="7.2">10</text>
<line style="stroke-width:0.01;stroke:black;" x1="0.0" y1="7" x2="-1.25" y2="8" />
<text style="fill:blue;text-anchor:middle;font-size:0.4;" x="-1.25" y="8.2">9</text>
<line style="stroke-width:0.01;stroke:black;" x1="-1.25" y1="8" x2="-2.25" y2="9" />
<text style="fill:blue;text-anchor:middle;font-size:0.4;" x="-2.25" y="9.2">7</text>
<line style="stroke-width:0.01;stroke:black;" x1="-2.25" y1="9" x2="-2.75" y2="10" />
<circle style="fill:red;stroke-width:0.01;stroke:black" cx="-2.75" cy="10" r="0.1" />
<line style="stroke-width:0.01;stroke:black;" x1="-2.25" y1="9" x2="-2.75" y2="10" />
<text style="fill:black;text-anchor:start;font-size:0.3;" x="-2.45" y="9.65">11</text>
<line style="stroke-width:0.01;stroke:black;" x1="-2.25" y1="9" x2="-1.75" y2="10" />
<circle style="fill:red;stroke-width:0.01;stroke:black" cx="-1.75" cy="10" r="0.1" />
<line style="stroke-width:0.01;stroke:black;" x1="-2.25" y1="9" x2="-1.75" y2="10" />
<text style="fill:black;text-anchor:start;font-size:0.3;" x="-1.95" y="9.65">14</text>
<line style="stroke-width:0.01;stroke:black;" x1="-1.25" y1="8" x2="-2.25" y2="9" />
<text style="fill:black;text-anchor:start;font-size:0.3;" x="-1.7" y="8.65">15</text>
<line style="stroke-width:0.01;stroke:black;" x1="-1.25" y1="8" x2="-0.25" y2="9" />
<text style="fill:blue;text-anchor:middle;font-size:0.4;" x="-0.25" y="9.2">7</text>
<line style="stroke-width:0.01;stroke:black;" x1="-0.25" y1="9" x2="-0.75" y2="10" />
<circle style="fill:red;stroke-width:0.01;stroke:black" cx="-0.75" cy="10" r="0.1" />
<line style="stroke-width:0.01;stroke:black;" x1="-0.25" y1="9" x2="-0.75" y2="10" />
<text style="fill:black;text-anchor:start;font-size:0.3;" x="-0.45" y="9.65">11</text>
<line style="stroke-width:0.01;stroke:black;" x1="-0.25" y1="9" x2="0.25" y2="10" />
<circle style="fill:red;stroke-width:0.01;stroke:black" cx="0.25" cy="10" r="0.1" />
<line style="stroke-width:0.01;stroke:black;" x1="-0.25" y1="9" x2="0.25" y2="10" />
<text style="fill:black;text-anchor:start;font-size:0.3;" x="0.05" y="9.65">15</text>
<line style="stroke-width:0.01;stroke:black;" x1="-1.25" y1="8" x2="-0.25" y2="9" />
<text style="fill:black;text-anchor:start;font-size:0.3;" x="-0.7" y="8.65">16</text>
<line style="stroke-width:0.01;stroke:black;" x1="0.0" y1="7" x2="-1.25" y2="8" />
<text style="fill:black;text-anchor:start;font-size:0.3;" x="-0.575" y="7.65">13</text>
<line style="stroke-width:0.01;stroke:black;" x1="0.0" y1="7" x2="1.25" y2="8" />
<text style="fill:blue;text-anchor:middle;font-size:0.4;" x="1.25" y="8.2">9</text>
<line style="stroke-width:0.01;stroke:black;" x1="1.25" y1="8" x2="0.75" y2="9" />
<circle style="fill:red;stroke-width:0.01;stroke:black" cx="0.75" cy="9" r="0.1" />
<line style="stroke-width:0.01;stroke:black;" x1="1.25" y1="8" x2="0.75" y2="9" />
<text style="fill:black;text-anchor:start;font-size:0.3;" x="1.05" y="8.65">12</text>
<line style="stroke-width:0.01;stroke:black;" x1="1.25" y1="8" x2="1.75" y2="9" />
<text style="fill:blue;text-anchor:middle;font-size:0.4;" x="1.75" y="9.2">14</text>
<line style="stroke-width:0.01;stroke:black;" x1="1.75" y1="9" x2="1.75" y2="10" />
<polygon style="fill:blue;stroke-width:0.01;stroke:black;" points="1.75,10 2.25,10.5 1.25,10.5" />
<line style="stroke-width:0.01;stroke:black;" x1="1.75" y1="9" x2="1.75" y2="10" />
<text style="fill:black;text-anchor:start;font-size:0.3;" x="1.8" y="9.65">8</text>
<line style="stroke-width:0.01;stroke:black;" x1="1.25" y1="8" x2="1.75" y2="9" />
<text style="fill:black;text-anchor:start;font-size:0.3;" x="1.55" y="8.65">16</text>
<line style="stroke-width:0.01;stroke:black;" x1="0.0" y1="7" x2="1.25" y2="8" />
<text style="fill:black;text-anchor:start;font-size:0.3;" x="0.675" y="7.65">14</text>
<line style="stroke-width:0.01;stroke:black;" x1="0.0" y1="6" x2="0.0" y2="7" />
<text style="fill:black;text-anchor:start;font-size:0.3;" x="0.05" y="6.65">2</text>
<line style="stroke-width:0.01;stroke:black;" x1="0.0" y1="5" x2="0.0" y2="6" />
<text style="fill:black;text-anchor:start;font-size:0.3;" x="0.05" y="5.65">6</text>
<line style="stroke-width:0.01;stroke:black;" x1="0.0" y1="4" x2="0.0" y2="5" />
<text style="fill:black;text-anchor:start;font-size:0.3;" x="0.05" y="4.65">7</text>
<line style="stroke-width:0.01;stroke:black;" x1="0.0" y1="3" x2="0.0" y2="4" />
<text style="fill:black;text-anchor:start;font-size:0.3;" x="0.05" y="3.65">4</text>
<line style="stroke-width:0.01;stroke:black;" x1="0.0" y1="2" x2="0.0" y2="3" />
<text style="fill:black;text-anchor:start;font-size:0.3;" x="0.05" y="2.65">5</text>
<line style="stroke-width:0.01;stroke:black;" x1="0.0" y1="1" x2="0.0" y2="2" />
<text style="fill:black;text-anchor:start;font-size:0.3;" x="0.05" y="1.65">3</text>
<line style="stroke-width:0.01;stroke:black;" x1="0" y1="0" x2="0.0" y2="1" />
<text style="fill:black;text-anchor:start;font-size:0.3;" x="0.05" y="0.65">1</text>
</svg>
