<?xml version="1.0" encoding="UTF-8" standalone="no"?>
<svg
   xmlns:svg="http://www.w3.org/2000/svg"
   xmlns="http://www.w3.org/2000/svg"
   version="1.0"
   width="800px"
   height="800px"
   viewBox="-3.875 -1 7.5 13">
<text style="fill:blue;text-anchor:middle;font-size:0.5;" x="0" y="0.2">1</text>
<line style="stroke-width:0.01;stroke:black;" x1="0" y1="0" x2="0.0" y2="1" />
<text style="fill:blue;text-anchor:middle;font-size:0.5;" x="0.0" y="1.2">2</text>
<line style="stroke-width:0.01;stroke:black;" x1="0.0" y1="1" x2="0.0" y2="2" />
<text style="fill:blue;text-anchor:middle;font-size:0.5;" x="0.0" y="2.2">3</text>
<line style="stroke-width:0.01;stroke:black;" x1="0.0" y1="2" x2="0.0" y2="3" />
<text style="fill:blue;text-anchor:middle;font-size:0.5;" x="0.0" y="3.2">4</text>
<line style="stroke-width:0.01;stroke:black;" x1="0.0" y1="3" x2="0.0" y2="4" />
<text style="fill:blue;text-anchor:middle;font-size:0.5;" x="0.0" y="4.2">5</text>
<line style="stroke-width:0.01;stroke:black;" x1="0.0" y1="4" x2="0.0" y2="5" />
<text style="fill:blue;text-anchor:middle;font-size:0.5;" x="0.0" y="5.2">6</text>
<line style="stroke-width:0.01;stroke:black;" x1="0.0" y1="5" x2="0.0" y2="6" />
<text style="fill:blue;text-anchor:middle;font-size:0.5;" x="0.0" y="6.2">7</text>
<line style="stroke-width:0.01;stroke:black;" x1="0.0" y1="6" x2="0.0" y2="7" />
<text style="fill:blue;text-anchor:middle;font-size:0.5;" x="0.0" y="7.2">8</text>
<line style="stroke-width:0.01;stroke:black;" x1="0.0" y1="7" x2="-1.375" y2="8" />
<text style="fill:blue;text-anchor:middle;font-size:0.5;" x="-1.375" y="8.2">9</text>
<line style="stroke-width:0.01;stroke:black;" x1="-1.375" y1="8" x2="-2.375" y2="9" />
<text style="fill:blue;text-anchor:middle;font-size:0.5;" x="-2.375" y="9.2">10</text>
<line style="stroke-width:0.01;stroke:black;" x1="-2.375" y1="9" x2="-2.875" y2="10" />
<text style="fill:red;text-anchor:middle;font-size:0.5;" x="-2.875" y="10.2">11</text>
<line style="stroke-width:0.01;stroke:black;" x1="-2.375" y1="9" x2="-1.875" y2="10" />
<text style="fill:red;text-anchor:middle;font-size:0.5;" x="-1.875" y="10.2">12</text>
<line style="stroke-width:0.01;stroke:black;" x1="-1.375" y1="8" x2="-0.375" y2="9" />
<text style="fill:blue;text-anchor:middle;font-size:0.5;" x="-0.375" y="9.2">13</text>
<line style="stroke-width:0.01;stroke:black;" x1="-0.375" y1="9" x2="-0.875" y2="10" />
<text style="fill:red;text-anchor:middle;font-size:0.5;" x="-0.875" y="10.2">14</text>
<line style="stroke-width:0.01;stroke:black;" x1="-0.375" y1="9" x2="0.125" y2="10" />
<text style="fill:red;text-anchor:middle;font-size:0.5;" x="0.125" y="10.2">15</text>
<line style="stroke-width:0.01;stroke:black;" x1="0.0" y1="7" x2="1.375" y2="8" />
<text style="fill:blue;text-anchor:middle;font-size:0.5;" x="1.375" y="8.2">16</text>
<line style="stroke-width:0.01;stroke:black;" x1="1.375" y1="8" x2="0.875" y2="9" />
<text style="fill:red;text-anchor:middle;font-size:0.5;" x="0.875" y="9.2">17</text>
<line style="stroke-width:0.01;stroke:black;" x1="1.375" y1="8" x2="1.875" y2="9" />
<text style="fill:blue;text-anchor:middle;font-size:0.5;" x="1.875" y="9.2">18</text>
<line style="stroke-width:0.01;stroke:black;" x1="1.875" y1="9" x2="1.125" y2="10" />
<text style="fill:blue;text-anchor:middle;font-size:0.5;" x="1.125" y="10.2">19</text>
<line style="stroke-width:0.01;stroke:black;" x1="1.125" y1="10" x2="0.625" y2="11" />
<text style="fill:red;text-anchor:middle;font-size:0.5;" x="0.625" y="11.2">20</text>
<line style="stroke-width:0.01;stroke:black;" x1="1.125" y1="10" x2="1.625" y2="11" />
<text style="fill:red;text-anchor:middle;font-size:0.5;" x="1.625" y="11.2">21</text>
<line style="stroke-width:0.01;stroke:black;" x1="1.875" y1="9" x2="2.625" y2="10" />
<text style="fill:blue;text-anchor:middle;font-size:0.5;" x="2.625" y="10.2">22</text>
<line style="stroke-width:0.01;stroke:black;" x1="2.625" y1="10" x2="2.625" y2="11" />
<text style="fill:red;text-anchor:middle;font-size:0.5;" x="2.625" y="11.2">23</text>
</svg>
