<?xml version="1.0" encoding="UTF-8" standalone="no"?>
<!DOCTYPE svg PUBLIC "-//W3C//DTD SVG 1.1//EN"
 "http://www.w3.org/Graphics/SVG/1.1/DTD/svg11.dtd">
<svg
   xmlns:svg="http://www.w3.org/2000/svg"
   xmlns="http://www.w3.org/2000/svg"
   version="1.1"
   width="800px"
   height="800px"
   viewBox="-6.125 -1 9.5 6">
<text style="fill:blue;text-anchor:middle;font-size:0.4;" x="0" y="0.2">2</text>
<line style="stroke-width:0.01;stroke:black;" x1="0" y1="0" x2="-1.875" y2="1" />
<text style="fill:blue;text-anchor:middle;font-size:0.4;" x="-1.875" y="1.2">4</text>
<line style="stroke-width:0.01;stroke:black;" x1="-1.875" y1="1" x2="-4.125" y2="2" />
<text style="fill:blue;text-anchor:middle;font-size:0.4;" x="-4.125" y="2.2">5</text>
<line style="stroke-width:0.01;stroke:black;" x1="-4.125" y1="2" x2="-5.125" y2="3" />
<circle style="fill:red;stroke-width:0.01;stroke:black" cx="-5.125" cy="3" r="0.1" />
<line style="stroke-width:0.01;stroke:black;" x1="-4.125" y1="2" x2="-5.125" y2="3" />
<text style="fill:black;text-anchor:start;font-size:0.3;" x="-4.575" y="2.65">3</text>
<line style="stroke-width:0.01;stroke:black;" x1="-4.125" y1="2" x2="-4.125" y2="3" />
<circle style="fill:red;stroke-width:0.01;stroke:black" cx="-4.125" cy="3" r="0.1" />
<line style="stroke-width:0.01;stroke:black;" x1="-4.125" y1="2" x2="-4.125" y2="3" />
<text style="fill:black;text-anchor:start;font-size:0.3;" x="-4.075" y="2.65">6</text>
<line style="stroke-width:0.01;stroke:black;" x1="-4.125" y1="2" x2="-3.125" y2="3" />
<circle style="fill:red;stroke-width:0.01;stroke:black" cx="-3.125" cy="3" r="0.1" />
<line style="stroke-width:0.01;stroke:black;" x1="-4.125" y1="2" x2="-3.125" y2="3" />
<text style="fill:black;text-anchor:start;font-size:0.3;" x="-3.575" y="2.65">9</text>
<line style="stroke-width:0.01;stroke:black;" x1="-1.875" y1="1" x2="-4.125" y2="2" />
<text style="fill:black;text-anchor:start;font-size:0.3;" x="-2.95" y="1.65">2</text>
<line style="stroke-width:0.01;stroke:black;" x1="-1.875" y1="1" x2="-1.625" y2="2" />
<text style="fill:blue;text-anchor:middle;font-size:0.4;" x="-1.625" y="2.2">5</text>
<line style="stroke-width:0.01;stroke:black;" x1="-1.625" y1="2" x2="-2.125" y2="3" />
<circle style="fill:red;stroke-width:0.01;stroke:black" cx="-2.125" cy="3" r="0.1" />
<line style="stroke-width:0.01;stroke:black;" x1="-1.625" y1="2" x2="-2.125" y2="3" />
<text style="fill:black;text-anchor:start;font-size:0.3;" x="-1.825" y="2.65">6</text>
<line style="stroke-width:0.01;stroke:black;" x1="-1.625" y1="2" x2="-1.125" y2="3" />
<circle style="fill:red;stroke-width:0.01;stroke:black" cx="-1.125" cy="3" r="0.1" />
<line style="stroke-width:0.01;stroke:black;" x1="-1.625" y1="2" x2="-1.125" y2="3" />
<text style="fill:black;text-anchor:start;font-size:0.3;" x="-1.325" y="2.65">9</text>
<line style="stroke-width:0.01;stroke:black;" x1="-1.875" y1="1" x2="-1.625" y2="2" />
<text style="fill:black;text-anchor:start;font-size:0.3;" x="-1.7" y="1.65">3</text>
<line style="stroke-width:0.01;stroke:black;" x1="-1.875" y1="1" x2="-0.625" y2="2" />
<circle style="fill:red;stroke-width:0.01;stroke:black" cx="-0.625" cy="2" r="0.1" />
<line style="stroke-width:0.01;stroke:black;" x1="-1.875" y1="1" x2="-0.625" y2="2" />
<text style="fill:black;text-anchor:start;font-size:0.3;" x="-1.2" y="1.65">5</text>
<line style="stroke-width:0.01;stroke:black;" x1="-1.875" y1="1" x2="0.375" y2="2" />
<circle style="fill:red;stroke-width:0.01;stroke:black" cx="0.375" cy="2" r="0.1" />
<line style="stroke-width:0.01;stroke:black;" x1="-1.875" y1="1" x2="0.375" y2="2" />
<text style="fill:black;text-anchor:start;font-size:0.3;" x="-0.7" y="1.65">9</text>
<line style="stroke-width:0.01;stroke:black;" x1="0" y1="0" x2="-1.875" y2="1" />
<text style="fill:black;text-anchor:start;font-size:0.3;" x="-0.8875" y="0.65">1</text>
<line style="stroke-width:0.01;stroke:black;" x1="0" y1="0" x2="1.875" y2="1" />
<text style="fill:blue;text-anchor:middle;font-size:0.4;" x="1.875" y="1.2">4</text>
<line style="stroke-width:0.01;stroke:black;" x1="1.875" y1="1" x2="1.375" y2="2" />
<text style="fill:blue;text-anchor:middle;font-size:0.4;" x="1.375" y="2.2">5</text>
<line style="stroke-width:0.01;stroke:black;" x1="1.375" y1="2" x2="0.875" y2="3" />
<circle style="fill:red;stroke-width:0.01;stroke:black" cx="0.875" cy="3" r="0.1" />
<line style="stroke-width:0.01;stroke:black;" x1="1.375" y1="2" x2="0.875" y2="3" />
<text style="fill:black;text-anchor:start;font-size:0.3;" x="1.175" y="2.65">6</text>
<line style="stroke-width:0.01;stroke:black;" x1="1.375" y1="2" x2="1.875" y2="3" />
<circle style="fill:red;stroke-width:0.01;stroke:black" cx="1.875" cy="3" r="0.1" />
<line style="stroke-width:0.01;stroke:black;" x1="1.375" y1="2" x2="1.875" y2="3" />
<text style="fill:black;text-anchor:start;font-size:0.3;" x="1.675" y="2.65">9</text>
<line style="stroke-width:0.01;stroke:black;" x1="1.875" y1="1" x2="1.375" y2="2" />
<text style="fill:black;text-anchor:start;font-size:0.3;" x="1.675" y="1.65">3</text>
<line style="stroke-width:0.01;stroke:black;" x1="1.875" y1="1" x2="2.375" y2="2" />
<polygon style="fill:blue;stroke-width:0.01;stroke:black;" points="2.375,2 2.875,2.5 1.875,2.5" />
<line style="stroke-width:0.01;stroke:black;" x1="1.875" y1="1" x2="2.375" y2="2" />
<text style="fill:black;text-anchor:start;font-size:0.3;" x="2.175" y="1.65">5</text>
<line style="stroke-width:0.01;stroke:black;" x1="0" y1="0" x2="1.875" y2="1" />
<text style="fill:black;text-anchor:start;font-size:0.3;" x="0.9875" y="0.65">2</text>
</svg>
