<?xml version="1.0" encoding="UTF-8" standalone="no"?>
<!DOCTYPE svg PUBLIC "-//W3C//DTD SVG 1.1//EN"
 "http://www.w3.org/Graphics/SVG/1.1/DTD/svg11.dtd">
<svg
   xmlns:svg="http://www.w3.org/2000/svg"
   xmlns="http://www.w3.org/2000/svg"
   version="1.1"
   width="800px"
   height="800px"
   viewBox="-4.75 -1 7.5 6">
<text style="fill:blue;text-anchor:middle;font-size:0.4;" x="0" y="0.2">2</text>
<line style="stroke-width:0.01;stroke:black;" x1="0" y1="0" x2="-0.5" y2="1" />
<text style="fill:blue;text-anchor:middle;font-size:0.4;" x="-0.5" y="1.2">4</text>
<line style="stroke-width:0.01;stroke:black;" x1="-0.5" y1="1" x2="-2.75" y2="2" />
<text style="fill:blue;text-anchor:middle;font-size:0.4;" x="-2.75" y="2.2">5</text>
<line style="stroke-width:0.01;stroke:black;" x1="-2.75" y1="2" x2="-3.75" y2="3" />
<circle style="fill:red;stroke-width:0.01;stroke:black" cx="-3.75" cy="3" r="0.1" />
<line style="stroke-width:0.01;stroke:black;" x1="-2.75" y1="2" x2="-3.75" y2="3" />
<text style="fill:black;text-anchor:start;font-size:0.3;" x="-3.2" y="2.65">3</text>
<line style="stroke-width:0.01;stroke:black;" x1="-2.75" y1="2" x2="-2.75" y2="3" />
<circle style="fill:red;stroke-width:0.01;stroke:black" cx="-2.75" cy="3" r="0.1" />
<line style="stroke-width:0.01;stroke:black;" x1="-2.75" y1="2" x2="-2.75" y2="3" />
<text style="fill:black;text-anchor:start;font-size:0.3;" x="-2.7" y="2.65">6</text>
<line style="stroke-width:0.01;stroke:black;" x1="-2.75" y1="2" x2="-1.75" y2="3" />
<circle style="fill:red;stroke-width:0.01;stroke:black" cx="-1.75" cy="3" r="0.1" />
<line style="stroke-width:0.01;stroke:black;" x1="-2.75" y1="2" x2="-1.75" y2="3" />
<text style="fill:black;text-anchor:start;font-size:0.3;" x="-2.2" y="2.65">9</text>
<line style="stroke-width:0.01;stroke:black;" x1="-0.5" y1="1" x2="-2.75" y2="2" />
<text style="fill:black;text-anchor:start;font-size:0.3;" x="-1.575" y="1.65">2</text>
<line style="stroke-width:0.01;stroke:black;" x1="-0.5" y1="1" x2="-0.25" y2="2" />
<text style="fill:blue;text-anchor:middle;font-size:0.4;" x="-0.25" y="2.2">5</text>
<line style="stroke-width:0.01;stroke:black;" x1="-0.25" y1="2" x2="-0.75" y2="3" />
<circle style="fill:red;stroke-width:0.01;stroke:black" cx="-0.75" cy="3" r="0.1" />
<line style="stroke-width:0.01;stroke:black;" x1="-0.25" y1="2" x2="-0.75" y2="3" />
<text style="fill:black;text-anchor:start;font-size:0.3;" x="-0.45" y="2.65">6</text>
<line style="stroke-width:0.01;stroke:black;" x1="-0.25" y1="2" x2="0.25" y2="3" />
<circle style="fill:red;stroke-width:0.01;stroke:black" cx="0.25" cy="3" r="0.1" />
<line style="stroke-width:0.01;stroke:black;" x1="-0.25" y1="2" x2="0.25" y2="3" />
<text style="fill:black;text-anchor:start;font-size:0.3;" x="0.05" y="2.65">9</text>
<line style="stroke-width:0.01;stroke:black;" x1="-0.5" y1="1" x2="-0.25" y2="2" />
<text style="fill:black;text-anchor:start;font-size:0.3;" x="-0.325" y="1.65">3</text>
<line style="stroke-width:0.01;stroke:black;" x1="-0.5" y1="1" x2="0.75" y2="2" />
<circle style="fill:red;stroke-width:0.01;stroke:black" cx="0.75" cy="2" r="0.1" />
<line style="stroke-width:0.01;stroke:black;" x1="-0.5" y1="1" x2="0.75" y2="2" />
<text style="fill:black;text-anchor:start;font-size:0.3;" x="0.175" y="1.65">5</text>
<line style="stroke-width:0.01;stroke:black;" x1="-0.5" y1="1" x2="1.75" y2="2" />
<circle style="fill:red;stroke-width:0.01;stroke:black" cx="1.75" cy="2" r="0.1" />
<line style="stroke-width:0.01;stroke:black;" x1="-0.5" y1="1" x2="1.75" y2="2" />
<text style="fill:black;text-anchor:start;font-size:0.3;" x="0.675" y="1.65">9</text>
<line style="stroke-width:0.01;stroke:black;" x1="0" y1="0" x2="-0.5" y2="1" />
<text style="fill:black;text-anchor:start;font-size:0.3;" x="-0.2" y="0.65">1</text>
<line style="stroke-width:0.01;stroke:black;" x1="0" y1="0" x2="0.5" y2="1" />
<polygon style="fill:blue;stroke-width:0.01;stroke:black;" points="0.5,1 1.0,1.5 0.0,1.5" />
<line style="stroke-width:0.01;stroke:black;" x1="0" y1="0" x2="0.5" y2="1" />
<text style="fill:black;text-anchor:start;font-size:0.3;" x="0.3" y="0.65">2</text>
</svg>
