<?xml version="1.0" encoding="UTF-8" standalone="no"?>
<!DOCTYPE svg PUBLIC "-//W3C//DTD SVG 1.1//EN"
 "http://www.w3.org/Graphics/SVG/1.1/DTD/svg11.dtd">
<svg
   xmlns:svg="http://www.w3.org/2000/svg"
   xmlns="http://www.w3.org/2000/svg"
   version="1.1"
   width="800px"
   height="800px"
   viewBox="-5.875 -1 8.5 6">
<text style="fill:blue;text-anchor:middle;font-size:0.4;" x="0" y="0.2">2</text>
<line style="stroke-width:0.01;stroke:black;" x1="0" y1="0" x2="-1.625" y2="1" />
<text style="fill:blue;text-anchor:middle;font-size:0.4;" x="-1.625" y="1.2">4</text>
<line style="stroke-width:0.01;stroke:black;" x1="-1.625" y1="1" x2="-3.875" y2="2" />
<text style="fill:blue;text-anchor:middle;font-size:0.4;" x="-3.875" y="2.2">5</text>
<line style="stroke-width:0.01;stroke:black;" x1="-3.875" y1="2" x2="-4.875" y2="3" />
<circle style="fill:red;stroke-width:0.01;stroke:black" cx="-4.875" cy="3" r="0.1" />
<line style="stroke-width:0.01;stroke:black;" x1="-3.875" y1="2" x2="-4.875" y2="3" />
<text style="fill:black;text-anchor:start;font-size:0.3;" x="-4.325" y="2.65">3</text>
<line style="stroke-width:0.01;stroke:black;" x1="-3.875" y1="2" x2="-3.875" y2="3" />
<circle style="fill:red;stroke-width:0.01;stroke:black" cx="-3.875" cy="3" r="0.1" />
<line style="stroke-width:0.01;stroke:black;" x1="-3.875" y1="2" x2="-3.875" y2="3" />
<text style="fill:black;text-anchor:start;font-size:0.3;" x="-3.825" y="2.65">6</text>
<line style="stroke-width:0.01;stroke:black;" x1="-3.875" y1="2" x2="-2.875" y2="3" />
<circle style="fill:red;stroke-width:0.01;stroke:black" cx="-2.875" cy="3" r="0.1" />
<line style="stroke-width:0.01;stroke:black;" x1="-3.875" y1="2" x2="-2.875" y2="3" />
<text style="fill:black;text-anchor:start;font-size:0.3;" x="-3.325" y="2.65">9</text>
<line style="stroke-width:0.01;stroke:black;" x1="-1.625" y1="1" x2="-3.875" y2="2" />
<text style="fill:black;text-anchor:start;font-size:0.3;" x="-2.7" y="1.65">2</text>
<line style="stroke-width:0.01;stroke:black;" x1="-1.625" y1="1" x2="-1.375" y2="2" />
<text style="fill:blue;text-anchor:middle;font-size:0.4;" x="-1.375" y="2.2">5</text>
<line style="stroke-width:0.01;stroke:black;" x1="-1.375" y1="2" x2="-1.875" y2="3" />
<circle style="fill:red;stroke-width:0.01;stroke:black" cx="-1.875" cy="3" r="0.1" />
<line style="stroke-width:0.01;stroke:black;" x1="-1.375" y1="2" x2="-1.875" y2="3" />
<text style="fill:black;text-anchor:start;font-size:0.3;" x="-1.575" y="2.65">6</text>
<line style="stroke-width:0.01;stroke:black;" x1="-1.375" y1="2" x2="-0.875" y2="3" />
<circle style="fill:red;stroke-width:0.01;stroke:black" cx="-0.875" cy="3" r="0.1" />
<line style="stroke-width:0.01;stroke:black;" x1="-1.375" y1="2" x2="-0.875" y2="3" />
<text style="fill:black;text-anchor:start;font-size:0.3;" x="-1.075" y="2.65">9</text>
<line style="stroke-width:0.01;stroke:black;" x1="-1.625" y1="1" x2="-1.375" y2="2" />
<text style="fill:black;text-anchor:start;font-size:0.3;" x="-1.45" y="1.65">3</text>
<line style="stroke-width:0.01;stroke:black;" x1="-1.625" y1="1" x2="-0.375" y2="2" />
<circle style="fill:red;stroke-width:0.01;stroke:black" cx="-0.375" cy="2" r="0.1" />
<line style="stroke-width:0.01;stroke:black;" x1="-1.625" y1="1" x2="-0.375" y2="2" />
<text style="fill:black;text-anchor:start;font-size:0.3;" x="-0.95" y="1.65">5</text>
<line style="stroke-width:0.01;stroke:black;" x1="-1.625" y1="1" x2="0.625" y2="2" />
<circle style="fill:red;stroke-width:0.01;stroke:black" cx="0.625" cy="2" r="0.1" />
<line style="stroke-width:0.01;stroke:black;" x1="-1.625" y1="1" x2="0.625" y2="2" />
<text style="fill:black;text-anchor:start;font-size:0.3;" x="-0.45" y="1.65">9</text>
<line style="stroke-width:0.01;stroke:black;" x1="0" y1="0" x2="-1.625" y2="1" />
<text style="fill:black;text-anchor:start;font-size:0.3;" x="-0.7625" y="0.65">1</text>
<line style="stroke-width:0.01;stroke:black;" x1="0" y1="0" x2="1.625" y2="1" />
<text style="fill:blue;text-anchor:middle;font-size:0.4;" x="1.625" y="1.2">4</text>
<line style="stroke-width:0.01;stroke:black;" x1="1.625" y1="1" x2="1.625" y2="2" />
<text style="fill:blue;text-anchor:middle;font-size:0.4;" x="1.625" y="2.2">5</text>
<line style="stroke-width:0.01;stroke:black;" x1="1.625" y1="2" x2="1.625" y2="3" />
<circle style="fill:red;stroke-width:0.01;stroke:black" cx="1.625" cy="3" r="0.1" />
<line style="stroke-width:0.01;stroke:black;" x1="1.625" y1="2" x2="1.625" y2="3" />
<text style="fill:black;text-anchor:start;font-size:0.3;" x="1.675" y="2.65">6</text>
<line style="stroke-width:0.01;stroke:black;" x1="1.625" y1="1" x2="1.625" y2="2" />
<text style="fill:black;text-anchor:start;font-size:0.3;" x="1.675" y="1.65">3</text>
<line style="stroke-width:0.01;stroke:black;" x1="0" y1="0" x2="1.625" y2="1" />
<text style="fill:black;text-anchor:start;font-size:0.3;" x="0.8625" y="0.65">2</text>
</svg>
