<?xml version="1.0" encoding="UTF-8" standalone="no"?>
<!DOCTYPE svg PUBLIC "-//W3C//DTD SVG 1.1//EN"
 "http://www.w3.org/Graphics/SVG/1.1/DTD/svg11.dtd">
<svg
   xmlns:svg="http://www.w3.org/2000/svg"
   xmlns="http://www.w3.org/2000/svg"
   version="1.1"
   width="800px"
   height="800.0px"
   viewBox="0 0 94 94">
<g>
<path d="M0,0 l0,94 M1,0 l0,94 M2,0 l0,94 M3,0 l0,94 M4,0 l0,94 M5,0 l0,94 M6,0 l0,94 M7,0 l0,94 M8,0 l0,94 M9,0 l0,94 M10,0 l0,94 M11,0 l0,94 M12,0 l0,94 M13,0 l0,94 M14,0 l0,94 M15,0 l0,94 M16,0 l0,94 M17,0 l0,94 M18,0 l0,94 M19,0 l0,94 M20,0 l0,94 M21,0 l0,94 M22,0 l0,94 M23,0 l0,94 M24,0 l0,94 M25,0 l0,94 M26,0 l0,94 M27,0 l0,94 M28,0 l0,94 M29,0 l0,94 M30,0 l0,94 M31,0 l0,94 M32,0 l0,94 M33,0 l0,94 M34,0 l0,94 M35,0 l0,94 M36,0 l0,94 M37,0 l0,94 M38,0 l0,94 M39,0 l0,94 M40,0 l0,94 M41,0 l0,94 M42,0 l0,94 M43,0 l0,94 M44,0 l0,94 M45,0 l0,94 M46,0 l0,94 M47,0 l0,94 M48,0 l0,94 M49,0 l0,94 M50,0 l0,94 M51,0 l0,94 M52,0 l0,94 M53,0 l0,94 M54,0 l0,94 M55,0 l0,94 M56,0 l0,94 M57,0 l0,94 M58,0 l0,94 M59,0 l0,94 M60,0 l0,94 M61,0 l0,94 M62,0 l0,94 M63,0 l0,94 M64,0 l0,94 M65,0 l0,94 M66,0 l0,94 M67,0 l0,94 M68,0 l0,94 M69,0 l0,94 M70,0 l0,94 M71,0 l0,94 M72,0 l0,94 M73,0 l0,94 M74,0 l0,94 M75,0 l0,94 M76,0 l0,94 M77,0 l0,94 M78,0 l0,94 M79,0 l0,94 M80,0 l0,94 M81,0 l0,94 M82,0 l0,94 M83,0 l0,94 M84,0 l0,94 M85,0 l0,94 M86,0 l0,94 M87,0 l0,94 M88,0 l0,94 M89,0 l0,94 M90,0 l0,94 M91,0 l0,94 M92,0 l0,94 M93,0 l0,94 M94,0 l0,94 M0,0 l94,0 M0,1 l94,0 M0,2 l94,0 M0,3 l94,0 M0,4 l94,0 M0,5 l94,0 M0,6 l94,0 M0,7 l94,0 M0,8 l94,0 M0,9 l94,0 M0,10 l94,0 M0,11 l94,0 M0,12 l94,0 M0,13 l94,0 M0,14 l94,0 M0,15 l94,0 M0,16 l94,0 M0,17 l94,0 M0,18 l94,0 M0,19 l94,0 M0,20 l94,0 M0,21 l94,0 M0,22 l94,0 M0,23 l94,0 M0,24 l94,0 M0,25 l94,0 M0,26 l94,0 M0,27 l94,0 M0,28 l94,0 M0,29 l94,0 M0,30 l94,0 M0,31 l94,0 M0,32 l94,0 M0,33 l94,0 M0,34 l94,0 M0,35 l94,0 M0,36 l94,0 M0,37 l94,0 M0,38 l94,0 M0,39 l94,0 M0,40 l94,0 M0,41 l94,0 M0,42 l94,0 M0,43 l94,0 M0,44 l94,0 M0,45 l94,0 M0,46 l94,0 M0,47 l94,0 M0,48 l94,0 M0,49 l94,0 M0,50 l94,0 M0,51 l94,0 M0,52 l94,0 M0,53 l94,0 M0,54 l94,0 M0,55 l94,0 M0,56 l94,0 M0,57 l94,0 M0,58 l94,0 M0,59 l94,0 M0,60 l94,0 M0,61 l94,0 M0,62 l94,0 M0,63 l94,0 M0,64 l94,0 M0,65 l94,0 M0,66 l94,0 M0,67 l94,0 M0,68 l94,0 M0,69 l94,0 M0,70 l94,0 M0,71 l94,0 M0,72 l94,0 M0,73 l94,0 M0,74 l94,0 M0,75 l94,0 M0,76 l94,0 M0,77 l94,0 M0,78 l94,0 M0,79 l94,0 M0,80 l94,0 M0,81 l94,0 M0,82 l94,0 M0,83 l94,0 M0,84 l94,0 M0,85 l94,0 M0,86 l94,0 M0,87 l94,0 M0,88 l94,0 M0,89 l94,0 M0,90 l94,0 M0,91 l94,0 M0,92 l94,0 M0,93 l94,0 M0,94 l94,0 " style="stroke-width:0.05;stroke:#000000;fill:none"/>
<rect x="0" y="15" width="1" height="1" style="stroke-width:0.05;stroke:#000000;fill:#FF0000;"/>
<rect x="1" y="19" width="1" height="1" style="stroke-width:0.05;stroke:#000000;fill:#FF0000;"/>
<rect x="2" y="21" width="1" height="1" style="stroke-width:0.05;stroke:#000000;fill:#FF0000;"/>
<rect x="3" y="69" width="1" height="1" style="stroke-width:0.05;stroke:#000000;fill:#FF0000;"/>
<rect x="4" y="25" width="1" height="1" style="stroke-width:0.05;stroke:#000000;fill:#FF0000;"/>
<rect x="5" y="70" width="1" height="1" style="stroke-width:0.05;stroke:#000000;fill:#FF0000;"/>
<rect x="6" y="75" width="1" height="1" style="stroke-width:0.05;stroke:#000000;fill:#FF0000;"/>
<rect x="7" y="66" width="1" height="1" style="stroke-width:0.05;stroke:#000000;fill:#FF0000;"/>
<rect x="8" y="24" width="1" height="1" style="stroke-width:0.05;stroke:#000000;fill:#FF0000;"/>
<rect x="9" y="71" width="1" height="1" style="stroke-width:0.05;stroke:#000000;fill:#FF0000;"/>
<rect x="10" y="64" width="1" height="1" style="stroke-width:0.05;stroke:#000000;fill:#FF0000;"/>
<rect x="11" y="68" width="1" height="1" style="stroke-width:0.05;stroke:#000000;fill:#FF0000;"/>
<rect x="12" y="65" width="1" height="1" style="stroke-width:0.05;stroke:#000000;fill:#FF0000;"/>
<rect x="13" y="18" width="1" height="1" style="stroke-width:0.05;stroke:#000000;fill:#FF0000;"/>
<rect x="14" y="14" width="1" height="1" style="stroke-width:0.05;stroke:#000000;fill:#FF0000;"/>
<rect x="15" y="76" width="1" height="1" style="stroke-width:0.05;stroke:#000000;fill:#FF0000;"/>
<rect x="16" y="93" width="1" height="1" style="stroke-width:0.05;stroke:#000000;fill:#FF0000;"/>
<rect x="17" y="81" width="1" height="1" style="stroke-width:0.05;stroke:#000000;fill:#FF0000;"/>
<rect x="18" y="28" width="1" height="1" style="stroke-width:0.05;stroke:#000000;fill:#FF0000;"/>
<rect x="19" y="32" width="1" height="1" style="stroke-width:0.05;stroke:#000000;fill:#FF0000;"/>
<rect x="20" y="80" width="1" height="1" style="stroke-width:0.05;stroke:#000000;fill:#FF0000;"/>
<rect x="21" y="61" width="1" height="1" style="stroke-width:0.05;stroke:#000000;fill:#FF0000;"/>
<rect x="22" y="20" width="1" height="1" style="stroke-width:0.05;stroke:#000000;fill:#FF0000;"/>
<rect x="23" y="11" width="1" height="1" style="stroke-width:0.05;stroke:#000000;fill:#FF0000;"/>
<rect x="24" y="41" width="1" height="1" style="stroke-width:0.05;stroke:#000000;fill:#FF0000;"/>
<rect x="25" y="31" width="1" height="1" style="stroke-width:0.05;stroke:#000000;fill:#FF0000;"/>
<rect x="26" y="63" width="1" height="1" style="stroke-width:0.05;stroke:#000000;fill:#FF0000;"/>
<rect x="27" y="51" width="1" height="1" style="stroke-width:0.05;stroke:#000000;fill:#FF0000;"/>
<rect x="28" y="39" width="1" height="1" style="stroke-width:0.05;stroke:#000000;fill:#FF0000;"/>
<rect x="29" y="57" width="1" height="1" style="stroke-width:0.05;stroke:#000000;fill:#FF0000;"/>
<rect x="30" y="60" width="1" height="1" style="stroke-width:0.05;stroke:#000000;fill:#FF0000;"/>
<rect x="31" y="54" width="1" height="1" style="stroke-width:0.05;stroke:#000000;fill:#FF0000;"/>
<rect x="32" y="9" width="1" height="1" style="stroke-width:0.05;stroke:#000000;fill:#FF0000;"/>
<rect x="33" y="29" width="1" height="1" style="stroke-width:0.05;stroke:#000000;fill:#FF0000;"/>
<rect x="34" y="42" width="1" height="1" style="stroke-width:0.05;stroke:#000000;fill:#FF0000;"/>
<rect x="35" y="5" width="1" height="1" style="stroke-width:0.05;stroke:#000000;fill:#FF0000;"/>
<rect x="36" y="91" width="1" height="1" style="stroke-width:0.05;stroke:#000000;fill:#FF0000;"/>
<rect x="37" y="1" width="1" height="1" style="stroke-width:0.05;stroke:#000000;fill:#FF0000;"/>
<rect x="38" y="45" width="1" height="1" style="stroke-width:0.05;stroke:#000000;fill:#FF0000;"/>
<rect x="39" y="8" width="1" height="1" style="stroke-width:0.05;stroke:#000000;fill:#FF0000;"/>
<rect x="40" y="85" width="1" height="1" style="stroke-width:0.05;stroke:#000000;fill:#FF0000;"/>
<rect x="41" y="7" width="1" height="1" style="stroke-width:0.05;stroke:#000000;fill:#FF0000;"/>
<rect x="42" y="88" width="1" height="1" style="stroke-width:0.05;stroke:#000000;fill:#FF0000;"/>
<rect x="43" y="44" width="1" height="1" style="stroke-width:0.05;stroke:#000000;fill:#FF0000;"/>
<rect x="44" y="92" width="1" height="1" style="stroke-width:0.05;stroke:#000000;fill:#FF0000;"/>
<rect x="45" y="83" width="1" height="1" style="stroke-width:0.05;stroke:#000000;fill:#FF0000;"/>
<rect x="46" y="48" width="1" height="1" style="stroke-width:0.05;stroke:#000000;fill:#FF0000;"/>
<rect x="47" y="46" width="1" height="1" style="stroke-width:0.05;stroke:#000000;fill:#FF0000;"/>
<rect x="48" y="62" width="1" height="1" style="stroke-width:0.05;stroke:#000000;fill:#FF0000;"/>
<rect x="49" y="84" width="1" height="1" style="stroke-width:0.05;stroke:#000000;fill:#FF0000;"/>
<rect x="50" y="47" width="1" height="1" style="stroke-width:0.05;stroke:#000000;fill:#FF0000;"/>
<rect x="51" y="10" width="1" height="1" style="stroke-width:0.05;stroke:#000000;fill:#FF0000;"/>
<rect x="52" y="43" width="1" height="1" style="stroke-width:0.05;stroke:#000000;fill:#FF0000;"/>
<rect x="53" y="79" width="1" height="1" style="stroke-width:0.05;stroke:#000000;fill:#FF0000;"/>
<rect x="54" y="30" width="1" height="1" style="stroke-width:0.05;stroke:#000000;fill:#FF0000;"/>
<rect x="55" y="13" width="1" height="1" style="stroke-width:0.05;stroke:#000000;fill:#FF0000;"/>
<rect x="56" y="4" width="1" height="1" style="stroke-width:0.05;stroke:#000000;fill:#FF0000;"/>
<rect x="57" y="89" width="1" height="1" style="stroke-width:0.05;stroke:#000000;fill:#FF0000;"/>
<rect x="58" y="50" width="1" height="1" style="stroke-width:0.05;stroke:#000000;fill:#FF0000;"/>
<rect x="59" y="90" width="1" height="1" style="stroke-width:0.05;stroke:#000000;fill:#FF0000;"/>
<rect x="60" y="82" width="1" height="1" style="stroke-width:0.05;stroke:#000000;fill:#FF0000;"/>
<rect x="61" y="40" width="1" height="1" style="stroke-width:0.05;stroke:#000000;fill:#FF0000;"/>
<rect x="62" y="2" width="1" height="1" style="stroke-width:0.05;stroke:#000000;fill:#FF0000;"/>
<rect x="63" y="6" width="1" height="1" style="stroke-width:0.05;stroke:#000000;fill:#FF0000;"/>
<rect x="64" y="53" width="1" height="1" style="stroke-width:0.05;stroke:#000000;fill:#FF0000;"/>
<rect x="65" y="55" width="1" height="1" style="stroke-width:0.05;stroke:#000000;fill:#FF0000;"/>
<rect x="66" y="86" width="1" height="1" style="stroke-width:0.05;stroke:#000000;fill:#FF0000;"/>
<rect x="67" y="49" width="1" height="1" style="stroke-width:0.05;stroke:#000000;fill:#FF0000;"/>
<rect x="68" y="72" width="1" height="1" style="stroke-width:0.05;stroke:#000000;fill:#FF0000;"/>
<rect x="69" y="52" width="1" height="1" style="stroke-width:0.05;stroke:#000000;fill:#FF0000;"/>
<rect x="70" y="37" width="1" height="1" style="stroke-width:0.05;stroke:#000000;fill:#FF0000;"/>
<rect x="71" y="74" width="1" height="1" style="stroke-width:0.05;stroke:#000000;fill:#FF0000;"/>
<rect x="72" y="27" width="1" height="1" style="stroke-width:0.05;stroke:#000000;fill:#FF0000;"/>
<rect x="73" y="23" width="1" height="1" style="stroke-width:0.05;stroke:#000000;fill:#FF0000;"/>
<rect x="74" y="67" width="1" height="1" style="stroke-width:0.05;stroke:#000000;fill:#FF0000;"/>
<rect x="75" y="36" width="1" height="1" style="stroke-width:0.05;stroke:#000000;fill:#FF0000;"/>
<rect x="76" y="38" width="1" height="1" style="stroke-width:0.05;stroke:#000000;fill:#FF0000;"/>
<rect x="77" y="26" width="1" height="1" style="stroke-width:0.05;stroke:#000000;fill:#FF0000;"/>
<rect x="78" y="59" width="1" height="1" style="stroke-width:0.05;stroke:#000000;fill:#FF0000;"/>
<rect x="79" y="33" width="1" height="1" style="stroke-width:0.05;stroke:#000000;fill:#FF0000;"/>
<rect x="80" y="22" width="1" height="1" style="stroke-width:0.05;stroke:#000000;fill:#FF0000;"/>
<rect x="81" y="34" width="1" height="1" style="stroke-width:0.05;stroke:#000000;fill:#FF0000;"/>
<rect x="82" y="56" width="1" height="1" style="stroke-width:0.05;stroke:#000000;fill:#FF0000;"/>
<rect x="83" y="35" width="1" height="1" style="stroke-width:0.05;stroke:#000000;fill:#FF0000;"/>
<rect x="84" y="78" width="1" height="1" style="stroke-width:0.05;stroke:#000000;fill:#FF0000;"/>
<rect x="85" y="58" width="1" height="1" style="stroke-width:0.05;stroke:#000000;fill:#FF0000;"/>
<rect x="86" y="73" width="1" height="1" style="stroke-width:0.05;stroke:#000000;fill:#FF0000;"/>
<rect x="87" y="17" width="1" height="1" style="stroke-width:0.05;stroke:#000000;fill:#FF0000;"/>
<rect x="88" y="0" width="1" height="1" style="stroke-width:0.05;stroke:#000000;fill:#FF0000;"/>
<rect x="89" y="3" width="1" height="1" style="stroke-width:0.05;stroke:#000000;fill:#FF0000;"/>
<rect x="90" y="16" width="1" height="1" style="stroke-width:0.05;stroke:#000000;fill:#FF0000;"/>
<rect x="91" y="77" width="1" height="1" style="stroke-width:0.05;stroke:#000000;fill:#FF0000;"/>
<rect x="92" y="87" width="1" height="1" style="stroke-width:0.05;stroke:#000000;fill:#FF0000;"/>
<rect x="93" y="12" width="1" height="1" style="stroke-width:0.05;stroke:#000000;fill:#FF0000;"/>
</g>
</svg>
