<?xml version="1.0" encoding="UTF-8" standalone="no"?>
<!DOCTYPE svg PUBLIC "-//W3C//DTD SVG 1.1//EN"
 "http://www.w3.org/Graphics/SVG/1.1/DTD/svg11.dtd">
<svg
   xmlns:svg="http://www.w3.org/2000/svg"
   xmlns="http://www.w3.org/2000/svg"
   version="1.1"
   width="800px"
   height="800px"
   viewBox="-1.0 -1 5.0 52">
<text style="fill:blue;text-anchor:middle;font-size:0.4;" x="0" y="0.2">48</text>
<line style="stroke-width:0.01;stroke:black;" x1="0" y1="0" x2="0.0" y2="1" />
<text style="fill:blue;text-anchor:middle;font-size:0.4;" x="0.0" y="1.2">47</text>
<line style="stroke-width:0.01;stroke:black;" x1="0.0" y1="1" x2="0.0" y2="2" />
<text style="fill:blue;text-anchor:middle;font-size:0.4;" x="0.0" y="2.2">51</text>
<line style="stroke-width:0.01;stroke:black;" x1="0.0" y1="2" x2="0.0" y2="3" />
<text style="fill:blue;text-anchor:middle;font-size:0.4;" x="0.0" y="3.2">44</text>
<line style="stroke-width:0.01;stroke:black;" x1="0.0" y1="3" x2="0.0" y2="4" />
<text style="fill:blue;text-anchor:middle;font-size:0.4;" x="0.0" y="4.2">53</text>
<line style="stroke-width:0.01;stroke:black;" x1="0.0" y1="4" x2="0.0" y2="5" />
<text style="fill:blue;text-anchor:middle;font-size:0.4;" x="0.0" y="5.2">39</text>
<line style="stroke-width:0.01;stroke:black;" x1="0.0" y1="5" x2="0.0" y2="6" />
<text style="fill:blue;text-anchor:middle;font-size:0.4;" x="0.0" y="6.2">59</text>
<line style="stroke-width:0.01;stroke:black;" x1="0.0" y1="6" x2="0.0" y2="7" />
<text style="fill:blue;text-anchor:middle;font-size:0.4;" x="0.0" y="7.2">35</text>
<line style="stroke-width:0.01;stroke:black;" x1="0.0" y1="7" x2="0.0" y2="8" />
<text style="fill:blue;text-anchor:middle;font-size:0.4;" x="0.0" y="8.2">28</text>
<line style="stroke-width:0.01;stroke:black;" x1="0.0" y1="8" x2="0.0" y2="9" />
<text style="fill:blue;text-anchor:middle;font-size:0.4;" x="0.0" y="9.2">68</text>
<line style="stroke-width:0.01;stroke:black;" x1="0.0" y1="9" x2="0.0" y2="10" />
<text style="fill:blue;text-anchor:middle;font-size:0.4;" x="0.0" y="10.2">25</text>
<line style="stroke-width:0.01;stroke:black;" x1="0.0" y1="10" x2="0.0" y2="11" />
<text style="fill:blue;text-anchor:middle;font-size:0.4;" x="0.0" y="11.2">62</text>
<line style="stroke-width:0.01;stroke:black;" x1="0.0" y1="11" x2="0.0" y2="12" />
<text style="fill:blue;text-anchor:middle;font-size:0.4;" x="0.0" y="12.2">32</text>
<line style="stroke-width:0.01;stroke:black;" x1="0.0" y1="12" x2="0.0" y2="13" />
<text style="fill:blue;text-anchor:middle;font-size:0.4;" x="0.0" y="13.2">65</text>
<line style="stroke-width:0.01;stroke:black;" x1="0.0" y1="13" x2="0.0" y2="14" />
<text style="fill:blue;text-anchor:middle;font-size:0.4;" x="0.0" y="14.2">29</text>
<line style="stroke-width:0.01;stroke:black;" x1="0.0" y1="14" x2="0.0" y2="15" />
<text style="fill:blue;text-anchor:middle;font-size:0.4;" x="0.0" y="15.2">66</text>
<line style="stroke-width:0.01;stroke:black;" x1="0.0" y1="15" x2="0.0" y2="16" />
<text style="fill:blue;text-anchor:middle;font-size:0.4;" x="0.0" y="16.2">27</text>
<line style="stroke-width:0.01;stroke:black;" x1="0.0" y1="16" x2="0.0" y2="17" />
<text style="fill:blue;text-anchor:middle;font-size:0.4;" x="0.0" y="17.2">26</text>
<line style="stroke-width:0.01;stroke:black;" x1="0.0" y1="17" x2="0.0" y2="18" />
<text style="fill:blue;text-anchor:middle;font-size:0.4;" x="0.0" y="18.2">61</text>
<line style="stroke-width:0.01;stroke:black;" x1="0.0" y1="18" x2="0.0" y2="19" />
<text style="fill:blue;text-anchor:middle;font-size:0.4;" x="0.0" y="19.2">63</text>
<line style="stroke-width:0.01;stroke:black;" x1="0.0" y1="19" x2="0.0" y2="20" />
<text style="fill:blue;text-anchor:middle;font-size:0.4;" x="0.0" y="20.2">31</text>
<line style="stroke-width:0.01;stroke:black;" x1="0.0" y1="20" x2="0.0" y2="21" />
<text style="fill:blue;text-anchor:middle;font-size:0.4;" x="0.0" y="21.2">64</text>
<line style="stroke-width:0.01;stroke:black;" x1="0.0" y1="21" x2="0.0" y2="22" />
<text style="fill:blue;text-anchor:middle;font-size:0.4;" x="0.0" y="22.2">76</text>
<line style="stroke-width:0.01;stroke:black;" x1="0.0" y1="22" x2="0.0" y2="23" />
<text style="fill:blue;text-anchor:middle;font-size:0.4;" x="0.0" y="23.2">70</text>
<line style="stroke-width:0.01;stroke:black;" x1="0.0" y1="23" x2="0.0" y2="24" />
<text style="fill:blue;text-anchor:middle;font-size:0.4;" x="0.0" y="24.2">77</text>
<line style="stroke-width:0.01;stroke:black;" x1="0.0" y1="24" x2="0.0" y2="25" />
<text style="fill:blue;text-anchor:middle;font-size:0.4;" x="0.0" y="25.2">74</text>
<line style="stroke-width:0.01;stroke:black;" x1="0.0" y1="25" x2="0.0" y2="26" />
<text style="fill:blue;text-anchor:middle;font-size:0.4;" x="0.0" y="26.2">19</text>
<line style="stroke-width:0.01;stroke:black;" x1="0.0" y1="26" x2="0.0" y2="27" />
<text style="fill:blue;text-anchor:middle;font-size:0.4;" x="0.0" y="27.2">20</text>
<line style="stroke-width:0.01;stroke:black;" x1="0.0" y1="27" x2="0.0" y2="28" />
<text style="fill:blue;text-anchor:middle;font-size:0.4;" x="0.0" y="28.2">18</text>
<line style="stroke-width:0.01;stroke:black;" x1="0.0" y1="28" x2="0.0" y2="29" />
<text style="fill:blue;text-anchor:middle;font-size:0.4;" x="0.0" y="29.2">78</text>
<line style="stroke-width:0.01;stroke:black;" x1="0.0" y1="29" x2="0.0" y2="30" />
<text style="fill:blue;text-anchor:middle;font-size:0.4;" x="0.0" y="30.2">79</text>
<line style="stroke-width:0.01;stroke:black;" x1="0.0" y1="30" x2="0.0" y2="31" />
<text style="fill:blue;text-anchor:middle;font-size:0.4;" x="0.0" y="31.2">24</text>
<line style="stroke-width:0.01;stroke:black;" x1="0.0" y1="31" x2="0.0" y2="32" />
<text style="fill:blue;text-anchor:middle;font-size:0.4;" x="0.0" y="32.2">80</text>
<line style="stroke-width:0.01;stroke:black;" x1="0.0" y1="32" x2="0.0" y2="33" />
<text style="fill:blue;text-anchor:middle;font-size:0.4;" x="0.0" y="33.2">17</text>
<line style="stroke-width:0.01;stroke:black;" x1="0.0" y1="33" x2="0.0" y2="34" />
<text style="fill:blue;text-anchor:middle;font-size:0.4;" x="0.0" y="34.2">21</text>
<line style="stroke-width:0.01;stroke:black;" x1="0.0" y1="34" x2="0.0" y2="35" />
<text style="fill:blue;text-anchor:middle;font-size:0.4;" x="0.0" y="35.2">82</text>
<line style="stroke-width:0.01;stroke:black;" x1="0.0" y1="35" x2="0.0" y2="36" />
<text style="fill:blue;text-anchor:middle;font-size:0.4;" x="0.0" y="36.2">81</text>
<line style="stroke-width:0.01;stroke:black;" x1="0.0" y1="36" x2="0.0" y2="37" />
<text style="fill:blue;text-anchor:middle;font-size:0.4;" x="0.0" y="37.2">15</text>
<line style="stroke-width:0.01;stroke:black;" x1="0.0" y1="37" x2="0.0" y2="38" />
<text style="fill:blue;text-anchor:middle;font-size:0.4;" x="0.0" y="38.2">75</text>
<line style="stroke-width:0.01;stroke:black;" x1="0.0" y1="38" x2="0.0" y2="39" />
<text style="fill:blue;text-anchor:middle;font-size:0.4;" x="0.0" y="39.2">11</text>
<line style="stroke-width:0.01;stroke:black;" x1="0.0" y1="39" x2="0.0" y2="40" />
<text style="fill:blue;text-anchor:middle;font-size:0.4;" x="0.0" y="40.2">84</text>
<line style="stroke-width:0.01;stroke:black;" x1="0.0" y1="40" x2="0.0" y2="41" />
<text style="fill:blue;text-anchor:middle;font-size:0.4;" x="0.0" y="41.2">14</text>
<line style="stroke-width:0.01;stroke:black;" x1="0.0" y1="41" x2="0.0" y2="42" />
<text style="fill:blue;text-anchor:middle;font-size:0.4;" x="0.0" y="42.2">16</text>
<line style="stroke-width:0.01;stroke:black;" x1="0.0" y1="42" x2="0.0" y2="43" />
<text style="fill:blue;text-anchor:middle;font-size:0.4;" x="0.0" y="43.2">12</text>
<line style="stroke-width:0.01;stroke:black;" x1="0.0" y1="43" x2="0.0" y2="44" />
<text style="fill:blue;text-anchor:middle;font-size:0.4;" x="0.0" y="44.2">6</text>
<line style="stroke-width:0.01;stroke:black;" x1="0.0" y1="44" x2="0.0" y2="45" />
<text style="fill:blue;text-anchor:middle;font-size:0.4;" x="0.0" y="45.2">9</text>
<line style="stroke-width:0.01;stroke:black;" x1="0.0" y1="45" x2="0.0" y2="46" />
<text style="fill:blue;text-anchor:middle;font-size:0.4;" x="0.0" y="46.2">30</text>
<line style="stroke-width:0.01;stroke:black;" x1="0.0" y1="46" x2="0.0" y2="47" />
<text style="fill:blue;text-anchor:middle;font-size:0.4;" x="0.0" y="47.2">71</text>
<line style="stroke-width:0.01;stroke:black;" x1="0.0" y1="47" x2="0.0" y2="48" />
<text style="fill:blue;text-anchor:middle;font-size:0.4;" x="0.0" y="48.2">83</text>
<line style="stroke-width:0.01;stroke:black;" x1="0.0" y1="48" x2="0.0" y2="49" />
<text style="fill:blue;text-anchor:middle;font-size:0.4;" x="0.0" y="49.2">92</text>
<line style="stroke-width:0.01;stroke:black;" x1="0.0" y1="49" x2="0.0" y2="50" />
<polygon style="fill:blue;stroke-width:0.01;stroke:black;" points="0.0,50 0.5,50.5 -0.5,50.5" />
<line style="stroke-width:0.01;stroke:black;" x1="0.0" y1="49" x2="0.0" y2="50" />
<text style="fill:black;text-anchor:start;font-size:0.3;" x="0.05" y="49.65">69</text>
<line style="stroke-width:0.01;stroke:black;" x1="0.0" y1="48" x2="0.0" y2="49" />
<text style="fill:black;text-anchor:start;font-size:0.3;" x="0.05" y="48.65">24</text>
<line style="stroke-width:0.01;stroke:black;" x1="0.0" y1="47" x2="0.0" y2="48" />
<text style="fill:black;text-anchor:start;font-size:0.3;" x="0.05" y="47.65">22</text>
<line style="stroke-width:0.01;stroke:black;" x1="0.0" y1="46" x2="0.0" y2="47" />
<text style="fill:black;text-anchor:start;font-size:0.3;" x="0.05" y="46.65">23</text>
<line style="stroke-width:0.01;stroke:black;" x1="0.0" y1="45" x2="0.0" y2="46" />
<text style="fill:black;text-anchor:start;font-size:0.3;" x="0.05" y="45.65">28</text>
<line style="stroke-width:0.01;stroke:black;" x1="0.0" y1="44" x2="0.0" y2="45" />
<text style="fill:black;text-anchor:start;font-size:0.3;" x="0.05" y="44.65">67</text>
<line style="stroke-width:0.01;stroke:black;" x1="0.0" y1="43" x2="0.0" y2="44" />
<text style="fill:black;text-anchor:start;font-size:0.3;" x="0.05" y="43.65">21</text>
<line style="stroke-width:0.01;stroke:black;" x1="0.0" y1="42" x2="0.0" y2="43" />
<text style="fill:black;text-anchor:start;font-size:0.3;" x="0.05" y="42.65">71</text>
<line style="stroke-width:0.01;stroke:black;" x1="0.0" y1="41" x2="0.0" y2="42" />
<text style="fill:black;text-anchor:start;font-size:0.3;" x="0.05" y="41.65">25</text>
<line style="stroke-width:0.01;stroke:black;" x1="0.0" y1="40" x2="0.0" y2="41" />
<text style="fill:black;text-anchor:start;font-size:0.3;" x="0.05" y="40.65">73</text>
<line style="stroke-width:0.01;stroke:black;" x1="0.0" y1="39" x2="0.0" y2="40" />
<text style="fill:black;text-anchor:start;font-size:0.3;" x="0.05" y="39.65">29</text>
<line style="stroke-width:0.01;stroke:black;" x1="0.0" y1="38" x2="0.0" y2="39" />
<text style="fill:black;text-anchor:start;font-size:0.3;" x="0.05" y="38.65">65</text>
<line style="stroke-width:0.01;stroke:black;" x1="0.0" y1="37" x2="0.0" y2="38" />
<text style="fill:black;text-anchor:start;font-size:0.3;" x="0.05" y="37.65">68</text>
<line style="stroke-width:0.01;stroke:black;" x1="0.0" y1="36" x2="0.0" y2="37" />
<text style="fill:black;text-anchor:start;font-size:0.3;" x="0.05" y="36.65">61</text>
<line style="stroke-width:0.01;stroke:black;" x1="0.0" y1="35" x2="0.0" y2="36" />
<text style="fill:black;text-anchor:start;font-size:0.3;" x="0.05" y="35.65">26</text>
<line style="stroke-width:0.01;stroke:black;" x1="0.0" y1="34" x2="0.0" y2="35" />
<text style="fill:black;text-anchor:start;font-size:0.3;" x="0.05" y="34.65">31</text>
<line style="stroke-width:0.01;stroke:black;" x1="0.0" y1="33" x2="0.0" y2="34" />
<text style="fill:black;text-anchor:start;font-size:0.3;" x="0.05" y="33.65">30</text>
<line style="stroke-width:0.01;stroke:black;" x1="0.0" y1="32" x2="0.0" y2="33" />
<text style="fill:black;text-anchor:start;font-size:0.3;" x="0.05" y="32.65">66</text>
<line style="stroke-width:0.01;stroke:black;" x1="0.0" y1="31" x2="0.0" y2="32" />
<text style="fill:black;text-anchor:start;font-size:0.3;" x="0.05" y="31.65">64</text>
<line style="stroke-width:0.01;stroke:black;" x1="0.0" y1="30" x2="0.0" y2="31" />
<text style="fill:black;text-anchor:start;font-size:0.3;" x="0.05" y="30.65">32</text>
<line style="stroke-width:0.01;stroke:black;" x1="0.0" y1="29" x2="0.0" y2="30" />
<text style="fill:black;text-anchor:start;font-size:0.3;" x="0.05" y="29.65">63</text>
<line style="stroke-width:0.01;stroke:black;" x1="0.0" y1="28" x2="0.0" y2="29" />
<text style="fill:black;text-anchor:start;font-size:0.3;" x="0.05" y="28.65">33</text>
<line style="stroke-width:0.01;stroke:black;" x1="0.0" y1="27" x2="0.0" y2="28" />
<text style="fill:black;text-anchor:start;font-size:0.3;" x="0.05" y="27.65">34</text>
<line style="stroke-width:0.01;stroke:black;" x1="0.0" y1="26" x2="0.0" y2="27" />
<text style="fill:black;text-anchor:start;font-size:0.3;" x="0.05" y="26.65">62</text>
<line style="stroke-width:0.01;stroke:black;" x1="0.0" y1="25" x2="0.0" y2="26" />
<text style="fill:black;text-anchor:start;font-size:0.3;" x="0.05" y="25.65">35</text>
<line style="stroke-width:0.01;stroke:black;" x1="0.0" y1="24" x2="0.0" y2="25" />
<text style="fill:black;text-anchor:start;font-size:0.3;" x="0.05" y="24.65">60</text>
<line style="stroke-width:0.01;stroke:black;" x1="0.0" y1="23" x2="0.0" y2="24" />
<text style="fill:black;text-anchor:start;font-size:0.3;" x="0.05" y="23.65">58</text>
<line style="stroke-width:0.01;stroke:black;" x1="0.0" y1="22" x2="0.0" y2="23" />
<text style="fill:black;text-anchor:start;font-size:0.3;" x="0.05" y="22.65">36</text>
<line style="stroke-width:0.01;stroke:black;" x1="0.0" y1="21" x2="0.0" y2="22" />
<text style="fill:black;text-anchor:start;font-size:0.3;" x="0.05" y="21.65">38</text>
<line style="stroke-width:0.01;stroke:black;" x1="0.0" y1="20" x2="0.0" y2="21" />
<text style="fill:black;text-anchor:start;font-size:0.3;" x="0.05" y="20.65">59</text>
<line style="stroke-width:0.01;stroke:black;" x1="0.0" y1="19" x2="0.0" y2="20" />
<text style="fill:black;text-anchor:start;font-size:0.3;" x="0.05" y="19.65">57</text>
<line style="stroke-width:0.01;stroke:black;" x1="0.0" y1="18" x2="0.0" y2="19" />
<text style="fill:black;text-anchor:start;font-size:0.3;" x="0.05" y="18.65">37</text>
<line style="stroke-width:0.01;stroke:black;" x1="0.0" y1="17" x2="0.0" y2="18" />
<text style="fill:black;text-anchor:start;font-size:0.3;" x="0.05" y="17.65">56</text>
<line style="stroke-width:0.01;stroke:black;" x1="0.0" y1="16" x2="0.0" y2="17" />
<text style="fill:black;text-anchor:start;font-size:0.3;" x="0.05" y="16.65">39</text>
<line style="stroke-width:0.01;stroke:black;" x1="0.0" y1="15" x2="0.0" y2="16" />
<text style="fill:black;text-anchor:start;font-size:0.3;" x="0.05" y="15.65">53</text>
<line style="stroke-width:0.01;stroke:black;" x1="0.0" y1="14" x2="0.0" y2="15" />
<text style="fill:black;text-anchor:start;font-size:0.3;" x="0.05" y="14.65">55</text>
<line style="stroke-width:0.01;stroke:black;" x1="0.0" y1="13" x2="0.0" y2="14" />
<text style="fill:black;text-anchor:start;font-size:0.3;" x="0.05" y="13.65">40</text>
<line style="stroke-width:0.01;stroke:black;" x1="0.0" y1="12" x2="0.0" y2="13" />
<text style="fill:black;text-anchor:start;font-size:0.3;" x="0.05" y="12.65">54</text>
<line style="stroke-width:0.01;stroke:black;" x1="0.0" y1="11" x2="0.0" y2="12" />
<text style="fill:black;text-anchor:start;font-size:0.3;" x="0.05" y="11.65">41</text>
<line style="stroke-width:0.01;stroke:black;" x1="0.0" y1="10" x2="0.0" y2="11" />
<text style="fill:black;text-anchor:start;font-size:0.3;" x="0.05" y="10.65">42</text>
<line style="stroke-width:0.01;stroke:black;" x1="0.0" y1="9" x2="0.0" y2="10" />
<text style="fill:black;text-anchor:start;font-size:0.3;" x="0.05" y="9.65">50</text>
<line style="stroke-width:0.01;stroke:black;" x1="0.0" y1="8" x2="0.0" y2="9" />
<text style="fill:black;text-anchor:start;font-size:0.3;" x="0.05" y="8.65">52</text>
<line style="stroke-width:0.01;stroke:black;" x1="0.0" y1="7" x2="0.0" y2="8" />
<text style="fill:black;text-anchor:start;font-size:0.3;" x="0.05" y="7.65">43</text>
<line style="stroke-width:0.01;stroke:black;" x1="0.0" y1="6" x2="0.0" y2="7" />
<text style="fill:black;text-anchor:start;font-size:0.3;" x="0.05" y="6.65">51</text>
<line style="stroke-width:0.01;stroke:black;" x1="0.0" y1="5" x2="0.0" y2="6" />
<text style="fill:black;text-anchor:start;font-size:0.3;" x="0.05" y="5.65">46</text>
<line style="stroke-width:0.01;stroke:black;" x1="0.0" y1="4" x2="0.0" y2="5" />
<text style="fill:black;text-anchor:start;font-size:0.3;" x="0.05" y="4.65">44</text>
<line style="stroke-width:0.01;stroke:black;" x1="0.0" y1="3" x2="0.0" y2="4" />
<text style="fill:black;text-anchor:start;font-size:0.3;" x="0.05" y="3.65">45</text>
<line style="stroke-width:0.01;stroke:black;" x1="0.0" y1="2" x2="0.0" y2="3" />
<text style="fill:black;text-anchor:start;font-size:0.3;" x="0.05" y="2.65">48</text>
<line style="stroke-width:0.01;stroke:black;" x1="0.0" y1="1" x2="0.0" y2="2" />
<text style="fill:black;text-anchor:start;font-size:0.3;" x="0.05" y="1.65">49</text>
<line style="stroke-width:0.01;stroke:black;" x1="0" y1="0" x2="0.0" y2="1" />
<text style="fill:black;text-anchor:start;font-size:0.3;" x="0.05" y="0.65">47</text>
</svg>
