<?xml version="1.0" encoding="UTF-8" standalone="no"?>
<!DOCTYPE svg PUBLIC "-//W3C//DTD SVG 1.1//EN"
 "http://www.w3.org/Graphics/SVG/1.1/DTD/svg11.dtd">
<svg
   xmlns:svg="http://www.w3.org/2000/svg"
   xmlns="http://www.w3.org/2000/svg"
   version="1.1"
   width="800px"
   height="800px"
   viewBox="-1.0 -1 5.0 25">
<text style="fill:blue;text-anchor:middle;font-size:0.4;" x="0" y="0.2">48</text>
<line style="stroke-width:0.01;stroke:black;" x1="0" y1="0" x2="0.0" y2="1" />
<text style="fill:blue;text-anchor:middle;font-size:0.4;" x="0.0" y="1.2">47</text>
<line style="stroke-width:0.01;stroke:black;" x1="0.0" y1="1" x2="0.0" y2="2" />
<text style="fill:blue;text-anchor:middle;font-size:0.4;" x="0.0" y="2.2">51</text>
<line style="stroke-width:0.01;stroke:black;" x1="0.0" y1="2" x2="0.0" y2="3" />
<text style="fill:blue;text-anchor:middle;font-size:0.4;" x="0.0" y="3.2">44</text>
<line style="stroke-width:0.01;stroke:black;" x1="0.0" y1="3" x2="0.0" y2="4" />
<text style="fill:blue;text-anchor:middle;font-size:0.4;" x="0.0" y="4.2">53</text>
<line style="stroke-width:0.01;stroke:black;" x1="0.0" y1="4" x2="0.0" y2="5" />
<text style="fill:blue;text-anchor:middle;font-size:0.4;" x="0.0" y="5.2">39</text>
<line style="stroke-width:0.01;stroke:black;" x1="0.0" y1="5" x2="0.0" y2="6" />
<text style="fill:blue;text-anchor:middle;font-size:0.4;" x="0.0" y="6.2">59</text>
<line style="stroke-width:0.01;stroke:black;" x1="0.0" y1="6" x2="0.0" y2="7" />
<text style="fill:blue;text-anchor:middle;font-size:0.4;" x="0.0" y="7.2">35</text>
<line style="stroke-width:0.01;stroke:black;" x1="0.0" y1="7" x2="0.0" y2="8" />
<text style="fill:blue;text-anchor:middle;font-size:0.4;" x="0.0" y="8.2">28</text>
<line style="stroke-width:0.01;stroke:black;" x1="0.0" y1="8" x2="0.0" y2="9" />
<text style="fill:blue;text-anchor:middle;font-size:0.4;" x="0.0" y="9.2">68</text>
<line style="stroke-width:0.01;stroke:black;" x1="0.0" y1="9" x2="0.0" y2="10" />
<text style="fill:blue;text-anchor:middle;font-size:0.4;" x="0.0" y="10.2">25</text>
<line style="stroke-width:0.01;stroke:black;" x1="0.0" y1="10" x2="0.0" y2="11" />
<text style="fill:blue;text-anchor:middle;font-size:0.4;" x="0.0" y="11.2">62</text>
<line style="stroke-width:0.01;stroke:black;" x1="0.0" y1="11" x2="0.0" y2="12" />
<text style="fill:blue;text-anchor:middle;font-size:0.4;" x="0.0" y="12.2">32</text>
<line style="stroke-width:0.01;stroke:black;" x1="0.0" y1="12" x2="0.0" y2="13" />
<text style="fill:blue;text-anchor:middle;font-size:0.4;" x="0.0" y="13.2">65</text>
<line style="stroke-width:0.01;stroke:black;" x1="0.0" y1="13" x2="0.0" y2="14" />
<text style="fill:blue;text-anchor:middle;font-size:0.4;" x="0.0" y="14.2">29</text>
<line style="stroke-width:0.01;stroke:black;" x1="0.0" y1="14" x2="0.0" y2="15" />
<text style="fill:blue;text-anchor:middle;font-size:0.4;" x="0.0" y="15.2">66</text>
<line style="stroke-width:0.01;stroke:black;" x1="0.0" y1="15" x2="0.0" y2="16" />
<text style="fill:blue;text-anchor:middle;font-size:0.4;" x="0.0" y="16.2">27</text>
<line style="stroke-width:0.01;stroke:black;" x1="0.0" y1="16" x2="0.0" y2="17" />
<text style="fill:blue;text-anchor:middle;font-size:0.4;" x="0.0" y="17.2">26</text>
<line style="stroke-width:0.01;stroke:black;" x1="0.0" y1="17" x2="0.0" y2="18" />
<text style="fill:blue;text-anchor:middle;font-size:0.4;" x="0.0" y="18.2">61</text>
<line style="stroke-width:0.01;stroke:black;" x1="0.0" y1="18" x2="0.0" y2="19" />
<text style="fill:blue;text-anchor:middle;font-size:0.4;" x="0.0" y="19.2">63</text>
<line style="stroke-width:0.01;stroke:black;" x1="0.0" y1="19" x2="0.0" y2="20" />
<text style="fill:blue;text-anchor:middle;font-size:0.4;" x="0.0" y="20.2">31</text>
<line style="stroke-width:0.01;stroke:black;" x1="0.0" y1="20" x2="0.0" y2="21" />
<text style="fill:blue;text-anchor:middle;font-size:0.4;" x="0.0" y="21.2">64</text>
<line style="stroke-width:0.01;stroke:black;" x1="0.0" y1="21" x2="0.0" y2="22" />
<text style="fill:blue;text-anchor:middle;font-size:0.4;" x="0.0" y="22.2">76</text>
<line style="stroke-width:0.01;stroke:black;" x1="0.0" y1="22" x2="0.0" y2="23" />
<polygon style="fill:blue;stroke-width:0.01;stroke:black;" points="0.0,23 0.5,23.5 -0.5,23.5" />
<line style="stroke-width:0.01;stroke:black;" x1="0.0" y1="22" x2="0.0" y2="23" />
<text style="fill:black;text-anchor:start;font-size:0.3;" x="0.05" y="22.65">36</text>
<line style="stroke-width:0.01;stroke:black;" x1="0.0" y1="21" x2="0.0" y2="22" />
<text style="fill:black;text-anchor:start;font-size:0.3;" x="0.05" y="21.65">38</text>
<line style="stroke-width:0.01;stroke:black;" x1="0.0" y1="20" x2="0.0" y2="21" />
<text style="fill:black;text-anchor:start;font-size:0.3;" x="0.05" y="20.65">59</text>
<line style="stroke-width:0.01;stroke:black;" x1="0.0" y1="19" x2="0.0" y2="20" />
<text style="fill:black;text-anchor:start;font-size:0.3;" x="0.05" y="19.65">57</text>
<line style="stroke-width:0.01;stroke:black;" x1="0.0" y1="18" x2="0.0" y2="19" />
<text style="fill:black;text-anchor:start;font-size:0.3;" x="0.05" y="18.65">37</text>
<line style="stroke-width:0.01;stroke:black;" x1="0.0" y1="17" x2="0.0" y2="18" />
<text style="fill:black;text-anchor:start;font-size:0.3;" x="0.05" y="17.65">56</text>
<line style="stroke-width:0.01;stroke:black;" x1="0.0" y1="16" x2="0.0" y2="17" />
<text style="fill:black;text-anchor:start;font-size:0.3;" x="0.05" y="16.65">39</text>
<line style="stroke-width:0.01;stroke:black;" x1="0.0" y1="15" x2="0.0" y2="16" />
<text style="fill:black;text-anchor:start;font-size:0.3;" x="0.05" y="15.65">53</text>
<line style="stroke-width:0.01;stroke:black;" x1="0.0" y1="14" x2="0.0" y2="15" />
<text style="fill:black;text-anchor:start;font-size:0.3;" x="0.05" y="14.65">55</text>
<line style="stroke-width:0.01;stroke:black;" x1="0.0" y1="13" x2="0.0" y2="14" />
<text style="fill:black;text-anchor:start;font-size:0.3;" x="0.05" y="13.65">40</text>
<line style="stroke-width:0.01;stroke:black;" x1="0.0" y1="12" x2="0.0" y2="13" />
<text style="fill:black;text-anchor:start;font-size:0.3;" x="0.05" y="12.65">54</text>
<line style="stroke-width:0.01;stroke:black;" x1="0.0" y1="11" x2="0.0" y2="12" />
<text style="fill:black;text-anchor:start;font-size:0.3;" x="0.05" y="11.65">41</text>
<line style="stroke-width:0.01;stroke:black;" x1="0.0" y1="10" x2="0.0" y2="11" />
<text style="fill:black;text-anchor:start;font-size:0.3;" x="0.05" y="10.65">42</text>
<line style="stroke-width:0.01;stroke:black;" x1="0.0" y1="9" x2="0.0" y2="10" />
<text style="fill:black;text-anchor:start;font-size:0.3;" x="0.05" y="9.65">50</text>
<line style="stroke-width:0.01;stroke:black;" x1="0.0" y1="8" x2="0.0" y2="9" />
<text style="fill:black;text-anchor:start;font-size:0.3;" x="0.05" y="8.65">52</text>
<line style="stroke-width:0.01;stroke:black;" x1="0.0" y1="7" x2="0.0" y2="8" />
<text style="fill:black;text-anchor:start;font-size:0.3;" x="0.05" y="7.65">43</text>
<line style="stroke-width:0.01;stroke:black;" x1="0.0" y1="6" x2="0.0" y2="7" />
<text style="fill:black;text-anchor:start;font-size:0.3;" x="0.05" y="6.65">51</text>
<line style="stroke-width:0.01;stroke:black;" x1="0.0" y1="5" x2="0.0" y2="6" />
<text style="fill:black;text-anchor:start;font-size:0.3;" x="0.05" y="5.65">46</text>
<line style="stroke-width:0.01;stroke:black;" x1="0.0" y1="4" x2="0.0" y2="5" />
<text style="fill:black;text-anchor:start;font-size:0.3;" x="0.05" y="4.65">44</text>
<line style="stroke-width:0.01;stroke:black;" x1="0.0" y1="3" x2="0.0" y2="4" />
<text style="fill:black;text-anchor:start;font-size:0.3;" x="0.05" y="3.65">45</text>
<line style="stroke-width:0.01;stroke:black;" x1="0.0" y1="2" x2="0.0" y2="3" />
<text style="fill:black;text-anchor:start;font-size:0.3;" x="0.05" y="2.65">48</text>
<line style="stroke-width:0.01;stroke:black;" x1="0.0" y1="1" x2="0.0" y2="2" />
<text style="fill:black;text-anchor:start;font-size:0.3;" x="0.05" y="1.65">49</text>
<line style="stroke-width:0.01;stroke:black;" x1="0" y1="0" x2="0.0" y2="1" />
<text style="fill:black;text-anchor:start;font-size:0.3;" x="0.05" y="0.65">47</text>
</svg>
