<?xml version="1.0" encoding="UTF-8" standalone="no"?>
<!DOCTYPE svg PUBLIC "-//W3C//DTD SVG 1.1//EN"
 "http://www.w3.org/Graphics/SVG/1.1/DTD/svg11.dtd">
<svg
   xmlns:svg="http://www.w3.org/2000/svg"
   xmlns="http://www.w3.org/2000/svg"
   version="1.1"
   width="800px"
   height="800px"
   viewBox="-14.625 -1 22.5 72">
<text style="fill:blue;text-anchor:middle;font-size:0.4;" x="0" y="0.2">48</text>
<line style="stroke-width:0.01;stroke:black;" x1="0" y1="0" x2="0.0" y2="1" />
<text style="fill:blue;text-anchor:middle;font-size:0.4;" x="0.0" y="1.2">47</text>
<line style="stroke-width:0.01;stroke:black;" x1="0.0" y1="1" x2="0.0" y2="2" />
<text style="fill:blue;text-anchor:middle;font-size:0.4;" x="0.0" y="2.2">51</text>
<line style="stroke-width:0.01;stroke:black;" x1="0.0" y1="2" x2="0.0" y2="3" />
<text style="fill:blue;text-anchor:middle;font-size:0.4;" x="0.0" y="3.2">44</text>
<line style="stroke-width:0.01;stroke:black;" x1="0.0" y1="3" x2="0.0" y2="4" />
<text style="fill:blue;text-anchor:middle;font-size:0.4;" x="0.0" y="4.2">53</text>
<line style="stroke-width:0.01;stroke:black;" x1="0.0" y1="4" x2="0.0" y2="5" />
<text style="fill:blue;text-anchor:middle;font-size:0.4;" x="0.0" y="5.2">39</text>
<line style="stroke-width:0.01;stroke:black;" x1="0.0" y1="5" x2="0.0" y2="6" />
<text style="fill:blue;text-anchor:middle;font-size:0.4;" x="0.0" y="6.2">59</text>
<line style="stroke-width:0.01;stroke:black;" x1="0.0" y1="6" x2="0.0" y2="7" />
<text style="fill:blue;text-anchor:middle;font-size:0.4;" x="0.0" y="7.2">35</text>
<line style="stroke-width:0.01;stroke:black;" x1="0.0" y1="7" x2="0.0" y2="8" />
<text style="fill:blue;text-anchor:middle;font-size:0.4;" x="0.0" y="8.2">28</text>
<line style="stroke-width:0.01;stroke:black;" x1="0.0" y1="8" x2="0.0" y2="9" />
<text style="fill:blue;text-anchor:middle;font-size:0.4;" x="0.0" y="9.2">68</text>
<line style="stroke-width:0.01;stroke:black;" x1="0.0" y1="9" x2="0.0" y2="10" />
<text style="fill:blue;text-anchor:middle;font-size:0.4;" x="0.0" y="10.2">25</text>
<line style="stroke-width:0.01;stroke:black;" x1="0.0" y1="10" x2="0.0" y2="11" />
<text style="fill:blue;text-anchor:middle;font-size:0.4;" x="0.0" y="11.2">62</text>
<line style="stroke-width:0.01;stroke:black;" x1="0.0" y1="11" x2="0.0" y2="12" />
<text style="fill:blue;text-anchor:middle;font-size:0.4;" x="0.0" y="12.2">32</text>
<line style="stroke-width:0.01;stroke:black;" x1="0.0" y1="12" x2="0.0" y2="13" />
<text style="fill:blue;text-anchor:middle;font-size:0.4;" x="0.0" y="13.2">65</text>
<line style="stroke-width:0.01;stroke:black;" x1="0.0" y1="13" x2="-0.5" y2="14" />
<text style="fill:blue;text-anchor:middle;font-size:0.4;" x="-0.5" y="14.2">29</text>
<line style="stroke-width:0.01;stroke:black;" x1="-0.5" y1="14" x2="-0.5" y2="15" />
<text style="fill:blue;text-anchor:middle;font-size:0.4;" x="-0.5" y="15.2">66</text>
<line style="stroke-width:0.01;stroke:black;" x1="-0.5" y1="15" x2="-0.5" y2="16" />
<text style="fill:blue;text-anchor:middle;font-size:0.4;" x="-0.5" y="16.2">27</text>
<line style="stroke-width:0.01;stroke:black;" x1="-0.5" y1="16" x2="-0.5" y2="17" />
<text style="fill:blue;text-anchor:middle;font-size:0.4;" x="-0.5" y="17.2">26</text>
<line style="stroke-width:0.01;stroke:black;" x1="-0.5" y1="17" x2="-0.5" y2="18" />
<text style="fill:blue;text-anchor:middle;font-size:0.4;" x="-0.5" y="18.2">61</text>
<line style="stroke-width:0.01;stroke:black;" x1="-0.5" y1="18" x2="-0.5" y2="19" />
<text style="fill:blue;text-anchor:middle;font-size:0.4;" x="-0.5" y="19.2">63</text>
<line style="stroke-width:0.01;stroke:black;" x1="-0.5" y1="19" x2="-0.5" y2="20" />
<text style="fill:blue;text-anchor:middle;font-size:0.4;" x="-0.5" y="20.2">31</text>
<line style="stroke-width:0.01;stroke:black;" x1="-0.5" y1="20" x2="-0.5" y2="21" />
<text style="fill:blue;text-anchor:middle;font-size:0.4;" x="-0.5" y="21.2">64</text>
<line style="stroke-width:0.01;stroke:black;" x1="-0.5" y1="21" x2="-0.5" y2="22" />
<text style="fill:blue;text-anchor:middle;font-size:0.4;" x="-0.5" y="22.2">76</text>
<line style="stroke-width:0.01;stroke:black;" x1="-0.5" y1="22" x2="-0.5" y2="23" />
<text style="fill:blue;text-anchor:middle;font-size:0.4;" x="-0.5" y="23.2">70</text>
<line style="stroke-width:0.01;stroke:black;" x1="-0.5" y1="23" x2="-0.5" y2="24" />
<text style="fill:blue;text-anchor:middle;font-size:0.4;" x="-0.5" y="24.2">77</text>
<line style="stroke-width:0.01;stroke:black;" x1="-0.5" y1="24" x2="-0.5" y2="25" />
<text style="fill:blue;text-anchor:middle;font-size:0.4;" x="-0.5" y="25.2">74</text>
<line style="stroke-width:0.01;stroke:black;" x1="-0.5" y1="25" x2="-0.5" y2="26" />
<text style="fill:blue;text-anchor:middle;font-size:0.4;" x="-0.5" y="26.2">19</text>
<line style="stroke-width:0.01;stroke:black;" x1="-0.5" y1="26" x2="-0.5" y2="27" />
<text style="fill:blue;text-anchor:middle;font-size:0.4;" x="-0.5" y="27.2">20</text>
<line style="stroke-width:0.01;stroke:black;" x1="-0.5" y1="27" x2="-0.5" y2="28" />
<text style="fill:blue;text-anchor:middle;font-size:0.4;" x="-0.5" y="28.2">18</text>
<line style="stroke-width:0.01;stroke:black;" x1="-0.5" y1="28" x2="-0.5" y2="29" />
<text style="fill:blue;text-anchor:middle;font-size:0.4;" x="-0.5" y="29.2">78</text>
<line style="stroke-width:0.01;stroke:black;" x1="-0.5" y1="29" x2="-0.5" y2="30" />
<text style="fill:blue;text-anchor:middle;font-size:0.4;" x="-0.5" y="30.2">79</text>
<line style="stroke-width:0.01;stroke:black;" x1="-0.5" y1="30" x2="-0.5" y2="31" />
<text style="fill:blue;text-anchor:middle;font-size:0.4;" x="-0.5" y="31.2">24</text>
<line style="stroke-width:0.01;stroke:black;" x1="-0.5" y1="31" x2="-0.5" y2="32" />
<text style="fill:blue;text-anchor:middle;font-size:0.4;" x="-0.5" y="32.2">80</text>
<line style="stroke-width:0.01;stroke:black;" x1="-0.5" y1="32" x2="-0.5" y2="33" />
<text style="fill:blue;text-anchor:middle;font-size:0.4;" x="-0.5" y="33.2">17</text>
<line style="stroke-width:0.01;stroke:black;" x1="-0.5" y1="33" x2="-0.5" y2="34" />
<text style="fill:blue;text-anchor:middle;font-size:0.4;" x="-0.5" y="34.2">21</text>
<line style="stroke-width:0.01;stroke:black;" x1="-0.5" y1="34" x2="-0.5" y2="35" />
<text style="fill:blue;text-anchor:middle;font-size:0.4;" x="-0.5" y="35.2">82</text>
<line style="stroke-width:0.01;stroke:black;" x1="-0.5" y1="35" x2="-0.5" y2="36" />
<text style="fill:blue;text-anchor:middle;font-size:0.4;" x="-0.5" y="36.2">81</text>
<line style="stroke-width:0.01;stroke:black;" x1="-0.5" y1="36" x2="-0.5" y2="37" />
<text style="fill:blue;text-anchor:middle;font-size:0.4;" x="-0.5" y="37.2">15</text>
<line style="stroke-width:0.01;stroke:black;" x1="-0.5" y1="37" x2="-0.5" y2="38" />
<text style="fill:blue;text-anchor:middle;font-size:0.4;" x="-0.5" y="38.2">75</text>
<line style="stroke-width:0.01;stroke:black;" x1="-0.5" y1="38" x2="-0.5" y2="39" />
<text style="fill:blue;text-anchor:middle;font-size:0.4;" x="-0.5" y="39.2">11</text>
<line style="stroke-width:0.01;stroke:black;" x1="-0.5" y1="39" x2="-0.5" y2="40" />
<text style="fill:blue;text-anchor:middle;font-size:0.4;" x="-0.5" y="40.2">84</text>
<line style="stroke-width:0.01;stroke:black;" x1="-0.5" y1="40" x2="-0.5" y2="41" />
<text style="fill:blue;text-anchor:middle;font-size:0.4;" x="-0.5" y="41.2">14</text>
<line style="stroke-width:0.01;stroke:black;" x1="-0.5" y1="41" x2="-0.5" y2="42" />
<text style="fill:blue;text-anchor:middle;font-size:0.4;" x="-0.5" y="42.2">16</text>
<line style="stroke-width:0.01;stroke:black;" x1="-0.5" y1="42" x2="-0.5" y2="43" />
<text style="fill:blue;text-anchor:middle;font-size:0.4;" x="-0.5" y="43.2">12</text>
<line style="stroke-width:0.01;stroke:black;" x1="-0.5" y1="43" x2="-0.5" y2="44" />
<text style="fill:blue;text-anchor:middle;font-size:0.4;" x="-0.5" y="44.2">6</text>
<line style="stroke-width:0.01;stroke:black;" x1="-0.5" y1="44" x2="-0.5" y2="45" />
<text style="fill:blue;text-anchor:middle;font-size:0.4;" x="-0.5" y="45.2">9</text>
<line style="stroke-width:0.01;stroke:black;" x1="-0.5" y1="45" x2="-0.5" y2="46" />
<text style="fill:blue;text-anchor:middle;font-size:0.4;" x="-0.5" y="46.2">30</text>
<line style="stroke-width:0.01;stroke:black;" x1="-0.5" y1="46" x2="-0.5" y2="47" />
<text style="fill:blue;text-anchor:middle;font-size:0.4;" x="-0.5" y="47.2">71</text>
<line style="stroke-width:0.01;stroke:black;" x1="-0.5" y1="47" x2="-0.5" y2="48" />
<text style="fill:blue;text-anchor:middle;font-size:0.4;" x="-0.5" y="48.2">83</text>
<line style="stroke-width:0.01;stroke:black;" x1="-0.5" y1="48" x2="-0.5" y2="49" />
<text style="fill:blue;text-anchor:middle;font-size:0.4;" x="-0.5" y="49.2">92</text>
<line style="stroke-width:0.01;stroke:black;" x1="-0.5" y1="49" x2="-0.5" y2="50" />
<text style="fill:blue;text-anchor:middle;font-size:0.4;" x="-0.5" y="50.2">93</text>
<line style="stroke-width:0.01;stroke:black;" x1="-0.5" y1="50" x2="-0.5" y2="51" />
<text style="fill:blue;text-anchor:middle;font-size:0.4;" x="-0.5" y="51.2">69</text>
<line style="stroke-width:0.01;stroke:black;" x1="-0.5" y1="51" x2="-0.5" y2="52" />
<text style="fill:blue;text-anchor:middle;font-size:0.4;" x="-0.5" y="52.2">5</text>
<line style="stroke-width:0.01;stroke:black;" x1="-0.5" y1="52" x2="-0.5" y2="53" />
<text style="fill:blue;text-anchor:middle;font-size:0.4;" x="-0.5" y="53.2">3</text>
<line style="stroke-width:0.01;stroke:black;" x1="-0.5" y1="53" x2="-0.5" y2="54" />
<text style="fill:blue;text-anchor:middle;font-size:0.4;" x="-0.5" y="54.2">72</text>
<line style="stroke-width:0.01;stroke:black;" x1="-0.5" y1="54" x2="-0.5" y2="55" />
<text style="fill:blue;text-anchor:middle;font-size:0.4;" x="-0.5" y="55.2">1</text>
<line style="stroke-width:0.01;stroke:black;" x1="-0.5" y1="55" x2="-0.5" y2="56" />
<text style="fill:blue;text-anchor:middle;font-size:0.4;" x="-0.5" y="56.2">73</text>
<line style="stroke-width:0.01;stroke:black;" x1="-0.5" y1="56" x2="-0.5" y2="57" />
<text style="fill:blue;text-anchor:middle;font-size:0.4;" x="-0.5" y="57.2">2</text>
<line style="stroke-width:0.01;stroke:black;" x1="-0.5" y1="57" x2="-0.5" y2="58" />
<text style="fill:blue;text-anchor:middle;font-size:0.4;" x="-0.5" y="58.2">22</text>
<line style="stroke-width:0.01;stroke:black;" x1="-0.5" y1="58" x2="-0.5" y2="59" />
<text style="fill:blue;text-anchor:middle;font-size:0.4;" x="-0.5" y="59.2">4</text>
<line style="stroke-width:0.01;stroke:black;" x1="-0.5" y1="59" x2="-0.5" y2="60" />
<text style="fill:blue;text-anchor:middle;font-size:0.4;" x="-0.5" y="60.2">85</text>
<line style="stroke-width:0.01;stroke:black;" x1="-0.5" y1="60" x2="-0.5" y2="61" />
<text style="fill:blue;text-anchor:middle;font-size:0.4;" x="-0.5" y="61.2">8</text>
<line style="stroke-width:0.01;stroke:black;" x1="-0.5" y1="61" x2="-0.5" y2="62" />
<text style="fill:blue;text-anchor:middle;font-size:0.4;" x="-0.5" y="62.2">94</text>
<line style="stroke-width:0.01;stroke:black;" x1="-0.5" y1="62" x2="-0.5" y2="63" />
<text style="fill:blue;text-anchor:middle;font-size:0.4;" x="-0.5" y="63.2">13</text>
<line style="stroke-width:0.01;stroke:black;" x1="-0.5" y1="63" x2="-0.5" y2="64" />
<text style="fill:blue;text-anchor:middle;font-size:0.4;" x="-0.5" y="64.2">10</text>
<line style="stroke-width:0.01;stroke:black;" x1="-0.5" y1="64" x2="-0.5" y2="65" />
<text style="fill:blue;text-anchor:middle;font-size:0.4;" x="-0.5" y="65.2">86</text>
<line style="stroke-width:0.01;stroke:black;" x1="-0.5" y1="65" x2="-7.375" y2="66" />
<text style="fill:blue;text-anchor:middle;font-size:0.4;" x="-7.375" y="66.2">87</text>
<line style="stroke-width:0.01;stroke:black;" x1="-7.375" y1="66" x2="-10.125" y2="67" />
<text style="fill:blue;text-anchor:middle;font-size:0.4;" x="-10.125" y="67.2">88</text>
<line style="stroke-width:0.01;stroke:black;" x1="-10.125" y1="67" x2="-13.125" y2="68" />
<text style="fill:blue;text-anchor:middle;font-size:0.4;" x="-13.125" y="68.2">7</text>
<line style="stroke-width:0.01;stroke:black;" x1="-13.125" y1="68" x2="-13.625" y2="69" />
<circle style="fill:red;stroke-width:0.01;stroke:black" cx="-13.625" cy="69" r="0.1" />
<line style="stroke-width:0.01;stroke:black;" x1="-13.125" y1="68" x2="-13.625" y2="69" />
<text style="fill:black;text-anchor:start;font-size:0.3;" x="-13.325" y="68.65">7</text>
<line style="stroke-width:0.01;stroke:black;" x1="-13.125" y1="68" x2="-12.625" y2="69" />
<text style="fill:blue;text-anchor:middle;font-size:0.4;" x="-12.625" y="69.2">89</text>
<line style="stroke-width:0.01;stroke:black;" x1="-12.625" y1="69" x2="-13.125" y2="70" />
<circle style="fill:red;stroke-width:0.01;stroke:black" cx="-13.125" cy="70" r="0.1" />
<line style="stroke-width:0.01;stroke:black;" x1="-12.625" y1="69" x2="-13.125" y2="70" />
<text style="fill:black;text-anchor:start;font-size:0.3;" x="-12.825" y="69.65">89</text>
<line style="stroke-width:0.01;stroke:black;" x1="-12.625" y1="69" x2="-12.125" y2="70" />
<circle style="fill:red;stroke-width:0.01;stroke:black" cx="-12.125" cy="70" r="0.1" />
<line style="stroke-width:0.01;stroke:black;" x1="-12.625" y1="69" x2="-12.125" y2="70" />
<text style="fill:black;text-anchor:start;font-size:0.3;" x="-12.325" y="69.65">17</text>
<line style="stroke-width:0.01;stroke:black;" x1="-13.125" y1="68" x2="-12.625" y2="69" />
<text style="fill:black;text-anchor:start;font-size:0.3;" x="-12.825" y="68.65">84</text>
<line style="stroke-width:0.01;stroke:black;" x1="-10.125" y1="67" x2="-13.125" y2="68" />
<text style="fill:black;text-anchor:start;font-size:0.3;" x="-11.575" y="67.65">86</text>
<line style="stroke-width:0.01;stroke:black;" x1="-10.125" y1="67" x2="-9.625" y2="68" />
<text style="fill:blue;text-anchor:middle;font-size:0.4;" x="-9.625" y="68.2">7</text>
<line style="stroke-width:0.01;stroke:black;" x1="-9.625" y1="68" x2="-10.625" y2="69" />
<text style="fill:blue;text-anchor:middle;font-size:0.4;" x="-10.625" y="69.2">89</text>
<line style="stroke-width:0.01;stroke:black;" x1="-10.625" y1="69" x2="-11.125" y2="70" />
<circle style="fill:red;stroke-width:0.01;stroke:black" cx="-11.125" cy="70" r="0.1" />
<line style="stroke-width:0.01;stroke:black;" x1="-10.625" y1="69" x2="-11.125" y2="70" />
<text style="fill:black;text-anchor:start;font-size:0.3;" x="-10.825" y="69.65">87</text>
<line style="stroke-width:0.01;stroke:black;" x1="-10.625" y1="69" x2="-10.125" y2="70" />
<circle style="fill:red;stroke-width:0.01;stroke:black" cx="-10.125" cy="70" r="0.1" />
<line style="stroke-width:0.01;stroke:black;" x1="-10.625" y1="69" x2="-10.125" y2="70" />
<text style="fill:black;text-anchor:start;font-size:0.3;" x="-10.325" y="69.65">17</text>
<line style="stroke-width:0.01;stroke:black;" x1="-9.625" y1="68" x2="-10.625" y2="69" />
<text style="fill:black;text-anchor:start;font-size:0.3;" x="-10.075" y="68.65">7</text>
<line style="stroke-width:0.01;stroke:black;" x1="-9.625" y1="68" x2="-8.625" y2="69" />
<text style="fill:blue;text-anchor:middle;font-size:0.4;" x="-8.625" y="69.2">89</text>
<line style="stroke-width:0.01;stroke:black;" x1="-8.625" y1="69" x2="-9.125" y2="70" />
<circle style="fill:red;stroke-width:0.01;stroke:black" cx="-9.125" cy="70" r="0.1" />
<line style="stroke-width:0.01;stroke:black;" x1="-8.625" y1="69" x2="-9.125" y2="70" />
<text style="fill:black;text-anchor:start;font-size:0.3;" x="-8.825" y="69.65">89</text>
<line style="stroke-width:0.01;stroke:black;" x1="-8.625" y1="69" x2="-8.125" y2="70" />
<circle style="fill:red;stroke-width:0.01;stroke:black" cx="-8.125" cy="70" r="0.1" />
<line style="stroke-width:0.01;stroke:black;" x1="-8.625" y1="69" x2="-8.125" y2="70" />
<text style="fill:black;text-anchor:start;font-size:0.3;" x="-8.325" y="69.65">17</text>
<line style="stroke-width:0.01;stroke:black;" x1="-9.625" y1="68" x2="-8.625" y2="69" />
<text style="fill:black;text-anchor:start;font-size:0.3;" x="-9.075" y="68.65">5</text>
<line style="stroke-width:0.01;stroke:black;" x1="-10.125" y1="67" x2="-9.625" y2="68" />
<text style="fill:black;text-anchor:start;font-size:0.3;" x="-9.825" y="67.65">3</text>
<line style="stroke-width:0.01;stroke:black;" x1="-10.125" y1="67" x2="-7.125" y2="68" />
<text style="fill:blue;text-anchor:middle;font-size:0.4;" x="-7.125" y="68.2">7</text>
<line style="stroke-width:0.01;stroke:black;" x1="-7.125" y1="68" x2="-7.625" y2="69" />
<circle style="fill:red;stroke-width:0.01;stroke:black" cx="-7.625" cy="69" r="0.1" />
<line style="stroke-width:0.01;stroke:black;" x1="-7.125" y1="68" x2="-7.625" y2="69" />
<text style="fill:black;text-anchor:start;font-size:0.3;" x="-7.325" y="68.65">5</text>
<line style="stroke-width:0.01;stroke:black;" x1="-7.125" y1="68" x2="-6.625" y2="69" />
<circle style="fill:red;stroke-width:0.01;stroke:black" cx="-6.625" cy="69" r="0.1" />
<line style="stroke-width:0.01;stroke:black;" x1="-7.125" y1="68" x2="-6.625" y2="69" />
<text style="fill:black;text-anchor:start;font-size:0.3;" x="-6.825" y="68.65">84</text>
<line style="stroke-width:0.01;stroke:black;" x1="-10.125" y1="67" x2="-7.125" y2="68" />
<text style="fill:black;text-anchor:start;font-size:0.3;" x="-8.575" y="67.65">88</text>
<line style="stroke-width:0.01;stroke:black;" x1="-7.375" y1="66" x2="-10.125" y2="67" />
<text style="fill:black;text-anchor:start;font-size:0.3;" x="-8.7" y="66.65">83</text>
<line style="stroke-width:0.01;stroke:black;" x1="-7.375" y1="66" x2="-5.625" y2="67" />
<text style="fill:blue;text-anchor:middle;font-size:0.4;" x="-5.625" y="67.2">88</text>
<line style="stroke-width:0.01;stroke:black;" x1="-5.625" y1="67" x2="-6.125" y2="68" />
<circle style="fill:red;stroke-width:0.01;stroke:black" cx="-6.125" cy="68" r="0.1" />
<line style="stroke-width:0.01;stroke:black;" x1="-5.625" y1="67" x2="-6.125" y2="68" />
<text style="fill:black;text-anchor:start;font-size:0.3;" x="-5.825" y="67.65">88</text>
<line style="stroke-width:0.01;stroke:black;" x1="-5.625" y1="67" x2="-5.125" y2="68" />
<text style="fill:blue;text-anchor:middle;font-size:0.4;" x="-5.125" y="68.2">7</text>
<line style="stroke-width:0.01;stroke:black;" x1="-5.125" y1="68" x2="-5.625" y2="69" />
<circle style="fill:red;stroke-width:0.01;stroke:black" cx="-5.625" cy="69" r="0.1" />
<line style="stroke-width:0.01;stroke:black;" x1="-5.125" y1="68" x2="-5.625" y2="69" />
<text style="fill:black;text-anchor:start;font-size:0.3;" x="-5.325" y="68.65">7</text>
<line style="stroke-width:0.01;stroke:black;" x1="-5.125" y1="68" x2="-4.625" y2="69" />
<text style="fill:blue;text-anchor:middle;font-size:0.4;" x="-4.625" y="69.2">89</text>
<line style="stroke-width:0.01;stroke:black;" x1="-4.625" y1="69" x2="-5.125" y2="70" />
<circle style="fill:red;stroke-width:0.01;stroke:black" cx="-5.125" cy="70" r="0.1" />
<line style="stroke-width:0.01;stroke:black;" x1="-4.625" y1="69" x2="-5.125" y2="70" />
<text style="fill:black;text-anchor:start;font-size:0.3;" x="-4.825" y="69.65">89</text>
<line style="stroke-width:0.01;stroke:black;" x1="-4.625" y1="69" x2="-4.125" y2="70" />
<circle style="fill:red;stroke-width:0.01;stroke:black" cx="-4.125" cy="70" r="0.1" />
<line style="stroke-width:0.01;stroke:black;" x1="-4.625" y1="69" x2="-4.125" y2="70" />
<text style="fill:black;text-anchor:start;font-size:0.3;" x="-4.325" y="69.65">17</text>
<line style="stroke-width:0.01;stroke:black;" x1="-5.125" y1="68" x2="-4.625" y2="69" />
<text style="fill:black;text-anchor:start;font-size:0.3;" x="-4.825" y="68.65">3</text>
<line style="stroke-width:0.01;stroke:black;" x1="-5.625" y1="67" x2="-5.125" y2="68" />
<text style="fill:black;text-anchor:start;font-size:0.3;" x="-5.325" y="67.65">86</text>
<line style="stroke-width:0.01;stroke:black;" x1="-7.375" y1="66" x2="-5.625" y2="67" />
<text style="fill:black;text-anchor:start;font-size:0.3;" x="-6.45" y="66.65">4</text>
<line style="stroke-width:0.01;stroke:black;" x1="-7.375" y1="66" x2="-4.625" y2="67" />
<circle style="fill:red;stroke-width:0.01;stroke:black" cx="-4.625" cy="67" r="0.1" />
<line style="stroke-width:0.01;stroke:black;" x1="-7.375" y1="66" x2="-4.625" y2="67" />
<text style="fill:black;text-anchor:start;font-size:0.3;" x="-5.95" y="66.65">87</text>
<line style="stroke-width:0.01;stroke:black;" x1="-0.5" y1="65" x2="-7.375" y2="66" />
<text style="fill:black;text-anchor:start;font-size:0.3;" x="-3.8875" y="65.65">18</text>
<line style="stroke-width:0.01;stroke:black;" x1="-0.5" y1="65" x2="1.375" y2="66" />
<text style="fill:blue;text-anchor:middle;font-size:0.4;" x="1.375" y="66.2">87</text>
<line style="stroke-width:0.01;stroke:black;" x1="1.375" y1="66" x2="-1.625" y2="67" />
<text style="fill:blue;text-anchor:middle;font-size:0.4;" x="-1.625" y="67.2">88</text>
<line style="stroke-width:0.01;stroke:black;" x1="-1.625" y1="67" x2="-3.125" y2="68" />
<text style="fill:blue;text-anchor:middle;font-size:0.4;" x="-3.125" y="68.2">7</text>
<line style="stroke-width:0.01;stroke:black;" x1="-3.125" y1="68" x2="-3.625" y2="69" />
<circle style="fill:red;stroke-width:0.01;stroke:black" cx="-3.625" cy="69" r="0.1" />
<line style="stroke-width:0.01;stroke:black;" x1="-3.125" y1="68" x2="-3.625" y2="69" />
<text style="fill:black;text-anchor:start;font-size:0.3;" x="-3.325" y="68.65">7</text>
<line style="stroke-width:0.01;stroke:black;" x1="-3.125" y1="68" x2="-2.625" y2="69" />
<circle style="fill:red;stroke-width:0.01;stroke:black" cx="-2.625" cy="69" r="0.1" />
<line style="stroke-width:0.01;stroke:black;" x1="-3.125" y1="68" x2="-2.625" y2="69" />
<text style="fill:black;text-anchor:start;font-size:0.3;" x="-2.825" y="68.65">84</text>
<line style="stroke-width:0.01;stroke:black;" x1="-1.625" y1="67" x2="-3.125" y2="68" />
<text style="fill:black;text-anchor:start;font-size:0.3;" x="-2.325" y="67.65">86</text>
<line style="stroke-width:0.01;stroke:black;" x1="-1.625" y1="67" x2="-1.125" y2="68" />
<text style="fill:blue;text-anchor:middle;font-size:0.4;" x="-1.125" y="68.2">7</text>
<line style="stroke-width:0.01;stroke:black;" x1="-1.125" y1="68" x2="-1.625" y2="69" />
<circle style="fill:red;stroke-width:0.01;stroke:black" cx="-1.625" cy="69" r="0.1" />
<line style="stroke-width:0.01;stroke:black;" x1="-1.125" y1="68" x2="-1.625" y2="69" />
<text style="fill:black;text-anchor:start;font-size:0.3;" x="-1.325" y="68.65">7</text>
<line style="stroke-width:0.01;stroke:black;" x1="-1.125" y1="68" x2="-0.625" y2="69" />
<circle style="fill:red;stroke-width:0.01;stroke:black" cx="-0.625" cy="69" r="0.1" />
<line style="stroke-width:0.01;stroke:black;" x1="-1.125" y1="68" x2="-0.625" y2="69" />
<text style="fill:black;text-anchor:start;font-size:0.3;" x="-0.825" y="68.65">5</text>
<line style="stroke-width:0.01;stroke:black;" x1="-1.625" y1="67" x2="-1.125" y2="68" />
<text style="fill:black;text-anchor:start;font-size:0.3;" x="-1.325" y="67.65">3</text>
<line style="stroke-width:0.01;stroke:black;" x1="-1.625" y1="67" x2="-0.125" y2="68" />
<circle style="fill:red;stroke-width:0.01;stroke:black" cx="-0.125" cy="68" r="0.1" />
<line style="stroke-width:0.01;stroke:black;" x1="-1.625" y1="67" x2="-0.125" y2="68" />
<text style="fill:black;text-anchor:start;font-size:0.3;" x="-0.825" y="67.65">88</text>
<line style="stroke-width:0.01;stroke:black;" x1="1.375" y1="66" x2="-1.625" y2="67" />
<text style="fill:black;text-anchor:start;font-size:0.3;" x="-0.075" y="66.65">17</text>
<line style="stroke-width:0.01;stroke:black;" x1="1.375" y1="66" x2="1.875" y2="67" />
<text style="fill:blue;text-anchor:middle;font-size:0.4;" x="1.875" y="67.2">7</text>
<line style="stroke-width:0.01;stroke:black;" x1="1.875" y1="67" x2="0.875" y2="68" />
<text style="fill:blue;text-anchor:middle;font-size:0.4;" x="0.875" y="68.2">91</text>
<line style="stroke-width:0.01;stroke:black;" x1="0.875" y1="68" x2="0.375" y2="69" />
<text style="fill:blue;text-anchor:middle;font-size:0.4;" x="0.375" y="69.2">88</text>
<line style="stroke-width:0.01;stroke:black;" x1="0.375" y1="69" x2="-0.125" y2="70" />
<circle style="fill:red;stroke-width:0.01;stroke:black" cx="-0.125" cy="70" r="0.1" />
<line style="stroke-width:0.01;stroke:black;" x1="0.375" y1="69" x2="-0.125" y2="70" />
<text style="fill:black;text-anchor:start;font-size:0.3;" x="0.175" y="69.65">18</text>
<line style="stroke-width:0.01;stroke:black;" x1="0.375" y1="69" x2="0.875" y2="70" />
<circle style="fill:red;stroke-width:0.01;stroke:black" cx="0.875" cy="70" r="0.1" />
<line style="stroke-width:0.01;stroke:black;" x1="0.375" y1="69" x2="0.875" y2="70" />
<text style="fill:black;text-anchor:start;font-size:0.3;" x="0.675" y="69.65">16</text>
<line style="stroke-width:0.01;stroke:black;" x1="0.875" y1="68" x2="0.375" y2="69" />
<text style="fill:black;text-anchor:start;font-size:0.3;" x="0.675" y="68.65">89</text>
<line style="stroke-width:0.01;stroke:black;" x1="0.875" y1="68" x2="1.375" y2="69" />
<circle style="fill:red;stroke-width:0.01;stroke:black" cx="1.375" cy="69" r="0.1" />
<line style="stroke-width:0.01;stroke:black;" x1="0.875" y1="68" x2="1.375" y2="69" />
<text style="fill:black;text-anchor:start;font-size:0.3;" x="1.175" y="68.65">15</text>
<line style="stroke-width:0.01;stroke:black;" x1="1.875" y1="67" x2="0.875" y2="68" />
<text style="fill:black;text-anchor:start;font-size:0.3;" x="1.425" y="67.65">7</text>
<line style="stroke-width:0.01;stroke:black;" x1="1.875" y1="67" x2="2.875" y2="68" />
<text style="fill:blue;text-anchor:middle;font-size:0.4;" x="2.875" y="68.2">91</text>
<line style="stroke-width:0.01;stroke:black;" x1="2.875" y1="68" x2="2.375" y2="69" />
<text style="fill:blue;text-anchor:middle;font-size:0.4;" x="2.375" y="69.2">88</text>
<line style="stroke-width:0.01;stroke:black;" x1="2.375" y1="69" x2="1.875" y2="70" />
<circle style="fill:red;stroke-width:0.01;stroke:black" cx="1.875" cy="70" r="0.1" />
<line style="stroke-width:0.01;stroke:black;" x1="2.375" y1="69" x2="1.875" y2="70" />
<text style="fill:black;text-anchor:start;font-size:0.3;" x="2.175" y="69.65">18</text>
<line style="stroke-width:0.01;stroke:black;" x1="2.375" y1="69" x2="2.875" y2="70" />
<circle style="fill:red;stroke-width:0.01;stroke:black" cx="2.875" cy="70" r="0.1" />
<line style="stroke-width:0.01;stroke:black;" x1="2.375" y1="69" x2="2.875" y2="70" />
<text style="fill:black;text-anchor:start;font-size:0.3;" x="2.675" y="69.65">16</text>
<line style="stroke-width:0.01;stroke:black;" x1="2.875" y1="68" x2="2.375" y2="69" />
<text style="fill:black;text-anchor:start;font-size:0.3;" x="2.675" y="68.65">91</text>
<line style="stroke-width:0.01;stroke:black;" x1="2.875" y1="68" x2="3.375" y2="69" />
<circle style="fill:red;stroke-width:0.01;stroke:black" cx="3.375" cy="69" r="0.1" />
<line style="stroke-width:0.01;stroke:black;" x1="2.875" y1="68" x2="3.375" y2="69" />
<text style="fill:black;text-anchor:start;font-size:0.3;" x="3.175" y="68.65">15</text>
<line style="stroke-width:0.01;stroke:black;" x1="1.875" y1="67" x2="2.875" y2="68" />
<text style="fill:black;text-anchor:start;font-size:0.3;" x="2.425" y="67.65">5</text>
<line style="stroke-width:0.01;stroke:black;" x1="1.375" y1="66" x2="1.875" y2="67" />
<text style="fill:black;text-anchor:start;font-size:0.3;" x="1.675" y="66.65">4</text>
<line style="stroke-width:0.01;stroke:black;" x1="1.375" y1="66" x2="4.375" y2="67" />
<text style="fill:blue;text-anchor:middle;font-size:0.4;" x="4.375" y="67.2">7</text>
<line style="stroke-width:0.01;stroke:black;" x1="4.375" y1="67" x2="3.875" y2="68" />
<circle style="fill:red;stroke-width:0.01;stroke:black" cx="3.875" cy="68" r="0.1" />
<line style="stroke-width:0.01;stroke:black;" x1="4.375" y1="67" x2="3.875" y2="68" />
<text style="fill:black;text-anchor:start;font-size:0.3;" x="4.175" y="67.65">5</text>
<line style="stroke-width:0.01;stroke:black;" x1="4.375" y1="67" x2="4.875" y2="68" />
<text style="fill:blue;text-anchor:middle;font-size:0.4;" x="4.875" y="68.2">88</text>
<line style="stroke-width:0.01;stroke:black;" x1="4.875" y1="68" x2="4.375" y2="69" />
<circle style="fill:red;stroke-width:0.01;stroke:black" cx="4.375" cy="69" r="0.1" />
<line style="stroke-width:0.01;stroke:black;" x1="4.875" y1="68" x2="4.375" y2="69" />
<text style="fill:black;text-anchor:start;font-size:0.3;" x="4.675" y="68.65">18</text>
<line style="stroke-width:0.01;stroke:black;" x1="4.875" y1="68" x2="5.375" y2="69" />
<circle style="fill:red;stroke-width:0.01;stroke:black" cx="5.375" cy="69" r="0.1" />
<line style="stroke-width:0.01;stroke:black;" x1="4.875" y1="68" x2="5.375" y2="69" />
<text style="fill:black;text-anchor:start;font-size:0.3;" x="5.175" y="68.65">16</text>
<line style="stroke-width:0.01;stroke:black;" x1="4.375" y1="67" x2="4.875" y2="68" />
<text style="fill:black;text-anchor:start;font-size:0.3;" x="4.675" y="67.65">84</text>
<line style="stroke-width:0.01;stroke:black;" x1="1.375" y1="66" x2="4.375" y2="67" />
<text style="fill:black;text-anchor:start;font-size:0.3;" x="2.925" y="66.65">87</text>
<line style="stroke-width:0.01;stroke:black;" x1="-0.5" y1="65" x2="1.375" y2="66" />
<text style="fill:black;text-anchor:start;font-size:0.3;" x="0.4875" y="65.65">82</text>
<line style="stroke-width:0.01;stroke:black;" x1="-0.5" y1="65" x2="6.375" y2="66" />
<text style="fill:blue;text-anchor:middle;font-size:0.4;" x="6.375" y="66.2">7</text>
<line style="stroke-width:0.01;stroke:black;" x1="6.375" y1="66" x2="6.375" y2="67" />
<text style="fill:blue;text-anchor:middle;font-size:0.4;" x="6.375" y="67.2">87</text>
<line style="stroke-width:0.01;stroke:black;" x1="6.375" y1="67" x2="6.375" y2="68" />
<text style="fill:blue;text-anchor:middle;font-size:0.4;" x="6.375" y="68.2">91</text>
<line style="stroke-width:0.01;stroke:black;" x1="6.375" y1="68" x2="6.375" y2="69" />
<text style="fill:blue;text-anchor:middle;font-size:0.4;" x="6.375" y="69.2">88</text>
<line style="stroke-width:0.01;stroke:black;" x1="6.375" y1="69" x2="5.875" y2="70" />
<circle style="fill:red;stroke-width:0.01;stroke:black" cx="5.875" cy="70" r="0.1" />
<line style="stroke-width:0.01;stroke:black;" x1="6.375" y1="69" x2="5.875" y2="70" />
<text style="fill:black;text-anchor:start;font-size:0.3;" x="6.175" y="69.65">18</text>
<line style="stroke-width:0.01;stroke:black;" x1="6.375" y1="69" x2="6.875" y2="70" />
<circle style="fill:red;stroke-width:0.01;stroke:black" cx="6.875" cy="70" r="0.1" />
<line style="stroke-width:0.01;stroke:black;" x1="6.375" y1="69" x2="6.875" y2="70" />
<text style="fill:black;text-anchor:start;font-size:0.3;" x="6.675" y="69.65">16</text>
<line style="stroke-width:0.01;stroke:black;" x1="6.375" y1="68" x2="6.375" y2="69" />
<text style="fill:black;text-anchor:start;font-size:0.3;" x="6.425" y="68.65">89</text>
<line style="stroke-width:0.01;stroke:black;" x1="6.375" y1="67" x2="6.375" y2="68" />
<text style="fill:black;text-anchor:start;font-size:0.3;" x="6.425" y="67.65">83</text>
<line style="stroke-width:0.01;stroke:black;" x1="6.375" y1="66" x2="6.375" y2="67" />
<text style="fill:black;text-anchor:start;font-size:0.3;" x="6.425" y="66.65">7</text>
<line style="stroke-width:0.01;stroke:black;" x1="-0.5" y1="65" x2="6.375" y2="66" />
<text style="fill:black;text-anchor:start;font-size:0.3;" x="2.9875" y="65.65">5</text>
<line style="stroke-width:0.01;stroke:black;" x1="-0.5" y1="64" x2="-0.5" y2="65" />
<text style="fill:black;text-anchor:start;font-size:0.3;" x="-0.45" y="64.65">13</text>
<line style="stroke-width:0.01;stroke:black;" x1="-0.5" y1="63" x2="-0.5" y2="64" />
<text style="fill:black;text-anchor:start;font-size:0.3;" x="-0.45" y="63.65">81</text>
<line style="stroke-width:0.01;stroke:black;" x1="-0.5" y1="62" x2="-0.5" y2="63" />
<text style="fill:black;text-anchor:start;font-size:0.3;" x="-0.45" y="62.65">78</text>
<line style="stroke-width:0.01;stroke:black;" x1="-0.5" y1="61" x2="-0.5" y2="62" />
<text style="fill:black;text-anchor:start;font-size:0.3;" x="-0.45" y="61.65">12</text>
<line style="stroke-width:0.01;stroke:black;" x1="-0.5" y1="60" x2="-0.5" y2="61" />
<text style="fill:black;text-anchor:start;font-size:0.3;" x="-0.45" y="60.65">80</text>
<line style="stroke-width:0.01;stroke:black;" x1="-0.5" y1="59" x2="-0.5" y2="60" />
<text style="fill:black;text-anchor:start;font-size:0.3;" x="-0.45" y="59.65">9</text>
<line style="stroke-width:0.01;stroke:black;" x1="-0.5" y1="58" x2="-0.5" y2="59" />
<text style="fill:black;text-anchor:start;font-size:0.3;" x="-0.45" y="58.65">79</text>
<line style="stroke-width:0.01;stroke:black;" x1="-0.5" y1="57" x2="-0.5" y2="58" />
<text style="fill:black;text-anchor:start;font-size:0.3;" x="-0.45" y="57.65">72</text>
<line style="stroke-width:0.01;stroke:black;" x1="-0.5" y1="56" x2="-0.5" y2="57" />
<text style="fill:black;text-anchor:start;font-size:0.3;" x="-0.45" y="56.65">27</text>
<line style="stroke-width:0.01;stroke:black;" x1="-0.5" y1="55" x2="-0.5" y2="56" />
<text style="fill:black;text-anchor:start;font-size:0.3;" x="-0.45" y="55.65">76</text>
<line style="stroke-width:0.01;stroke:black;" x1="-0.5" y1="54" x2="-0.5" y2="55" />
<text style="fill:black;text-anchor:start;font-size:0.3;" x="-0.45" y="54.65">20</text>
<line style="stroke-width:0.01;stroke:black;" x1="-0.5" y1="53" x2="-0.5" y2="54" />
<text style="fill:black;text-anchor:start;font-size:0.3;" x="-0.45" y="53.65">19</text>
<line style="stroke-width:0.01;stroke:black;" x1="-0.5" y1="52" x2="-0.5" y2="53" />
<text style="fill:black;text-anchor:start;font-size:0.3;" x="-0.45" y="52.65">70</text>
<line style="stroke-width:0.01;stroke:black;" x1="-0.5" y1="51" x2="-0.5" y2="52" />
<text style="fill:black;text-anchor:start;font-size:0.3;" x="-0.45" y="51.65">75</text>
<line style="stroke-width:0.01;stroke:black;" x1="-0.5" y1="50" x2="-0.5" y2="51" />
<text style="fill:black;text-anchor:start;font-size:0.3;" x="-0.45" y="50.65">74</text>
<line style="stroke-width:0.01;stroke:black;" x1="-0.5" y1="49" x2="-0.5" y2="50" />
<text style="fill:black;text-anchor:start;font-size:0.3;" x="-0.45" y="49.65">69</text>
<line style="stroke-width:0.01;stroke:black;" x1="-0.5" y1="48" x2="-0.5" y2="49" />
<text style="fill:black;text-anchor:start;font-size:0.3;" x="-0.45" y="48.65">24</text>
<line style="stroke-width:0.01;stroke:black;" x1="-0.5" y1="47" x2="-0.5" y2="48" />
<text style="fill:black;text-anchor:start;font-size:0.3;" x="-0.45" y="47.65">22</text>
<line style="stroke-width:0.01;stroke:black;" x1="-0.5" y1="46" x2="-0.5" y2="47" />
<text style="fill:black;text-anchor:start;font-size:0.3;" x="-0.45" y="46.65">23</text>
<line style="stroke-width:0.01;stroke:black;" x1="-0.5" y1="45" x2="-0.5" y2="46" />
<text style="fill:black;text-anchor:start;font-size:0.3;" x="-0.45" y="45.65">28</text>
<line style="stroke-width:0.01;stroke:black;" x1="-0.5" y1="44" x2="-0.5" y2="45" />
<text style="fill:black;text-anchor:start;font-size:0.3;" x="-0.45" y="44.65">67</text>
<line style="stroke-width:0.01;stroke:black;" x1="-0.5" y1="43" x2="-0.5" y2="44" />
<text style="fill:black;text-anchor:start;font-size:0.3;" x="-0.45" y="43.65">21</text>
<line style="stroke-width:0.01;stroke:black;" x1="-0.5" y1="42" x2="-0.5" y2="43" />
<text style="fill:black;text-anchor:start;font-size:0.3;" x="-0.45" y="42.65">71</text>
<line style="stroke-width:0.01;stroke:black;" x1="-0.5" y1="41" x2="-0.5" y2="42" />
<text style="fill:black;text-anchor:start;font-size:0.3;" x="-0.45" y="41.65">25</text>
<line style="stroke-width:0.01;stroke:black;" x1="-0.5" y1="40" x2="-0.5" y2="41" />
<text style="fill:black;text-anchor:start;font-size:0.3;" x="-0.45" y="40.65">73</text>
<line style="stroke-width:0.01;stroke:black;" x1="-0.5" y1="39" x2="-0.5" y2="40" />
<text style="fill:black;text-anchor:start;font-size:0.3;" x="-0.45" y="39.65">29</text>
<line style="stroke-width:0.01;stroke:black;" x1="-0.5" y1="38" x2="-0.5" y2="39" />
<text style="fill:black;text-anchor:start;font-size:0.3;" x="-0.45" y="38.65">65</text>
<line style="stroke-width:0.01;stroke:black;" x1="-0.5" y1="37" x2="-0.5" y2="38" />
<text style="fill:black;text-anchor:start;font-size:0.3;" x="-0.45" y="37.65">68</text>
<line style="stroke-width:0.01;stroke:black;" x1="-0.5" y1="36" x2="-0.5" y2="37" />
<text style="fill:black;text-anchor:start;font-size:0.3;" x="-0.45" y="36.65">61</text>
<line style="stroke-width:0.01;stroke:black;" x1="-0.5" y1="35" x2="-0.5" y2="36" />
<text style="fill:black;text-anchor:start;font-size:0.3;" x="-0.45" y="35.65">26</text>
<line style="stroke-width:0.01;stroke:black;" x1="-0.5" y1="34" x2="-0.5" y2="35" />
<text style="fill:black;text-anchor:start;font-size:0.3;" x="-0.45" y="34.65">31</text>
<line style="stroke-width:0.01;stroke:black;" x1="-0.5" y1="33" x2="-0.5" y2="34" />
<text style="fill:black;text-anchor:start;font-size:0.3;" x="-0.45" y="33.65">30</text>
<line style="stroke-width:0.01;stroke:black;" x1="-0.5" y1="32" x2="-0.5" y2="33" />
<text style="fill:black;text-anchor:start;font-size:0.3;" x="-0.45" y="32.65">66</text>
<line style="stroke-width:0.01;stroke:black;" x1="-0.5" y1="31" x2="-0.5" y2="32" />
<text style="fill:black;text-anchor:start;font-size:0.3;" x="-0.45" y="31.65">64</text>
<line style="stroke-width:0.01;stroke:black;" x1="-0.5" y1="30" x2="-0.5" y2="31" />
<text style="fill:black;text-anchor:start;font-size:0.3;" x="-0.45" y="30.65">32</text>
<line style="stroke-width:0.01;stroke:black;" x1="-0.5" y1="29" x2="-0.5" y2="30" />
<text style="fill:black;text-anchor:start;font-size:0.3;" x="-0.45" y="29.65">63</text>
<line style="stroke-width:0.01;stroke:black;" x1="-0.5" y1="28" x2="-0.5" y2="29" />
<text style="fill:black;text-anchor:start;font-size:0.3;" x="-0.45" y="28.65">33</text>
<line style="stroke-width:0.01;stroke:black;" x1="-0.5" y1="27" x2="-0.5" y2="28" />
<text style="fill:black;text-anchor:start;font-size:0.3;" x="-0.45" y="27.65">34</text>
<line style="stroke-width:0.01;stroke:black;" x1="-0.5" y1="26" x2="-0.5" y2="27" />
<text style="fill:black;text-anchor:start;font-size:0.3;" x="-0.45" y="26.65">62</text>
<line style="stroke-width:0.01;stroke:black;" x1="-0.5" y1="25" x2="-0.5" y2="26" />
<text style="fill:black;text-anchor:start;font-size:0.3;" x="-0.45" y="25.65">35</text>
<line style="stroke-width:0.01;stroke:black;" x1="-0.5" y1="24" x2="-0.5" y2="25" />
<text style="fill:black;text-anchor:start;font-size:0.3;" x="-0.45" y="24.65">60</text>
<line style="stroke-width:0.01;stroke:black;" x1="-0.5" y1="23" x2="-0.5" y2="24" />
<text style="fill:black;text-anchor:start;font-size:0.3;" x="-0.45" y="23.65">58</text>
<line style="stroke-width:0.01;stroke:black;" x1="-0.5" y1="22" x2="-0.5" y2="23" />
<text style="fill:black;text-anchor:start;font-size:0.3;" x="-0.45" y="22.65">36</text>
<line style="stroke-width:0.01;stroke:black;" x1="-0.5" y1="21" x2="-0.5" y2="22" />
<text style="fill:black;text-anchor:start;font-size:0.3;" x="-0.45" y="21.65">38</text>
<line style="stroke-width:0.01;stroke:black;" x1="-0.5" y1="20" x2="-0.5" y2="21" />
<text style="fill:black;text-anchor:start;font-size:0.3;" x="-0.45" y="20.65">59</text>
<line style="stroke-width:0.01;stroke:black;" x1="-0.5" y1="19" x2="-0.5" y2="20" />
<text style="fill:black;text-anchor:start;font-size:0.3;" x="-0.45" y="19.65">57</text>
<line style="stroke-width:0.01;stroke:black;" x1="-0.5" y1="18" x2="-0.5" y2="19" />
<text style="fill:black;text-anchor:start;font-size:0.3;" x="-0.45" y="18.65">37</text>
<line style="stroke-width:0.01;stroke:black;" x1="-0.5" y1="17" x2="-0.5" y2="18" />
<text style="fill:black;text-anchor:start;font-size:0.3;" x="-0.45" y="17.65">56</text>
<line style="stroke-width:0.01;stroke:black;" x1="-0.5" y1="16" x2="-0.5" y2="17" />
<text style="fill:black;text-anchor:start;font-size:0.3;" x="-0.45" y="16.65">39</text>
<line style="stroke-width:0.01;stroke:black;" x1="-0.5" y1="15" x2="-0.5" y2="16" />
<text style="fill:black;text-anchor:start;font-size:0.3;" x="-0.45" y="15.65">53</text>
<line style="stroke-width:0.01;stroke:black;" x1="-0.5" y1="14" x2="-0.5" y2="15" />
<text style="fill:black;text-anchor:start;font-size:0.3;" x="-0.45" y="14.65">55</text>
<line style="stroke-width:0.01;stroke:black;" x1="0.0" y1="13" x2="-0.5" y2="14" />
<text style="fill:black;text-anchor:start;font-size:0.3;" x="-0.2" y="13.65">40</text>
<line style="stroke-width:0.01;stroke:black;" x1="0.0" y1="13" x2="0.5" y2="14" />
<text style="fill:blue;text-anchor:middle;font-size:0.4;" x="0.5" y="14.2">29</text>
<line style="stroke-width:0.01;stroke:black;" x1="0.5" y1="14" x2="0.5" y2="15" />
<text style="fill:blue;text-anchor:middle;font-size:0.4;" x="0.5" y="15.2">66</text>
<line style="stroke-width:0.01;stroke:black;" x1="0.5" y1="15" x2="0.5" y2="16" />
<text style="fill:blue;text-anchor:middle;font-size:0.4;" x="0.5" y="16.2">27</text>
<line style="stroke-width:0.01;stroke:black;" x1="0.5" y1="16" x2="0.5" y2="17" />
<text style="fill:blue;text-anchor:middle;font-size:0.4;" x="0.5" y="17.2">26</text>
<line style="stroke-width:0.01;stroke:black;" x1="0.5" y1="17" x2="0.5" y2="18" />
<text style="fill:blue;text-anchor:middle;font-size:0.4;" x="0.5" y="18.2">61</text>
<line style="stroke-width:0.01;stroke:black;" x1="0.5" y1="18" x2="0.5" y2="19" />
<text style="fill:blue;text-anchor:middle;font-size:0.4;" x="0.5" y="19.2">63</text>
<line style="stroke-width:0.01;stroke:black;" x1="0.5" y1="19" x2="0.5" y2="20" />
<text style="fill:blue;text-anchor:middle;font-size:0.4;" x="0.5" y="20.2">67</text>
<line style="stroke-width:0.01;stroke:black;" x1="0.5" y1="20" x2="0.5" y2="21" />
<text style="fill:blue;text-anchor:middle;font-size:0.4;" x="0.5" y="21.2">70</text>
<line style="stroke-width:0.01;stroke:black;" x1="0.5" y1="21" x2="0.5" y2="22" />
<text style="fill:blue;text-anchor:middle;font-size:0.4;" x="0.5" y="22.2">19</text>
<line style="stroke-width:0.01;stroke:black;" x1="0.5" y1="22" x2="0.5" y2="23" />
<text style="fill:blue;text-anchor:middle;font-size:0.4;" x="0.5" y="23.2">72</text>
<line style="stroke-width:0.01;stroke:black;" x1="0.5" y1="23" x2="0.5" y2="24" />
<text style="fill:blue;text-anchor:middle;font-size:0.4;" x="0.5" y="24.2">77</text>
<line style="stroke-width:0.01;stroke:black;" x1="0.5" y1="24" x2="0.5" y2="25" />
<text style="fill:blue;text-anchor:middle;font-size:0.4;" x="0.5" y="25.2">76</text>
<line style="stroke-width:0.01;stroke:black;" x1="0.5" y1="25" x2="0.5" y2="26" />
<text style="fill:blue;text-anchor:middle;font-size:0.4;" x="0.5" y="26.2">74</text>
<line style="stroke-width:0.01;stroke:black;" x1="0.5" y1="26" x2="0.5" y2="27" />
<text style="fill:blue;text-anchor:middle;font-size:0.4;" x="0.5" y="27.2">17</text>
<line style="stroke-width:0.01;stroke:black;" x1="0.5" y1="27" x2="0.5" y2="28" />
<text style="fill:blue;text-anchor:middle;font-size:0.4;" x="0.5" y="28.2">18</text>
<line style="stroke-width:0.01;stroke:black;" x1="0.5" y1="28" x2="0.5" y2="29" />
<text style="fill:blue;text-anchor:middle;font-size:0.4;" x="0.5" y="29.2">78</text>
<line style="stroke-width:0.01;stroke:black;" x1="0.5" y1="29" x2="0.5" y2="30" />
<text style="fill:blue;text-anchor:middle;font-size:0.4;" x="0.5" y="30.2">16</text>
<line style="stroke-width:0.01;stroke:black;" x1="0.5" y1="30" x2="0.5" y2="31" />
<text style="fill:blue;text-anchor:middle;font-size:0.4;" x="0.5" y="31.2">15</text>
<line style="stroke-width:0.01;stroke:black;" x1="0.5" y1="31" x2="0.5" y2="32" />
<text style="fill:blue;text-anchor:middle;font-size:0.4;" x="0.5" y="32.2">21</text>
<line style="stroke-width:0.01;stroke:black;" x1="0.5" y1="32" x2="0.5" y2="33" />
<text style="fill:blue;text-anchor:middle;font-size:0.4;" x="0.5" y="33.2">75</text>
<line style="stroke-width:0.01;stroke:black;" x1="0.5" y1="33" x2="0.5" y2="34" />
<polygon style="fill:blue;stroke-width:0.01;stroke:black;" points="0.5,34 1.0,34.5 0.0,34.5" />
<line style="stroke-width:0.01;stroke:black;" x1="0.5" y1="33" x2="0.5" y2="34" />
<text style="fill:black;text-anchor:start;font-size:0.3;" x="0.55" y="33.65">31</text>
<line style="stroke-width:0.01;stroke:black;" x1="0.5" y1="32" x2="0.5" y2="33" />
<text style="fill:black;text-anchor:start;font-size:0.3;" x="0.55" y="32.65">63</text>
<line style="stroke-width:0.01;stroke:black;" x1="0.5" y1="31" x2="0.5" y2="32" />
<text style="fill:black;text-anchor:start;font-size:0.3;" x="0.55" y="31.65">30</text>
<line style="stroke-width:0.01;stroke:black;" x1="0.5" y1="30" x2="0.5" y2="31" />
<text style="fill:black;text-anchor:start;font-size:0.3;" x="0.55" y="30.65">65</text>
<line style="stroke-width:0.01;stroke:black;" x1="0.5" y1="29" x2="0.5" y2="30" />
<text style="fill:black;text-anchor:start;font-size:0.3;" x="0.55" y="29.65">64</text>
<line style="stroke-width:0.01;stroke:black;" x1="0.5" y1="28" x2="0.5" y2="29" />
<text style="fill:black;text-anchor:start;font-size:0.3;" x="0.55" y="28.65">34</text>
<line style="stroke-width:0.01;stroke:black;" x1="0.5" y1="27" x2="0.5" y2="28" />
<text style="fill:black;text-anchor:start;font-size:0.3;" x="0.55" y="27.65">62</text>
<line style="stroke-width:0.01;stroke:black;" x1="0.5" y1="26" x2="0.5" y2="27" />
<text style="fill:black;text-anchor:start;font-size:0.3;" x="0.55" y="26.65">59</text>
<line style="stroke-width:0.01;stroke:black;" x1="0.5" y1="25" x2="0.5" y2="26" />
<text style="fill:black;text-anchor:start;font-size:0.3;" x="0.55" y="25.65">33</text>
<line style="stroke-width:0.01;stroke:black;" x1="0.5" y1="24" x2="0.5" y2="25" />
<text style="fill:black;text-anchor:start;font-size:0.3;" x="0.55" y="24.65">60</text>
<line style="stroke-width:0.01;stroke:black;" x1="0.5" y1="23" x2="0.5" y2="24" />
<text style="fill:black;text-anchor:start;font-size:0.3;" x="0.55" y="23.65">36</text>
<line style="stroke-width:0.01;stroke:black;" x1="0.5" y1="22" x2="0.5" y2="23" />
<text style="fill:black;text-anchor:start;font-size:0.3;" x="0.55" y="22.65">57</text>
<line style="stroke-width:0.01;stroke:black;" x1="0.5" y1="21" x2="0.5" y2="22" />
<text style="fill:black;text-anchor:start;font-size:0.3;" x="0.55" y="21.65">58</text>
<line style="stroke-width:0.01;stroke:black;" x1="0.5" y1="20" x2="0.5" y2="21" />
<text style="fill:black;text-anchor:start;font-size:0.3;" x="0.55" y="20.65">35</text>
<line style="stroke-width:0.01;stroke:black;" x1="0.5" y1="19" x2="0.5" y2="20" />
<text style="fill:black;text-anchor:start;font-size:0.3;" x="0.55" y="19.65">38</text>
<line style="stroke-width:0.01;stroke:black;" x1="0.5" y1="18" x2="0.5" y2="19" />
<text style="fill:black;text-anchor:start;font-size:0.3;" x="0.55" y="18.65">37</text>
<line style="stroke-width:0.01;stroke:black;" x1="0.5" y1="17" x2="0.5" y2="18" />
<text style="fill:black;text-anchor:start;font-size:0.3;" x="0.55" y="17.65">56</text>
<line style="stroke-width:0.01;stroke:black;" x1="0.5" y1="16" x2="0.5" y2="17" />
<text style="fill:black;text-anchor:start;font-size:0.3;" x="0.55" y="16.65">39</text>
<line style="stroke-width:0.01;stroke:black;" x1="0.5" y1="15" x2="0.5" y2="16" />
<text style="fill:black;text-anchor:start;font-size:0.3;" x="0.55" y="15.65">53</text>
<line style="stroke-width:0.01;stroke:black;" x1="0.5" y1="14" x2="0.5" y2="15" />
<text style="fill:black;text-anchor:start;font-size:0.3;" x="0.55" y="14.65">40</text>
<line style="stroke-width:0.01;stroke:black;" x1="0.0" y1="13" x2="0.5" y2="14" />
<text style="fill:black;text-anchor:start;font-size:0.3;" x="0.3" y="13.65">55</text>
<line style="stroke-width:0.01;stroke:black;" x1="0.0" y1="12" x2="0.0" y2="13" />
<text style="fill:black;text-anchor:start;font-size:0.3;" x="0.05" y="12.65">54</text>
<line style="stroke-width:0.01;stroke:black;" x1="0.0" y1="11" x2="0.0" y2="12" />
<text style="fill:black;text-anchor:start;font-size:0.3;" x="0.05" y="11.65">41</text>
<line style="stroke-width:0.01;stroke:black;" x1="0.0" y1="10" x2="0.0" y2="11" />
<text style="fill:black;text-anchor:start;font-size:0.3;" x="0.05" y="10.65">42</text>
<line style="stroke-width:0.01;stroke:black;" x1="0.0" y1="9" x2="0.0" y2="10" />
<text style="fill:black;text-anchor:start;font-size:0.3;" x="0.05" y="9.65">50</text>
<line style="stroke-width:0.01;stroke:black;" x1="0.0" y1="8" x2="0.0" y2="9" />
<text style="fill:black;text-anchor:start;font-size:0.3;" x="0.05" y="8.65">52</text>
<line style="stroke-width:0.01;stroke:black;" x1="0.0" y1="7" x2="0.0" y2="8" />
<text style="fill:black;text-anchor:start;font-size:0.3;" x="0.05" y="7.65">43</text>
<line style="stroke-width:0.01;stroke:black;" x1="0.0" y1="6" x2="0.0" y2="7" />
<text style="fill:black;text-anchor:start;font-size:0.3;" x="0.05" y="6.65">51</text>
<line style="stroke-width:0.01;stroke:black;" x1="0.0" y1="5" x2="0.0" y2="6" />
<text style="fill:black;text-anchor:start;font-size:0.3;" x="0.05" y="5.65">46</text>
<line style="stroke-width:0.01;stroke:black;" x1="0.0" y1="4" x2="0.0" y2="5" />
<text style="fill:black;text-anchor:start;font-size:0.3;" x="0.05" y="4.65">44</text>
<line style="stroke-width:0.01;stroke:black;" x1="0.0" y1="3" x2="0.0" y2="4" />
<text style="fill:black;text-anchor:start;font-size:0.3;" x="0.05" y="3.65">45</text>
<line style="stroke-width:0.01;stroke:black;" x1="0.0" y1="2" x2="0.0" y2="3" />
<text style="fill:black;text-anchor:start;font-size:0.3;" x="0.05" y="2.65">48</text>
<line style="stroke-width:0.01;stroke:black;" x1="0.0" y1="1" x2="0.0" y2="2" />
<text style="fill:black;text-anchor:start;font-size:0.3;" x="0.05" y="1.65">49</text>
<line style="stroke-width:0.01;stroke:black;" x1="0" y1="0" x2="0.0" y2="1" />
<text style="fill:black;text-anchor:start;font-size:0.3;" x="0.05" y="0.65">47</text>
</svg>
