<?xml version="1.0" encoding="UTF-8" standalone="no"?>
<!DOCTYPE svg PUBLIC "-//W3C//DTD SVG 1.1//EN"
 "http://www.w3.org/Graphics/SVG/1.1/DTD/svg11.dtd">
<svg
   xmlns:svg="http://www.w3.org/2000/svg"
   xmlns="http://www.w3.org/2000/svg"
   version="1.1"
   width="800px"
   height="800px"
   viewBox="-2.75 -1 5.5 72">
<text style="fill:blue;text-anchor:middle;font-size:0.4;" x="0" y="0.2">48</text>
<line style="stroke-width:0.01;stroke:black;" x1="0" y1="0" x2="0.0" y2="1" />
<text style="fill:blue;text-anchor:middle;font-size:0.4;" x="0.0" y="1.2">47</text>
<line style="stroke-width:0.01;stroke:black;" x1="0.0" y1="1" x2="0.0" y2="2" />
<text style="fill:blue;text-anchor:middle;font-size:0.4;" x="0.0" y="2.2">51</text>
<line style="stroke-width:0.01;stroke:black;" x1="0.0" y1="2" x2="0.0" y2="3" />
<text style="fill:blue;text-anchor:middle;font-size:0.4;" x="0.0" y="3.2">44</text>
<line style="stroke-width:0.01;stroke:black;" x1="0.0" y1="3" x2="0.0" y2="4" />
<text style="fill:blue;text-anchor:middle;font-size:0.4;" x="0.0" y="4.2">53</text>
<line style="stroke-width:0.01;stroke:black;" x1="0.0" y1="4" x2="0.0" y2="5" />
<text style="fill:blue;text-anchor:middle;font-size:0.4;" x="0.0" y="5.2">39</text>
<line style="stroke-width:0.01;stroke:black;" x1="0.0" y1="5" x2="0.0" y2="6" />
<text style="fill:blue;text-anchor:middle;font-size:0.4;" x="0.0" y="6.2">59</text>
<line style="stroke-width:0.01;stroke:black;" x1="0.0" y1="6" x2="0.0" y2="7" />
<text style="fill:blue;text-anchor:middle;font-size:0.4;" x="0.0" y="7.2">35</text>
<line style="stroke-width:0.01;stroke:black;" x1="0.0" y1="7" x2="0.0" y2="8" />
<text style="fill:blue;text-anchor:middle;font-size:0.4;" x="0.0" y="8.2">28</text>
<line style="stroke-width:0.01;stroke:black;" x1="0.0" y1="8" x2="0.0" y2="9" />
<text style="fill:blue;text-anchor:middle;font-size:0.4;" x="0.0" y="9.2">68</text>
<line style="stroke-width:0.01;stroke:black;" x1="0.0" y1="9" x2="0.0" y2="10" />
<text style="fill:blue;text-anchor:middle;font-size:0.4;" x="0.0" y="10.2">25</text>
<line style="stroke-width:0.01;stroke:black;" x1="0.0" y1="10" x2="0.0" y2="11" />
<text style="fill:blue;text-anchor:middle;font-size:0.4;" x="0.0" y="11.2">62</text>
<line style="stroke-width:0.01;stroke:black;" x1="0.0" y1="11" x2="0.0" y2="12" />
<text style="fill:blue;text-anchor:middle;font-size:0.4;" x="0.0" y="12.2">32</text>
<line style="stroke-width:0.01;stroke:black;" x1="0.0" y1="12" x2="0.0" y2="13" />
<text style="fill:blue;text-anchor:middle;font-size:0.4;" x="0.0" y="13.2">65</text>
<line style="stroke-width:0.01;stroke:black;" x1="0.0" y1="13" x2="0.0" y2="14" />
<text style="fill:blue;text-anchor:middle;font-size:0.4;" x="0.0" y="14.2">29</text>
<line style="stroke-width:0.01;stroke:black;" x1="0.0" y1="14" x2="0.0" y2="15" />
<text style="fill:blue;text-anchor:middle;font-size:0.4;" x="0.0" y="15.2">66</text>
<line style="stroke-width:0.01;stroke:black;" x1="0.0" y1="15" x2="0.0" y2="16" />
<text style="fill:blue;text-anchor:middle;font-size:0.4;" x="0.0" y="16.2">27</text>
<line style="stroke-width:0.01;stroke:black;" x1="0.0" y1="16" x2="0.0" y2="17" />
<text style="fill:blue;text-anchor:middle;font-size:0.4;" x="0.0" y="17.2">26</text>
<line style="stroke-width:0.01;stroke:black;" x1="0.0" y1="17" x2="0.0" y2="18" />
<text style="fill:blue;text-anchor:middle;font-size:0.4;" x="0.0" y="18.2">61</text>
<line style="stroke-width:0.01;stroke:black;" x1="0.0" y1="18" x2="0.0" y2="19" />
<text style="fill:blue;text-anchor:middle;font-size:0.4;" x="0.0" y="19.2">63</text>
<line style="stroke-width:0.01;stroke:black;" x1="0.0" y1="19" x2="0.0" y2="20" />
<text style="fill:blue;text-anchor:middle;font-size:0.4;" x="0.0" y="20.2">31</text>
<line style="stroke-width:0.01;stroke:black;" x1="0.0" y1="20" x2="0.0" y2="21" />
<text style="fill:blue;text-anchor:middle;font-size:0.4;" x="0.0" y="21.2">64</text>
<line style="stroke-width:0.01;stroke:black;" x1="0.0" y1="21" x2="0.0" y2="22" />
<text style="fill:blue;text-anchor:middle;font-size:0.4;" x="0.0" y="22.2">76</text>
<line style="stroke-width:0.01;stroke:black;" x1="0.0" y1="22" x2="0.0" y2="23" />
<text style="fill:blue;text-anchor:middle;font-size:0.4;" x="0.0" y="23.2">70</text>
<line style="stroke-width:0.01;stroke:black;" x1="0.0" y1="23" x2="0.0" y2="24" />
<text style="fill:blue;text-anchor:middle;font-size:0.4;" x="0.0" y="24.2">77</text>
<line style="stroke-width:0.01;stroke:black;" x1="0.0" y1="24" x2="0.0" y2="25" />
<text style="fill:blue;text-anchor:middle;font-size:0.4;" x="0.0" y="25.2">74</text>
<line style="stroke-width:0.01;stroke:black;" x1="0.0" y1="25" x2="0.0" y2="26" />
<text style="fill:blue;text-anchor:middle;font-size:0.4;" x="0.0" y="26.2">19</text>
<line style="stroke-width:0.01;stroke:black;" x1="0.0" y1="26" x2="0.0" y2="27" />
<text style="fill:blue;text-anchor:middle;font-size:0.4;" x="0.0" y="27.2">20</text>
<line style="stroke-width:0.01;stroke:black;" x1="0.0" y1="27" x2="0.0" y2="28" />
<text style="fill:blue;text-anchor:middle;font-size:0.4;" x="0.0" y="28.2">18</text>
<line style="stroke-width:0.01;stroke:black;" x1="0.0" y1="28" x2="0.0" y2="29" />
<text style="fill:blue;text-anchor:middle;font-size:0.4;" x="0.0" y="29.2">78</text>
<line style="stroke-width:0.01;stroke:black;" x1="0.0" y1="29" x2="0.0" y2="30" />
<text style="fill:blue;text-anchor:middle;font-size:0.4;" x="0.0" y="30.2">79</text>
<line style="stroke-width:0.01;stroke:black;" x1="0.0" y1="30" x2="0.0" y2="31" />
<text style="fill:blue;text-anchor:middle;font-size:0.4;" x="0.0" y="31.2">24</text>
<line style="stroke-width:0.01;stroke:black;" x1="0.0" y1="31" x2="0.0" y2="32" />
<text style="fill:blue;text-anchor:middle;font-size:0.4;" x="0.0" y="32.2">80</text>
<line style="stroke-width:0.01;stroke:black;" x1="0.0" y1="32" x2="0.0" y2="33" />
<text style="fill:blue;text-anchor:middle;font-size:0.4;" x="0.0" y="33.2">17</text>
<line style="stroke-width:0.01;stroke:black;" x1="0.0" y1="33" x2="0.0" y2="34" />
<text style="fill:blue;text-anchor:middle;font-size:0.4;" x="0.0" y="34.2">21</text>
<line style="stroke-width:0.01;stroke:black;" x1="0.0" y1="34" x2="0.0" y2="35" />
<text style="fill:blue;text-anchor:middle;font-size:0.4;" x="0.0" y="35.2">82</text>
<line style="stroke-width:0.01;stroke:black;" x1="0.0" y1="35" x2="0.0" y2="36" />
<text style="fill:blue;text-anchor:middle;font-size:0.4;" x="0.0" y="36.2">81</text>
<line style="stroke-width:0.01;stroke:black;" x1="0.0" y1="36" x2="0.0" y2="37" />
<text style="fill:blue;text-anchor:middle;font-size:0.4;" x="0.0" y="37.2">15</text>
<line style="stroke-width:0.01;stroke:black;" x1="0.0" y1="37" x2="0.0" y2="38" />
<text style="fill:blue;text-anchor:middle;font-size:0.4;" x="0.0" y="38.2">75</text>
<line style="stroke-width:0.01;stroke:black;" x1="0.0" y1="38" x2="0.0" y2="39" />
<text style="fill:blue;text-anchor:middle;font-size:0.4;" x="0.0" y="39.2">11</text>
<line style="stroke-width:0.01;stroke:black;" x1="0.0" y1="39" x2="0.0" y2="40" />
<text style="fill:blue;text-anchor:middle;font-size:0.4;" x="0.0" y="40.2">84</text>
<line style="stroke-width:0.01;stroke:black;" x1="0.0" y1="40" x2="0.0" y2="41" />
<text style="fill:blue;text-anchor:middle;font-size:0.4;" x="0.0" y="41.2">14</text>
<line style="stroke-width:0.01;stroke:black;" x1="0.0" y1="41" x2="0.0" y2="42" />
<text style="fill:blue;text-anchor:middle;font-size:0.4;" x="0.0" y="42.2">16</text>
<line style="stroke-width:0.01;stroke:black;" x1="0.0" y1="42" x2="0.0" y2="43" />
<text style="fill:blue;text-anchor:middle;font-size:0.4;" x="0.0" y="43.2">12</text>
<line style="stroke-width:0.01;stroke:black;" x1="0.0" y1="43" x2="0.0" y2="44" />
<text style="fill:blue;text-anchor:middle;font-size:0.4;" x="0.0" y="44.2">6</text>
<line style="stroke-width:0.01;stroke:black;" x1="0.0" y1="44" x2="0.0" y2="45" />
<text style="fill:blue;text-anchor:middle;font-size:0.4;" x="0.0" y="45.2">9</text>
<line style="stroke-width:0.01;stroke:black;" x1="0.0" y1="45" x2="0.0" y2="46" />
<text style="fill:blue;text-anchor:middle;font-size:0.4;" x="0.0" y="46.2">30</text>
<line style="stroke-width:0.01;stroke:black;" x1="0.0" y1="46" x2="0.0" y2="47" />
<text style="fill:blue;text-anchor:middle;font-size:0.4;" x="0.0" y="47.2">71</text>
<line style="stroke-width:0.01;stroke:black;" x1="0.0" y1="47" x2="0.0" y2="48" />
<text style="fill:blue;text-anchor:middle;font-size:0.4;" x="0.0" y="48.2">83</text>
<line style="stroke-width:0.01;stroke:black;" x1="0.0" y1="48" x2="0.0" y2="49" />
<text style="fill:blue;text-anchor:middle;font-size:0.4;" x="0.0" y="49.2">92</text>
<line style="stroke-width:0.01;stroke:black;" x1="0.0" y1="49" x2="0.0" y2="50" />
<text style="fill:blue;text-anchor:middle;font-size:0.4;" x="0.0" y="50.2">93</text>
<line style="stroke-width:0.01;stroke:black;" x1="0.0" y1="50" x2="0.0" y2="51" />
<text style="fill:blue;text-anchor:middle;font-size:0.4;" x="0.0" y="51.2">69</text>
<line style="stroke-width:0.01;stroke:black;" x1="0.0" y1="51" x2="0.0" y2="52" />
<text style="fill:blue;text-anchor:middle;font-size:0.4;" x="0.0" y="52.2">5</text>
<line style="stroke-width:0.01;stroke:black;" x1="0.0" y1="52" x2="0.0" y2="53" />
<text style="fill:blue;text-anchor:middle;font-size:0.4;" x="0.0" y="53.2">3</text>
<line style="stroke-width:0.01;stroke:black;" x1="0.0" y1="53" x2="0.0" y2="54" />
<text style="fill:blue;text-anchor:middle;font-size:0.4;" x="0.0" y="54.2">72</text>
<line style="stroke-width:0.01;stroke:black;" x1="0.0" y1="54" x2="0.0" y2="55" />
<text style="fill:blue;text-anchor:middle;font-size:0.4;" x="0.0" y="55.2">1</text>
<line style="stroke-width:0.01;stroke:black;" x1="0.0" y1="55" x2="0.0" y2="56" />
<text style="fill:blue;text-anchor:middle;font-size:0.4;" x="0.0" y="56.2">73</text>
<line style="stroke-width:0.01;stroke:black;" x1="0.0" y1="56" x2="0.0" y2="57" />
<text style="fill:blue;text-anchor:middle;font-size:0.4;" x="0.0" y="57.2">2</text>
<line style="stroke-width:0.01;stroke:black;" x1="0.0" y1="57" x2="0.0" y2="58" />
<text style="fill:blue;text-anchor:middle;font-size:0.4;" x="0.0" y="58.2">22</text>
<line style="stroke-width:0.01;stroke:black;" x1="0.0" y1="58" x2="0.0" y2="59" />
<text style="fill:blue;text-anchor:middle;font-size:0.4;" x="0.0" y="59.2">4</text>
<line style="stroke-width:0.01;stroke:black;" x1="0.0" y1="59" x2="0.0" y2="60" />
<text style="fill:blue;text-anchor:middle;font-size:0.4;" x="0.0" y="60.2">85</text>
<line style="stroke-width:0.01;stroke:black;" x1="0.0" y1="60" x2="0.0" y2="61" />
<text style="fill:blue;text-anchor:middle;font-size:0.4;" x="0.0" y="61.2">8</text>
<line style="stroke-width:0.01;stroke:black;" x1="0.0" y1="61" x2="0.0" y2="62" />
<text style="fill:blue;text-anchor:middle;font-size:0.4;" x="0.0" y="62.2">94</text>
<line style="stroke-width:0.01;stroke:black;" x1="0.0" y1="62" x2="0.0" y2="63" />
<text style="fill:blue;text-anchor:middle;font-size:0.4;" x="0.0" y="63.2">13</text>
<line style="stroke-width:0.01;stroke:black;" x1="0.0" y1="63" x2="0.0" y2="64" />
<text style="fill:blue;text-anchor:middle;font-size:0.4;" x="0.0" y="64.2">10</text>
<line style="stroke-width:0.01;stroke:black;" x1="0.0" y1="64" x2="0.0" y2="65" />
<text style="fill:blue;text-anchor:middle;font-size:0.4;" x="0.0" y="65.2">86</text>
<line style="stroke-width:0.01;stroke:black;" x1="0.0" y1="65" x2="0.0" y2="66" />
<text style="fill:blue;text-anchor:middle;font-size:0.4;" x="0.0" y="66.2">87</text>
<line style="stroke-width:0.01;stroke:black;" x1="0.0" y1="66" x2="0.0" y2="67" />
<text style="fill:blue;text-anchor:middle;font-size:0.4;" x="0.0" y="67.2">88</text>
<line style="stroke-width:0.01;stroke:black;" x1="0.0" y1="67" x2="-1.25" y2="68" />
<text style="fill:blue;text-anchor:middle;font-size:0.4;" x="-1.25" y="68.2">7</text>
<line style="stroke-width:0.01;stroke:black;" x1="-1.25" y1="68" x2="-1.75" y2="69" />
<circle style="fill:red;stroke-width:0.01;stroke:black" cx="-1.75" cy="69" r="0.1" />
<line style="stroke-width:0.01;stroke:black;" x1="-1.25" y1="68" x2="-1.75" y2="69" />
<text style="fill:black;text-anchor:start;font-size:0.3;" x="-1.45" y="68.65">7</text>
<line style="stroke-width:0.01;stroke:black;" x1="-1.25" y1="68" x2="-0.75" y2="69" />
<text style="fill:blue;text-anchor:middle;font-size:0.4;" x="-0.75" y="69.2">89</text>
<line style="stroke-width:0.01;stroke:black;" x1="-0.75" y1="69" x2="-1.25" y2="70" />
<circle style="fill:red;stroke-width:0.01;stroke:black" cx="-1.25" cy="70" r="0.1" />
<line style="stroke-width:0.01;stroke:black;" x1="-0.75" y1="69" x2="-1.25" y2="70" />
<text style="fill:black;text-anchor:start;font-size:0.3;" x="-0.95" y="69.65">89</text>
<line style="stroke-width:0.01;stroke:black;" x1="-0.75" y1="69" x2="-0.25" y2="70" />
<circle style="fill:red;stroke-width:0.01;stroke:black" cx="-0.25" cy="70" r="0.1" />
<line style="stroke-width:0.01;stroke:black;" x1="-0.75" y1="69" x2="-0.25" y2="70" />
<text style="fill:black;text-anchor:start;font-size:0.3;" x="-0.45" y="69.65">17</text>
<line style="stroke-width:0.01;stroke:black;" x1="-1.25" y1="68" x2="-0.75" y2="69" />
<text style="fill:black;text-anchor:start;font-size:0.3;" x="-0.95" y="68.65">84</text>
<line style="stroke-width:0.01;stroke:black;" x1="0.0" y1="67" x2="-1.25" y2="68" />
<text style="fill:black;text-anchor:start;font-size:0.3;" x="-0.575" y="67.65">86</text>
<line style="stroke-width:0.01;stroke:black;" x1="0.0" y1="67" x2="1.25" y2="68" />
<text style="fill:blue;text-anchor:middle;font-size:0.4;" x="1.25" y="68.2">7</text>
<line style="stroke-width:0.01;stroke:black;" x1="1.25" y1="68" x2="1.25" y2="69" />
<text style="fill:blue;text-anchor:middle;font-size:0.4;" x="1.25" y="69.2">89</text>
<line style="stroke-width:0.01;stroke:black;" x1="1.25" y1="69" x2="0.75" y2="70" />
<circle style="fill:red;stroke-width:0.01;stroke:black" cx="0.75" cy="70" r="0.1" />
<line style="stroke-width:0.01;stroke:black;" x1="1.25" y1="69" x2="0.75" y2="70" />
<text style="fill:black;text-anchor:start;font-size:0.3;" x="1.05" y="69.65">87</text>
<line style="stroke-width:0.01;stroke:black;" x1="1.25" y1="69" x2="1.75" y2="70" />
<circle style="fill:red;stroke-width:0.01;stroke:black" cx="1.75" cy="70" r="0.1" />
<line style="stroke-width:0.01;stroke:black;" x1="1.25" y1="69" x2="1.75" y2="70" />
<text style="fill:black;text-anchor:start;font-size:0.3;" x="1.55" y="69.65">17</text>
<line style="stroke-width:0.01;stroke:black;" x1="1.25" y1="68" x2="1.25" y2="69" />
<text style="fill:black;text-anchor:start;font-size:0.3;" x="1.3" y="68.65">7</text>
<line style="stroke-width:0.01;stroke:black;" x1="0.0" y1="67" x2="1.25" y2="68" />
<text style="fill:black;text-anchor:start;font-size:0.3;" x="0.675" y="67.65">3</text>
<line style="stroke-width:0.01;stroke:black;" x1="0.0" y1="66" x2="0.0" y2="67" />
<text style="fill:black;text-anchor:start;font-size:0.3;" x="0.05" y="66.65">83</text>
<line style="stroke-width:0.01;stroke:black;" x1="0.0" y1="65" x2="0.0" y2="66" />
<text style="fill:black;text-anchor:start;font-size:0.3;" x="0.05" y="65.65">18</text>
<line style="stroke-width:0.01;stroke:black;" x1="0.0" y1="64" x2="0.0" y2="65" />
<text style="fill:black;text-anchor:start;font-size:0.3;" x="0.05" y="64.65">13</text>
<line style="stroke-width:0.01;stroke:black;" x1="0.0" y1="63" x2="0.0" y2="64" />
<text style="fill:black;text-anchor:start;font-size:0.3;" x="0.05" y="63.65">81</text>
<line style="stroke-width:0.01;stroke:black;" x1="0.0" y1="62" x2="0.0" y2="63" />
<text style="fill:black;text-anchor:start;font-size:0.3;" x="0.05" y="62.65">78</text>
<line style="stroke-width:0.01;stroke:black;" x1="0.0" y1="61" x2="0.0" y2="62" />
<text style="fill:black;text-anchor:start;font-size:0.3;" x="0.05" y="61.65">12</text>
<line style="stroke-width:0.01;stroke:black;" x1="0.0" y1="60" x2="0.0" y2="61" />
<text style="fill:black;text-anchor:start;font-size:0.3;" x="0.05" y="60.65">80</text>
<line style="stroke-width:0.01;stroke:black;" x1="0.0" y1="59" x2="0.0" y2="60" />
<text style="fill:black;text-anchor:start;font-size:0.3;" x="0.05" y="59.65">9</text>
<line style="stroke-width:0.01;stroke:black;" x1="0.0" y1="58" x2="0.0" y2="59" />
<text style="fill:black;text-anchor:start;font-size:0.3;" x="0.05" y="58.65">79</text>
<line style="stroke-width:0.01;stroke:black;" x1="0.0" y1="57" x2="0.0" y2="58" />
<text style="fill:black;text-anchor:start;font-size:0.3;" x="0.05" y="57.65">72</text>
<line style="stroke-width:0.01;stroke:black;" x1="0.0" y1="56" x2="0.0" y2="57" />
<text style="fill:black;text-anchor:start;font-size:0.3;" x="0.05" y="56.65">27</text>
<line style="stroke-width:0.01;stroke:black;" x1="0.0" y1="55" x2="0.0" y2="56" />
<text style="fill:black;text-anchor:start;font-size:0.3;" x="0.05" y="55.65">76</text>
<line style="stroke-width:0.01;stroke:black;" x1="0.0" y1="54" x2="0.0" y2="55" />
<text style="fill:black;text-anchor:start;font-size:0.3;" x="0.05" y="54.65">20</text>
<line style="stroke-width:0.01;stroke:black;" x1="0.0" y1="53" x2="0.0" y2="54" />
<text style="fill:black;text-anchor:start;font-size:0.3;" x="0.05" y="53.65">19</text>
<line style="stroke-width:0.01;stroke:black;" x1="0.0" y1="52" x2="0.0" y2="53" />
<text style="fill:black;text-anchor:start;font-size:0.3;" x="0.05" y="52.65">70</text>
<line style="stroke-width:0.01;stroke:black;" x1="0.0" y1="51" x2="0.0" y2="52" />
<text style="fill:black;text-anchor:start;font-size:0.3;" x="0.05" y="51.65">75</text>
<line style="stroke-width:0.01;stroke:black;" x1="0.0" y1="50" x2="0.0" y2="51" />
<text style="fill:black;text-anchor:start;font-size:0.3;" x="0.05" y="50.65">74</text>
<line style="stroke-width:0.01;stroke:black;" x1="0.0" y1="49" x2="0.0" y2="50" />
<text style="fill:black;text-anchor:start;font-size:0.3;" x="0.05" y="49.65">69</text>
<line style="stroke-width:0.01;stroke:black;" x1="0.0" y1="48" x2="0.0" y2="49" />
<text style="fill:black;text-anchor:start;font-size:0.3;" x="0.05" y="48.65">24</text>
<line style="stroke-width:0.01;stroke:black;" x1="0.0" y1="47" x2="0.0" y2="48" />
<text style="fill:black;text-anchor:start;font-size:0.3;" x="0.05" y="47.65">22</text>
<line style="stroke-width:0.01;stroke:black;" x1="0.0" y1="46" x2="0.0" y2="47" />
<text style="fill:black;text-anchor:start;font-size:0.3;" x="0.05" y="46.65">23</text>
<line style="stroke-width:0.01;stroke:black;" x1="0.0" y1="45" x2="0.0" y2="46" />
<text style="fill:black;text-anchor:start;font-size:0.3;" x="0.05" y="45.65">28</text>
<line style="stroke-width:0.01;stroke:black;" x1="0.0" y1="44" x2="0.0" y2="45" />
<text style="fill:black;text-anchor:start;font-size:0.3;" x="0.05" y="44.65">67</text>
<line style="stroke-width:0.01;stroke:black;" x1="0.0" y1="43" x2="0.0" y2="44" />
<text style="fill:black;text-anchor:start;font-size:0.3;" x="0.05" y="43.65">21</text>
<line style="stroke-width:0.01;stroke:black;" x1="0.0" y1="42" x2="0.0" y2="43" />
<text style="fill:black;text-anchor:start;font-size:0.3;" x="0.05" y="42.65">71</text>
<line style="stroke-width:0.01;stroke:black;" x1="0.0" y1="41" x2="0.0" y2="42" />
<text style="fill:black;text-anchor:start;font-size:0.3;" x="0.05" y="41.65">25</text>
<line style="stroke-width:0.01;stroke:black;" x1="0.0" y1="40" x2="0.0" y2="41" />
<text style="fill:black;text-anchor:start;font-size:0.3;" x="0.05" y="40.65">73</text>
<line style="stroke-width:0.01;stroke:black;" x1="0.0" y1="39" x2="0.0" y2="40" />
<text style="fill:black;text-anchor:start;font-size:0.3;" x="0.05" y="39.65">29</text>
<line style="stroke-width:0.01;stroke:black;" x1="0.0" y1="38" x2="0.0" y2="39" />
<text style="fill:black;text-anchor:start;font-size:0.3;" x="0.05" y="38.65">65</text>
<line style="stroke-width:0.01;stroke:black;" x1="0.0" y1="37" x2="0.0" y2="38" />
<text style="fill:black;text-anchor:start;font-size:0.3;" x="0.05" y="37.65">68</text>
<line style="stroke-width:0.01;stroke:black;" x1="0.0" y1="36" x2="0.0" y2="37" />
<text style="fill:black;text-anchor:start;font-size:0.3;" x="0.05" y="36.65">61</text>
<line style="stroke-width:0.01;stroke:black;" x1="0.0" y1="35" x2="0.0" y2="36" />
<text style="fill:black;text-anchor:start;font-size:0.3;" x="0.05" y="35.65">26</text>
<line style="stroke-width:0.01;stroke:black;" x1="0.0" y1="34" x2="0.0" y2="35" />
<text style="fill:black;text-anchor:start;font-size:0.3;" x="0.05" y="34.65">31</text>
<line style="stroke-width:0.01;stroke:black;" x1="0.0" y1="33" x2="0.0" y2="34" />
<text style="fill:black;text-anchor:start;font-size:0.3;" x="0.05" y="33.65">30</text>
<line style="stroke-width:0.01;stroke:black;" x1="0.0" y1="32" x2="0.0" y2="33" />
<text style="fill:black;text-anchor:start;font-size:0.3;" x="0.05" y="32.65">66</text>
<line style="stroke-width:0.01;stroke:black;" x1="0.0" y1="31" x2="0.0" y2="32" />
<text style="fill:black;text-anchor:start;font-size:0.3;" x="0.05" y="31.65">64</text>
<line style="stroke-width:0.01;stroke:black;" x1="0.0" y1="30" x2="0.0" y2="31" />
<text style="fill:black;text-anchor:start;font-size:0.3;" x="0.05" y="30.65">32</text>
<line style="stroke-width:0.01;stroke:black;" x1="0.0" y1="29" x2="0.0" y2="30" />
<text style="fill:black;text-anchor:start;font-size:0.3;" x="0.05" y="29.65">63</text>
<line style="stroke-width:0.01;stroke:black;" x1="0.0" y1="28" x2="0.0" y2="29" />
<text style="fill:black;text-anchor:start;font-size:0.3;" x="0.05" y="28.65">33</text>
<line style="stroke-width:0.01;stroke:black;" x1="0.0" y1="27" x2="0.0" y2="28" />
<text style="fill:black;text-anchor:start;font-size:0.3;" x="0.05" y="27.65">34</text>
<line style="stroke-width:0.01;stroke:black;" x1="0.0" y1="26" x2="0.0" y2="27" />
<text style="fill:black;text-anchor:start;font-size:0.3;" x="0.05" y="26.65">62</text>
<line style="stroke-width:0.01;stroke:black;" x1="0.0" y1="25" x2="0.0" y2="26" />
<text style="fill:black;text-anchor:start;font-size:0.3;" x="0.05" y="25.65">35</text>
<line style="stroke-width:0.01;stroke:black;" x1="0.0" y1="24" x2="0.0" y2="25" />
<text style="fill:black;text-anchor:start;font-size:0.3;" x="0.05" y="24.65">60</text>
<line style="stroke-width:0.01;stroke:black;" x1="0.0" y1="23" x2="0.0" y2="24" />
<text style="fill:black;text-anchor:start;font-size:0.3;" x="0.05" y="23.65">58</text>
<line style="stroke-width:0.01;stroke:black;" x1="0.0" y1="22" x2="0.0" y2="23" />
<text style="fill:black;text-anchor:start;font-size:0.3;" x="0.05" y="22.65">36</text>
<line style="stroke-width:0.01;stroke:black;" x1="0.0" y1="21" x2="0.0" y2="22" />
<text style="fill:black;text-anchor:start;font-size:0.3;" x="0.05" y="21.65">38</text>
<line style="stroke-width:0.01;stroke:black;" x1="0.0" y1="20" x2="0.0" y2="21" />
<text style="fill:black;text-anchor:start;font-size:0.3;" x="0.05" y="20.65">59</text>
<line style="stroke-width:0.01;stroke:black;" x1="0.0" y1="19" x2="0.0" y2="20" />
<text style="fill:black;text-anchor:start;font-size:0.3;" x="0.05" y="19.65">57</text>
<line style="stroke-width:0.01;stroke:black;" x1="0.0" y1="18" x2="0.0" y2="19" />
<text style="fill:black;text-anchor:start;font-size:0.3;" x="0.05" y="18.65">37</text>
<line style="stroke-width:0.01;stroke:black;" x1="0.0" y1="17" x2="0.0" y2="18" />
<text style="fill:black;text-anchor:start;font-size:0.3;" x="0.05" y="17.65">56</text>
<line style="stroke-width:0.01;stroke:black;" x1="0.0" y1="16" x2="0.0" y2="17" />
<text style="fill:black;text-anchor:start;font-size:0.3;" x="0.05" y="16.65">39</text>
<line style="stroke-width:0.01;stroke:black;" x1="0.0" y1="15" x2="0.0" y2="16" />
<text style="fill:black;text-anchor:start;font-size:0.3;" x="0.05" y="15.65">53</text>
<line style="stroke-width:0.01;stroke:black;" x1="0.0" y1="14" x2="0.0" y2="15" />
<text style="fill:black;text-anchor:start;font-size:0.3;" x="0.05" y="14.65">55</text>
<line style="stroke-width:0.01;stroke:black;" x1="0.0" y1="13" x2="0.0" y2="14" />
<text style="fill:black;text-anchor:start;font-size:0.3;" x="0.05" y="13.65">40</text>
<line style="stroke-width:0.01;stroke:black;" x1="0.0" y1="12" x2="0.0" y2="13" />
<text style="fill:black;text-anchor:start;font-size:0.3;" x="0.05" y="12.65">54</text>
<line style="stroke-width:0.01;stroke:black;" x1="0.0" y1="11" x2="0.0" y2="12" />
<text style="fill:black;text-anchor:start;font-size:0.3;" x="0.05" y="11.65">41</text>
<line style="stroke-width:0.01;stroke:black;" x1="0.0" y1="10" x2="0.0" y2="11" />
<text style="fill:black;text-anchor:start;font-size:0.3;" x="0.05" y="10.65">42</text>
<line style="stroke-width:0.01;stroke:black;" x1="0.0" y1="9" x2="0.0" y2="10" />
<text style="fill:black;text-anchor:start;font-size:0.3;" x="0.05" y="9.65">50</text>
<line style="stroke-width:0.01;stroke:black;" x1="0.0" y1="8" x2="0.0" y2="9" />
<text style="fill:black;text-anchor:start;font-size:0.3;" x="0.05" y="8.65">52</text>
<line style="stroke-width:0.01;stroke:black;" x1="0.0" y1="7" x2="0.0" y2="8" />
<text style="fill:black;text-anchor:start;font-size:0.3;" x="0.05" y="7.65">43</text>
<line style="stroke-width:0.01;stroke:black;" x1="0.0" y1="6" x2="0.0" y2="7" />
<text style="fill:black;text-anchor:start;font-size:0.3;" x="0.05" y="6.65">51</text>
<line style="stroke-width:0.01;stroke:black;" x1="0.0" y1="5" x2="0.0" y2="6" />
<text style="fill:black;text-anchor:start;font-size:0.3;" x="0.05" y="5.65">46</text>
<line style="stroke-width:0.01;stroke:black;" x1="0.0" y1="4" x2="0.0" y2="5" />
<text style="fill:black;text-anchor:start;font-size:0.3;" x="0.05" y="4.65">44</text>
<line style="stroke-width:0.01;stroke:black;" x1="0.0" y1="3" x2="0.0" y2="4" />
<text style="fill:black;text-anchor:start;font-size:0.3;" x="0.05" y="3.65">45</text>
<line style="stroke-width:0.01;stroke:black;" x1="0.0" y1="2" x2="0.0" y2="3" />
<text style="fill:black;text-anchor:start;font-size:0.3;" x="0.05" y="2.65">48</text>
<line style="stroke-width:0.01;stroke:black;" x1="0.0" y1="1" x2="0.0" y2="2" />
<text style="fill:black;text-anchor:start;font-size:0.3;" x="0.05" y="1.65">49</text>
<line style="stroke-width:0.01;stroke:black;" x1="0" y1="0" x2="0.0" y2="1" />
<text style="fill:black;text-anchor:start;font-size:0.3;" x="0.05" y="0.65">47</text>
</svg>
