<?xml version="1.0" encoding="UTF-8" standalone="no"?>
<!DOCTYPE svg PUBLIC "-//W3C//DTD SVG 1.1//EN"
 "http://www.w3.org/Graphics/SVG/1.1/DTD/svg11.dtd">
<svg
   xmlns:svg="http://www.w3.org/2000/svg"
   xmlns="http://www.w3.org/2000/svg"
   version="1.1"
   width="800px"
   height="800px"
   viewBox="-2.0 -1 5.0 13">
<text style="fill:blue;text-anchor:middle;font-size:0.4;" x="0" y="0.2">9</text>
<line style="stroke-width:0.01;stroke:black;" x1="0" y1="0" x2="0.0" y2="1" />
<text style="fill:blue;text-anchor:middle;font-size:0.4;" x="0.0" y="1.2">8</text>
<line style="stroke-width:0.01;stroke:black;" x1="0.0" y1="1" x2="0.0" y2="2" />
<text style="fill:blue;text-anchor:middle;font-size:0.4;" x="0.0" y="2.2">12</text>
<line style="stroke-width:0.01;stroke:black;" x1="0.0" y1="2" x2="0.0" y2="3" />
<text style="fill:blue;text-anchor:middle;font-size:0.4;" x="0.0" y="3.2">5</text>
<line style="stroke-width:0.01;stroke:black;" x1="0.0" y1="3" x2="0.0" y2="4" />
<text style="fill:blue;text-anchor:middle;font-size:0.4;" x="0.0" y="4.2">14</text>
<line style="stroke-width:0.01;stroke:black;" x1="0.0" y1="4" x2="0.0" y2="5" />
<text style="fill:blue;text-anchor:middle;font-size:0.4;" x="0.0" y="5.2">6</text>
<line style="stroke-width:0.01;stroke:black;" x1="0.0" y1="5" x2="0.0" y2="6" />
<text style="fill:blue;text-anchor:middle;font-size:0.4;" x="0.0" y="6.2">4</text>
<line style="stroke-width:0.01;stroke:black;" x1="0.0" y1="6" x2="-1.0" y2="7" />
<circle style="fill:red;stroke-width:0.01;stroke:black" cx="-1.0" cy="7" r="0.1" />
<line style="stroke-width:0.01;stroke:black;" x1="0.0" y1="6" x2="-1.0" y2="7" />
<text style="fill:black;text-anchor:start;font-size:0.3;" x="-0.45" y="6.65">12</text>
<line style="stroke-width:0.01;stroke:black;" x1="0.0" y1="6" x2="0.0" y2="7" />
<polygon style="fill:red;stroke-width:0.01;stroke:black;" points="0.0,7 0.5,7.5 -0.5,7.5" />
<text style="fill:black;text-anchor:middle;font-size:0.2;" x="0.0" y="7.45">3</text>
<text style="fill:black;text-anchor:start;font-size:0.2;" x="-0.45" y="7.75">4</text>
<line style="stroke-width:0.01;stroke:black;" x1="0.0" y1="6" x2="0.0" y2="7" />
<text style="fill:black;text-anchor:start;font-size:0.3;" x="0.05" y="6.65">11</text>
<line style="stroke-width:0.01;stroke:black;" x1="0.0" y1="6" x2="1.0" y2="7" />
<text style="fill:blue;text-anchor:middle;font-size:0.4;" x="1.0" y="7.2">16</text>
<line style="stroke-width:0.01;stroke:black;" x1="1.0" y1="7" x2="1.0" y2="8" />
<text style="fill:blue;text-anchor:middle;font-size:0.4;" x="1.0" y="8.2">7</text>
<line style="stroke-width:0.01;stroke:black;" x1="1.0" y1="8" x2="0.0" y2="9" />
<circle style="fill:red;stroke-width:0.01;stroke:black" cx="0.0" cy="9" r="0.1" />
<line style="stroke-width:0.01;stroke:black;" x1="1.0" y1="8" x2="0.0" y2="9" />
<text style="fill:black;text-anchor:start;font-size:0.3;" x="0.55" y="8.65">7</text>
<line style="stroke-width:0.01;stroke:black;" x1="1.0" y1="8" x2="1.0" y2="9" />
<polygon style="fill:red;stroke-width:0.01;stroke:black;" points="1.0,9 1.5,9.5 0.5,9.5" />
<text style="fill:black;text-anchor:middle;font-size:0.2;" x="1.0" y="9.45">2</text>
<text style="fill:black;text-anchor:start;font-size:0.2;" x="0.55" y="9.75">3</text>
<line style="stroke-width:0.01;stroke:black;" x1="1.0" y1="8" x2="1.0" y2="9" />
<text style="fill:black;text-anchor:start;font-size:0.3;" x="1.05" y="8.65">15</text>
<line style="stroke-width:0.01;stroke:black;" x1="1.0" y1="8" x2="2.0" y2="9" />
<text style="fill:blue;text-anchor:middle;font-size:0.4;" x="2.0" y="9.2">15</text>
<line style="stroke-width:0.01;stroke:black;" x1="2.0" y1="9" x2="2.0" y2="10" />
<text style="fill:blue;text-anchor:middle;font-size:0.4;" x="2.0" y="10.2">11</text>
<line style="stroke-width:0.01;stroke:black;" x1="2.0" y1="10" x2="2.0" y2="11" />
<circle style="fill:green;stroke-width:0.01;stroke:black" cx="2.0" cy="11" r="0.2" />
<line style="stroke-width:0.01;stroke:black;" x1="2.0" y1="10" x2="2.0" y2="11" />
<text style="fill:black;text-anchor:start;font-size:0.3;" x="2.05" y="10.65">3</text>
<line style="stroke-width:0.01;stroke:black;" x1="2.0" y1="9" x2="2.0" y2="10" />
<text style="fill:black;text-anchor:start;font-size:0.3;" x="2.05" y="9.65">15</text>
<line style="stroke-width:0.01;stroke:black;" x1="1.0" y1="8" x2="2.0" y2="9" />
<text style="fill:black;text-anchor:start;font-size:0.3;" x="1.55" y="8.65">1</text>
<line style="stroke-width:0.01;stroke:black;" x1="1.0" y1="7" x2="1.0" y2="8" />
<text style="fill:black;text-anchor:start;font-size:0.3;" x="1.05" y="7.65">11</text>
<line style="stroke-width:0.01;stroke:black;" x1="0.0" y1="6" x2="1.0" y2="7" />
<text style="fill:black;text-anchor:start;font-size:0.3;" x="0.55" y="6.65">16</text>
<line style="stroke-width:0.01;stroke:black;" x1="0.0" y1="5" x2="0.0" y2="6" />
<text style="fill:black;text-anchor:start;font-size:0.3;" x="0.05" y="5.65">4</text>
<line style="stroke-width:0.01;stroke:black;" x1="0.0" y1="4" x2="0.0" y2="5" />
<text style="fill:black;text-anchor:start;font-size:0.3;" x="0.05" y="4.65">5</text>
<line style="stroke-width:0.01;stroke:black;" x1="0.0" y1="3" x2="0.0" y2="4" />
<text style="fill:black;text-anchor:start;font-size:0.3;" x="0.05" y="3.65">6</text>
<line style="stroke-width:0.01;stroke:black;" x1="0.0" y1="2" x2="0.0" y2="3" />
<text style="fill:black;text-anchor:start;font-size:0.3;" x="0.05" y="2.65">9</text>
<line style="stroke-width:0.01;stroke:black;" x1="0.0" y1="1" x2="0.0" y2="2" />
<text style="fill:black;text-anchor:start;font-size:0.3;" x="0.05" y="1.65">10</text>
<line style="stroke-width:0.01;stroke:black;" x1="0" y1="0" x2="0.0" y2="1" />
<text style="fill:black;text-anchor:start;font-size:0.3;" x="0.05" y="0.65">8</text>
</svg>
