<?xml version="1.0" encoding="UTF-8" standalone="no"?>
<svg
   xmlns:svg="http://www.w3.org/2000/svg"
   xmlns="http://www.w3.org/2000/svg"
   version="1.0"
   width="800px"
   height="800.0px"
   viewBox="0 0 16 16">
<g>
<path d="M0,0 l0,16 M1,0 l0,16 M2,0 l0,16 M3,0 l0,16 M4,0 l0,16 M5,0 l0,16 M6,0 l0,16 M7,0 l0,16 M8,0 l0,16 M9,0 l0,16 M10,0 l0,16 M11,0 l0,16 M12,0 l0,16 M13,0 l0,16 M14,0 l0,16 M15,0 l0,16 M16,0 l0,16 M0,0 l16,0 M0,1 l16,0 M0,2 l16,0 M0,3 l16,0 M0,4 l16,0 M0,5 l16,0 M0,6 l16,0 M0,7 l16,0 M0,8 l16,0 M0,9 l16,0 M0,10 l16,0 M0,11 l16,0 M0,12 l16,0 M0,13 l16,0 M0,14 l16,0 M0,15 l16,0 M0,16 l16,0 " style="stroke-width:0.05;stroke:#000000;fill:none"/>
<rect x="0" y="0" width="1" height="1" style="stroke-width:0.05;stroke:#000000;fill:#FF8080;"/>
<rect x="1" y="2" width="1" height="1" style="stroke-width:0.05;stroke:#000000;fill:#FF8080;"/>
<rect x="2" y="4" width="1" height="1" style="stroke-width:0.05;stroke:#000000;fill:#FF8080;"/>
<rect x="3" y="1" width="1" height="1" style="stroke-width:0.05;stroke:#000000;fill:#FF8080;"/>
<rect x="4" y="10" width="1" height="1" style="stroke-width:0.05;stroke:#000000;fill:#FF8080;"/>
<rect x="5" y="14" width="1" height="1" style="stroke-width:0.05;stroke:#000000;fill:#FF8080;"/>
<rect x="6" y="9" width="1" height="1" style="stroke-width:0.05;stroke:#000000;fill:#FF8080;"/>
<rect x="7" y="3" width="1" height="1" style="stroke-width:0.05;stroke:#000000;fill:#FF0000;"/>
<rect x="8" y="3" width="1" height="1" style="stroke-width:0.05;stroke:#000000;fill:#4040D0;"/>
<rect x="8" y="5" width="1" height="1" style="stroke-width:0.05;stroke:#000000;fill:#00FF00;"/>
<rect x="8" y="12" width="1" height="1" style="stroke-width:0.05;stroke:#000000;fill:#00FF00;"/>
<rect x="8" y="13" width="1" height="1" style="stroke-width:0.05;stroke:#000000;fill:#00FF00;"/>
<rect x="8" y="15" width="1" height="1" style="stroke-width:0.05;stroke:#000000;fill:#00FF00;"/>
<rect x="9" y="3" width="1" height="1" style="stroke-width:0.05;stroke:#000000;fill:#4040D0;"/>
<rect x="9" y="8" width="1" height="1" style="stroke-width:0.05;stroke:#000000;fill:#00FF00;"/>
<rect x="9" y="13" width="1" height="1" style="stroke-width:0.05;stroke:#000000;fill:#00FF00;"/>
<rect x="10" y="3" width="1" height="1" style="stroke-width:0.05;stroke:#000000;fill:#4040D0;"/>
<rect x="10" y="6" width="1" height="1" style="stroke-width:0.05;stroke:#000000;fill:#4040D0;"/>
<rect x="10" y="7" width="1" height="1" style="stroke-width:0.05;stroke:#000000;fill:#00FF00;"/>
<rect x="10" y="15" width="1" height="1" style="stroke-width:0.05;stroke:#000000;fill:#00FF00;"/>
<rect x="11" y="5" width="1" height="1" style="stroke-width:0.05;stroke:#000000;fill:#00FF00;"/>
<rect x="11" y="6" width="1" height="1" style="stroke-width:0.05;stroke:#000000;fill:#00FF00;"/>
<rect x="11" y="7" width="1" height="1" style="stroke-width:0.05;stroke:#000000;fill:#4040D0;"/>
<rect x="11" y="15" width="1" height="1" style="stroke-width:0.05;stroke:#000000;fill:#00FF00;"/>
<rect x="12" y="5" width="1" height="1" style="stroke-width:0.05;stroke:#000000;fill:#00FF00;"/>
<rect x="12" y="6" width="1" height="1" style="stroke-width:0.05;stroke:#000000;fill:#00FF00;"/>
<rect x="12" y="8" width="1" height="1" style="stroke-width:0.05;stroke:#000000;fill:#4040D0;"/>
<rect x="12" y="11" width="1" height="1" style="stroke-width:0.05;stroke:#000000;fill:#00FF00;"/>
<rect x="13" y="3" width="1" height="1" style="stroke-width:0.05;stroke:#000000;fill:#4040D0;"/>
<rect x="13" y="5" width="1" height="1" style="stroke-width:0.05;stroke:#000000;fill:#00FF00;"/>
<rect x="13" y="7" width="1" height="1" style="stroke-width:0.05;stroke:#000000;fill:#00FF00;"/>
<rect x="13" y="8" width="1" height="1" style="stroke-width:0.05;stroke:#000000;fill:#00FF00;"/>
<rect x="13" y="12" width="1" height="1" style="stroke-width:0.05;stroke:#000000;fill:#00FF00;"/>
<rect x="14" y="3" width="1" height="1" style="stroke-width:0.05;stroke:#000000;fill:#4040D0;"/>
<rect x="14" y="6" width="1" height="1" style="stroke-width:0.05;stroke:#000000;fill:#00FF00;"/>
<rect x="14" y="7" width="1" height="1" style="stroke-width:0.05;stroke:#000000;fill:#00FF00;"/>
<rect x="14" y="8" width="1" height="1" style="stroke-width:0.05;stroke:#000000;fill:#00FF00;"/>
<rect x="14" y="11" width="1" height="1" style="stroke-width:0.05;stroke:#000000;fill:#00FF00;"/>
<rect x="14" y="13" width="1" height="1" style="stroke-width:0.05;stroke:#000000;fill:#00FF00;"/>
<rect x="15" y="3" width="1" height="1" style="stroke-width:0.05;stroke:#000000;fill:#4040D0;"/>
<rect x="15" y="5" width="1" height="1" style="stroke-width:0.05;stroke:#000000;fill:#00FF00;"/>
<rect x="15" y="6" width="1" height="1" style="stroke-width:0.05;stroke:#000000;fill:#00FF00;"/>
<rect x="15" y="7" width="1" height="1" style="stroke-width:0.05;stroke:#000000;fill:#00FF00;"/>
<rect x="15" y="8" width="1" height="1" style="stroke-width:0.05;stroke:#000000;fill:#00FF00;"/>
<rect x="15" y="11" width="1" height="1" style="stroke-width:0.05;stroke:#000000;fill:#4040D0;"/>
<rect x="15" y="12" width="1" height="1" style="stroke-width:0.05;stroke:#000000;fill:#00FF00;"/>
<rect x="7" y="0" width="1" height="16" style="stroke-width:0.1;stroke:#FFFF00;fill:none"/>
</g>
</svg>
