<?xml version="1.0" encoding="UTF-8" standalone="no"?>
<svg
   xmlns:svg="http://www.w3.org/2000/svg"
   xmlns="http://www.w3.org/2000/svg"
   version="1.0"
   width="800px"
   height="800px"
   viewBox="-10.625 -1 20.5 7">
<text style="fill:blue;text-anchor:middle;font-size:0.4;" x="0" y="0.2">1</text>
<line style="stroke-width:0.01;stroke:black;" x1="0" y1="0" x2="0.0" y2="1" />
<text style="fill:blue;text-anchor:middle;font-size:0.4;" x="0.0" y="1.2">2</text>
<line style="stroke-width:0.01;stroke:black;" x1="0.0" y1="1" x2="-7.125" y2="2" />
<text style="fill:blue;text-anchor:middle;font-size:0.4;" x="-7.125" y="2.2">3</text>
<line style="stroke-width:0.01;stroke:black;" x1="-7.125" y1="2" x2="-9.625" y2="3" />
<circle style="fill:red;stroke-width:0.01;stroke:black" cx="-9.625" cy="3" r="0.1" />
<line style="stroke-width:0.01;stroke:black;" x1="-7.125" y1="2" x2="-9.625" y2="3" />
<text style="fill:black;text-anchor:left;font-size:0.3;" x="-8.325" y="2.65">5</text>
<line style="stroke-width:0.01;stroke:black;" x1="-7.125" y1="2" x2="-8.625" y2="3" />
<text style="fill:blue;text-anchor:middle;font-size:0.4;" x="-8.625" y="3.2">4</text>
<line style="stroke-width:0.01;stroke:black;" x1="-8.625" y1="3" x2="-9.125" y2="4" />
<circle style="fill:red;stroke-width:0.01;stroke:black" cx="-9.125" cy="4" r="0.1" />
<line style="stroke-width:0.01;stroke:black;" x1="-8.625" y1="3" x2="-9.125" y2="4" />
<text style="fill:black;text-anchor:left;font-size:0.3;" x="-8.825" y="3.65">2</text>
<line style="stroke-width:0.01;stroke:black;" x1="-8.625" y1="3" x2="-8.125" y2="4" />
<circle style="fill:red;stroke-width:0.01;stroke:black" cx="-8.125" cy="4" r="0.1" />
<line style="stroke-width:0.01;stroke:black;" x1="-8.625" y1="3" x2="-8.125" y2="4" />
<text style="fill:black;text-anchor:left;font-size:0.3;" x="-8.325" y="3.65">8</text>
<line style="stroke-width:0.01;stroke:black;" x1="-7.125" y1="2" x2="-8.625" y2="3" />
<text style="fill:black;text-anchor:left;font-size:0.3;" x="-7.825" y="2.65">6</text>
<line style="stroke-width:0.01;stroke:black;" x1="-7.125" y1="2" x2="-6.625" y2="3" />
<text style="fill:blue;text-anchor:middle;font-size:0.4;" x="-6.625" y="3.2">5</text>
<line style="stroke-width:0.01;stroke:black;" x1="-6.625" y1="3" x2="-7.125" y2="4" />
<circle style="fill:red;stroke-width:0.01;stroke:black" cx="-7.125" cy="4" r="0.1" />
<line style="stroke-width:0.01;stroke:black;" x1="-6.625" y1="3" x2="-7.125" y2="4" />
<text style="fill:black;text-anchor:left;font-size:0.3;" x="-6.825" y="3.65">4</text>
<line style="stroke-width:0.01;stroke:black;" x1="-6.625" y1="3" x2="-6.125" y2="4" />
<circle style="fill:red;stroke-width:0.01;stroke:black" cx="-6.125" cy="4" r="0.1" />
<line style="stroke-width:0.01;stroke:black;" x1="-6.625" y1="3" x2="-6.125" y2="4" />
<text style="fill:black;text-anchor:left;font-size:0.3;" x="-6.325" y="3.65">8</text>
<line style="stroke-width:0.01;stroke:black;" x1="-7.125" y1="2" x2="-6.625" y2="3" />
<text style="fill:black;text-anchor:left;font-size:0.3;" x="-6.825" y="2.65">7</text>
<line style="stroke-width:0.01;stroke:black;" x1="-7.125" y1="2" x2="-4.625" y2="3" />
<text style="fill:blue;text-anchor:middle;font-size:0.4;" x="-4.625" y="3.2">4</text>
<line style="stroke-width:0.01;stroke:black;" x1="-4.625" y1="3" x2="-5.125" y2="4" />
<circle style="fill:red;stroke-width:0.01;stroke:black" cx="-5.125" cy="4" r="0.1" />
<line style="stroke-width:0.01;stroke:black;" x1="-4.625" y1="3" x2="-5.125" y2="4" />
<text style="fill:black;text-anchor:left;font-size:0.3;" x="-4.825" y="3.65">2</text>
<line style="stroke-width:0.01;stroke:black;" x1="-4.625" y1="3" x2="-4.125" y2="4" />
<circle style="fill:red;stroke-width:0.01;stroke:black" cx="-4.125" cy="4" r="0.1" />
<line style="stroke-width:0.01;stroke:black;" x1="-4.625" y1="3" x2="-4.125" y2="4" />
<text style="fill:black;text-anchor:left;font-size:0.3;" x="-4.325" y="3.65">6</text>
<line style="stroke-width:0.01;stroke:black;" x1="-7.125" y1="2" x2="-4.625" y2="3" />
<text style="fill:black;text-anchor:left;font-size:0.3;" x="-5.825" y="2.65">8</text>
<line style="stroke-width:0.01;stroke:black;" x1="0.0" y1="1" x2="-7.125" y2="2" />
<text style="fill:black;text-anchor:left;font-size:0.3;" x="-3.5125" y="1.65">3</text>
<line style="stroke-width:0.01;stroke:black;" x1="0.0" y1="1" x2="0.375" y2="2" />
<text style="fill:blue;text-anchor:middle;font-size:0.4;" x="0.375" y="2.2">3</text>
<line style="stroke-width:0.01;stroke:black;" x1="0.375" y1="2" x2="-2.625" y2="3" />
<text style="fill:blue;text-anchor:middle;font-size:0.4;" x="-2.625" y="3.2">6</text>
<line style="stroke-width:0.01;stroke:black;" x1="-2.625" y1="3" x2="-3.125" y2="4" />
<circle style="fill:red;stroke-width:0.01;stroke:black" cx="-3.125" cy="4" r="0.1" />
<line style="stroke-width:0.01;stroke:black;" x1="-2.625" y1="3" x2="-3.125" y2="4" />
<text style="fill:black;text-anchor:left;font-size:0.3;" x="-2.825" y="3.65">3</text>
<line style="stroke-width:0.01;stroke:black;" x1="-2.625" y1="3" x2="-2.125" y2="4" />
<circle style="fill:red;stroke-width:0.01;stroke:black" cx="-2.125" cy="4" r="0.1" />
<line style="stroke-width:0.01;stroke:black;" x1="-2.625" y1="3" x2="-2.125" y2="4" />
<text style="fill:black;text-anchor:left;font-size:0.3;" x="-2.325" y="3.65">7</text>
<line style="stroke-width:0.01;stroke:black;" x1="0.375" y1="2" x2="-2.625" y2="3" />
<text style="fill:black;text-anchor:left;font-size:0.3;" x="-1.075" y="2.65">2</text>
<line style="stroke-width:0.01;stroke:black;" x1="0.375" y1="2" x2="-0.625" y2="3" />
<text style="fill:blue;text-anchor:middle;font-size:0.4;" x="-0.625" y="3.2">4</text>
<line style="stroke-width:0.01;stroke:black;" x1="-0.625" y1="3" x2="-1.125" y2="4" />
<circle style="fill:red;stroke-width:0.01;stroke:black" cx="-1.125" cy="4" r="0.1" />
<line style="stroke-width:0.01;stroke:black;" x1="-0.625" y1="3" x2="-1.125" y2="4" />
<text style="fill:black;text-anchor:left;font-size:0.3;" x="-0.825" y="3.65">3</text>
<line style="stroke-width:0.01;stroke:black;" x1="-0.625" y1="3" x2="-0.125" y2="4" />
<circle style="fill:red;stroke-width:0.01;stroke:black" cx="-0.125" cy="4" r="0.1" />
<line style="stroke-width:0.01;stroke:black;" x1="-0.625" y1="3" x2="-0.125" y2="4" />
<text style="fill:black;text-anchor:left;font-size:0.3;" x="-0.325" y="3.65">8</text>
<line style="stroke-width:0.01;stroke:black;" x1="0.375" y1="2" x2="-0.625" y2="3" />
<text style="fill:black;text-anchor:left;font-size:0.3;" x="-0.075" y="2.65">6</text>
<line style="stroke-width:0.01;stroke:black;" x1="0.375" y1="2" x2="1.375" y2="3" />
<text style="fill:blue;text-anchor:middle;font-size:0.4;" x="1.375" y="3.2">4</text>
<line style="stroke-width:0.01;stroke:black;" x1="1.375" y1="3" x2="0.875" y2="4" />
<text style="fill:blue;text-anchor:middle;font-size:0.4;" x="0.875" y="4.2">5</text>
<line style="stroke-width:0.01;stroke:black;" x1="0.875" y1="4" x2="0.375" y2="5" />
<circle style="fill:red;stroke-width:0.01;stroke:black" cx="0.375" cy="5" r="0.1" />
<line style="stroke-width:0.01;stroke:black;" x1="0.875" y1="4" x2="0.375" y2="5" />
<text style="fill:black;text-anchor:left;font-size:0.3;" x="0.675" y="4.65">6</text>
<line style="stroke-width:0.01;stroke:black;" x1="0.875" y1="4" x2="1.375" y2="5" />
<circle style="fill:red;stroke-width:0.01;stroke:black" cx="1.375" cy="5" r="0.1" />
<line style="stroke-width:0.01;stroke:black;" x1="0.875" y1="4" x2="1.375" y2="5" />
<text style="fill:black;text-anchor:left;font-size:0.3;" x="1.175" y="4.65">8</text>
<line style="stroke-width:0.01;stroke:black;" x1="1.375" y1="3" x2="0.875" y2="4" />
<text style="fill:black;text-anchor:left;font-size:0.3;" x="1.175" y="3.65">3</text>
<line style="stroke-width:0.01;stroke:black;" x1="1.375" y1="3" x2="1.875" y2="4" />
<circle style="fill:red;stroke-width:0.01;stroke:black" cx="1.875" cy="4" r="0.1" />
<line style="stroke-width:0.01;stroke:black;" x1="1.375" y1="3" x2="1.875" y2="4" />
<text style="fill:black;text-anchor:left;font-size:0.3;" x="1.675" y="3.65">5</text>
<line style="stroke-width:0.01;stroke:black;" x1="0.375" y1="2" x2="1.375" y2="3" />
<text style="fill:black;text-anchor:left;font-size:0.3;" x="0.925" y="2.65">7</text>
<line style="stroke-width:0.01;stroke:black;" x1="0.375" y1="2" x2="3.375" y2="3" />
<text style="fill:blue;text-anchor:middle;font-size:0.4;" x="3.375" y="3.2">4</text>
<line style="stroke-width:0.01;stroke:black;" x1="3.375" y1="3" x2="2.875" y2="4" />
<circle style="fill:red;stroke-width:0.01;stroke:black" cx="2.875" cy="4" r="0.1" />
<line style="stroke-width:0.01;stroke:black;" x1="3.375" y1="3" x2="2.875" y2="4" />
<text style="fill:black;text-anchor:left;font-size:0.3;" x="3.175" y="3.65">3</text>
<line style="stroke-width:0.01;stroke:black;" x1="3.375" y1="3" x2="3.875" y2="4" />
<circle style="fill:red;stroke-width:0.01;stroke:black" cx="3.875" cy="4" r="0.1" />
<line style="stroke-width:0.01;stroke:black;" x1="3.375" y1="3" x2="3.875" y2="4" />
<text style="fill:black;text-anchor:left;font-size:0.3;" x="3.675" y="3.65">5</text>
<line style="stroke-width:0.01;stroke:black;" x1="0.375" y1="2" x2="3.375" y2="3" />
<text style="fill:black;text-anchor:left;font-size:0.3;" x="1.925" y="2.65">8</text>
<line style="stroke-width:0.01;stroke:black;" x1="0.0" y1="1" x2="0.375" y2="2" />
<text style="fill:black;text-anchor:left;font-size:0.3;" x="0.2375" y="1.65">4</text>
<line style="stroke-width:0.01;stroke:black;" x1="0.0" y1="1" x2="7.125" y2="2" />
<text style="fill:blue;text-anchor:middle;font-size:0.4;" x="7.125" y="2.2">3</text>
<line style="stroke-width:0.01;stroke:black;" x1="7.125" y1="2" x2="5.375" y2="3" />
<text style="fill:blue;text-anchor:middle;font-size:0.4;" x="5.375" y="3.2">4</text>
<line style="stroke-width:0.01;stroke:black;" x1="5.375" y1="3" x2="4.875" y2="4" />
<circle style="fill:red;stroke-width:0.01;stroke:black" cx="4.875" cy="4" r="0.1" />
<line style="stroke-width:0.01;stroke:black;" x1="5.375" y1="3" x2="4.875" y2="4" />
<text style="fill:black;text-anchor:left;font-size:0.3;" x="5.175" y="3.65">6</text>
<line style="stroke-width:0.01;stroke:black;" x1="5.375" y1="3" x2="5.875" y2="4" />
<text style="fill:blue;text-anchor:middle;font-size:0.4;" x="5.875" y="4.2">5</text>
<line style="stroke-width:0.01;stroke:black;" x1="5.875" y1="4" x2="5.375" y2="5" />
<circle style="fill:red;stroke-width:0.01;stroke:black" cx="5.375" cy="5" r="0.1" />
<line style="stroke-width:0.01;stroke:black;" x1="5.875" y1="4" x2="5.375" y2="5" />
<text style="fill:black;text-anchor:left;font-size:0.3;" x="5.675" y="4.65">3</text>
<line style="stroke-width:0.01;stroke:black;" x1="5.875" y1="4" x2="6.375" y2="5" />
<circle style="fill:red;stroke-width:0.01;stroke:black" cx="6.375" cy="5" r="0.1" />
<line style="stroke-width:0.01;stroke:black;" x1="5.875" y1="4" x2="6.375" y2="5" />
<text style="fill:black;text-anchor:left;font-size:0.3;" x="6.175" y="4.65">6</text>
<line style="stroke-width:0.01;stroke:black;" x1="5.375" y1="3" x2="5.875" y2="4" />
<text style="fill:black;text-anchor:left;font-size:0.3;" x="5.675" y="3.65">8</text>
<line style="stroke-width:0.01;stroke:black;" x1="7.125" y1="2" x2="5.375" y2="3" />
<text style="fill:black;text-anchor:left;font-size:0.3;" x="6.3" y="2.65">2</text>
<line style="stroke-width:0.01;stroke:black;" x1="7.125" y1="2" x2="7.375" y2="3" />
<text style="fill:blue;text-anchor:middle;font-size:0.4;" x="7.375" y="3.2">5</text>
<line style="stroke-width:0.01;stroke:black;" x1="7.375" y1="3" x2="6.875" y2="4" />
<circle style="fill:red;stroke-width:0.01;stroke:black" cx="6.875" cy="4" r="0.1" />
<line style="stroke-width:0.01;stroke:black;" x1="7.375" y1="3" x2="6.875" y2="4" />
<text style="fill:black;text-anchor:left;font-size:0.3;" x="7.175" y="3.65">4</text>
<line style="stroke-width:0.01;stroke:black;" x1="7.375" y1="3" x2="7.875" y2="4" />
<circle style="fill:red;stroke-width:0.01;stroke:black" cx="7.875" cy="4" r="0.1" />
<line style="stroke-width:0.01;stroke:black;" x1="7.375" y1="3" x2="7.875" y2="4" />
<text style="fill:black;text-anchor:left;font-size:0.3;" x="7.675" y="3.65">6</text>
<line style="stroke-width:0.01;stroke:black;" x1="7.125" y1="2" x2="7.375" y2="3" />
<text style="fill:black;text-anchor:left;font-size:0.3;" x="7.3" y="2.65">7</text>
<line style="stroke-width:0.01;stroke:black;" x1="7.125" y1="2" x2="8.875" y2="3" />
<text style="fill:blue;text-anchor:middle;font-size:0.4;" x="8.875" y="3.2">4</text>
<line style="stroke-width:0.01;stroke:black;" x1="8.875" y1="3" x2="8.875" y2="4" />
<text style="fill:blue;text-anchor:middle;font-size:0.4;" x="8.875" y="4.2">5</text>
<line style="stroke-width:0.01;stroke:black;" x1="8.875" y1="4" x2="8.875" y2="5" />
<circle style="fill:red;stroke-width:0.01;stroke:black" cx="8.875" cy="5" r="0.1" />
<line style="stroke-width:0.01;stroke:black;" x1="8.875" y1="4" x2="8.875" y2="5" />
<text style="fill:black;text-anchor:left;font-size:0.3;" x="8.925" y="4.65">4</text>
<line style="stroke-width:0.01;stroke:black;" x1="8.875" y1="3" x2="8.875" y2="4" />
<text style="fill:black;text-anchor:left;font-size:0.3;" x="8.925" y="3.65">2</text>
<line style="stroke-width:0.01;stroke:black;" x1="7.125" y1="2" x2="8.875" y2="3" />
<text style="fill:black;text-anchor:left;font-size:0.3;" x="8.05" y="2.65">8</text>
<line style="stroke-width:0.01;stroke:black;" x1="0.0" y1="1" x2="7.125" y2="2" />
<text style="fill:black;text-anchor:left;font-size:0.3;" x="3.6125" y="1.65">5</text>
<line style="stroke-width:0.01;stroke:black;" x1="0" y1="0" x2="0.0" y2="1" />
<text style="fill:black;text-anchor:left;font-size:0.3;" x="0.05" y="0.65">1</text>
</svg>
