<?xml version="1.0" encoding="UTF-8" standalone="no"?>
<svg
   xmlns:svg="http://www.w3.org/2000/svg"
   xmlns="http://www.w3.org/2000/svg"
   version="1.0"
   width="800px"
   height="800px"
   viewBox="-10.5 -1 20.0 7">
<text style="fill:blue;text-anchor:middle;font-size:0.4;" x="0" y="0.2">1</text>
<line style="stroke-width:0.01;stroke:black;" x1="0" y1="0" x2="0.0" y2="1" />
<text style="fill:blue;text-anchor:middle;font-size:0.4;" x="0.0" y="1.2">2</text>
<line style="stroke-width:0.01;stroke:black;" x1="0.0" y1="1" x2="-7.0" y2="2" />
<text style="fill:blue;text-anchor:middle;font-size:0.4;" x="-7.0" y="2.2">3</text>
<line style="stroke-width:0.01;stroke:black;" x1="-7.0" y1="2" x2="-9.5" y2="3" />
<circle style="fill:red;stroke-width:0.01;stroke:black" cx="-9.5" cy="3" r="0.1" />
<line style="stroke-width:0.01;stroke:black;" x1="-7.0" y1="2" x2="-9.5" y2="3" />
<text style="fill:black;text-anchor:left;font-size:0.3;" x="-8.2" y="2.65">5</text>
<line style="stroke-width:0.01;stroke:black;" x1="-7.0" y1="2" x2="-8.5" y2="3" />
<text style="fill:blue;text-anchor:middle;font-size:0.4;" x="-8.5" y="3.2">4</text>
<line style="stroke-width:0.01;stroke:black;" x1="-8.5" y1="3" x2="-9.0" y2="4" />
<circle style="fill:red;stroke-width:0.01;stroke:black" cx="-9.0" cy="4" r="0.1" />
<line style="stroke-width:0.01;stroke:black;" x1="-8.5" y1="3" x2="-9.0" y2="4" />
<text style="fill:black;text-anchor:left;font-size:0.3;" x="-8.7" y="3.65">2</text>
<line style="stroke-width:0.01;stroke:black;" x1="-8.5" y1="3" x2="-8.0" y2="4" />
<circle style="fill:red;stroke-width:0.01;stroke:black" cx="-8.0" cy="4" r="0.1" />
<line style="stroke-width:0.01;stroke:black;" x1="-8.5" y1="3" x2="-8.0" y2="4" />
<text style="fill:black;text-anchor:left;font-size:0.3;" x="-8.2" y="3.65">8</text>
<line style="stroke-width:0.01;stroke:black;" x1="-7.0" y1="2" x2="-8.5" y2="3" />
<text style="fill:black;text-anchor:left;font-size:0.3;" x="-7.7" y="2.65">6</text>
<line style="stroke-width:0.01;stroke:black;" x1="-7.0" y1="2" x2="-6.5" y2="3" />
<text style="fill:blue;text-anchor:middle;font-size:0.4;" x="-6.5" y="3.2">5</text>
<line style="stroke-width:0.01;stroke:black;" x1="-6.5" y1="3" x2="-7.0" y2="4" />
<circle style="fill:red;stroke-width:0.01;stroke:black" cx="-7.0" cy="4" r="0.1" />
<line style="stroke-width:0.01;stroke:black;" x1="-6.5" y1="3" x2="-7.0" y2="4" />
<text style="fill:black;text-anchor:left;font-size:0.3;" x="-6.7" y="3.65">4</text>
<line style="stroke-width:0.01;stroke:black;" x1="-6.5" y1="3" x2="-6.0" y2="4" />
<circle style="fill:red;stroke-width:0.01;stroke:black" cx="-6.0" cy="4" r="0.1" />
<line style="stroke-width:0.01;stroke:black;" x1="-6.5" y1="3" x2="-6.0" y2="4" />
<text style="fill:black;text-anchor:left;font-size:0.3;" x="-6.2" y="3.65">8</text>
<line style="stroke-width:0.01;stroke:black;" x1="-7.0" y1="2" x2="-6.5" y2="3" />
<text style="fill:black;text-anchor:left;font-size:0.3;" x="-6.7" y="2.65">7</text>
<line style="stroke-width:0.01;stroke:black;" x1="-7.0" y1="2" x2="-4.5" y2="3" />
<text style="fill:blue;text-anchor:middle;font-size:0.4;" x="-4.5" y="3.2">4</text>
<line style="stroke-width:0.01;stroke:black;" x1="-4.5" y1="3" x2="-5.0" y2="4" />
<circle style="fill:red;stroke-width:0.01;stroke:black" cx="-5.0" cy="4" r="0.1" />
<line style="stroke-width:0.01;stroke:black;" x1="-4.5" y1="3" x2="-5.0" y2="4" />
<text style="fill:black;text-anchor:left;font-size:0.3;" x="-4.7" y="3.65">2</text>
<line style="stroke-width:0.01;stroke:black;" x1="-4.5" y1="3" x2="-4.0" y2="4" />
<circle style="fill:red;stroke-width:0.01;stroke:black" cx="-4.0" cy="4" r="0.1" />
<line style="stroke-width:0.01;stroke:black;" x1="-4.5" y1="3" x2="-4.0" y2="4" />
<text style="fill:black;text-anchor:left;font-size:0.3;" x="-4.2" y="3.65">6</text>
<line style="stroke-width:0.01;stroke:black;" x1="-7.0" y1="2" x2="-4.5" y2="3" />
<text style="fill:black;text-anchor:left;font-size:0.3;" x="-5.7" y="2.65">8</text>
<line style="stroke-width:0.01;stroke:black;" x1="0.0" y1="1" x2="-7.0" y2="2" />
<text style="fill:black;text-anchor:left;font-size:0.3;" x="-3.45" y="1.65">3</text>
<line style="stroke-width:0.01;stroke:black;" x1="0.0" y1="1" x2="0.5" y2="2" />
<text style="fill:blue;text-anchor:middle;font-size:0.4;" x="0.5" y="2.2">3</text>
<line style="stroke-width:0.01;stroke:black;" x1="0.5" y1="2" x2="-2.5" y2="3" />
<text style="fill:blue;text-anchor:middle;font-size:0.4;" x="-2.5" y="3.2">6</text>
<line style="stroke-width:0.01;stroke:black;" x1="-2.5" y1="3" x2="-3.0" y2="4" />
<circle style="fill:red;stroke-width:0.01;stroke:black" cx="-3.0" cy="4" r="0.1" />
<line style="stroke-width:0.01;stroke:black;" x1="-2.5" y1="3" x2="-3.0" y2="4" />
<text style="fill:black;text-anchor:left;font-size:0.3;" x="-2.7" y="3.65">3</text>
<line style="stroke-width:0.01;stroke:black;" x1="-2.5" y1="3" x2="-2.0" y2="4" />
<circle style="fill:red;stroke-width:0.01;stroke:black" cx="-2.0" cy="4" r="0.1" />
<line style="stroke-width:0.01;stroke:black;" x1="-2.5" y1="3" x2="-2.0" y2="4" />
<text style="fill:black;text-anchor:left;font-size:0.3;" x="-2.2" y="3.65">7</text>
<line style="stroke-width:0.01;stroke:black;" x1="0.5" y1="2" x2="-2.5" y2="3" />
<text style="fill:black;text-anchor:left;font-size:0.3;" x="-0.95" y="2.65">2</text>
<line style="stroke-width:0.01;stroke:black;" x1="0.5" y1="2" x2="-0.5" y2="3" />
<text style="fill:blue;text-anchor:middle;font-size:0.4;" x="-0.5" y="3.2">4</text>
<line style="stroke-width:0.01;stroke:black;" x1="-0.5" y1="3" x2="-1.0" y2="4" />
<circle style="fill:red;stroke-width:0.01;stroke:black" cx="-1.0" cy="4" r="0.1" />
<line style="stroke-width:0.01;stroke:black;" x1="-0.5" y1="3" x2="-1.0" y2="4" />
<text style="fill:black;text-anchor:left;font-size:0.3;" x="-0.7" y="3.65">3</text>
<line style="stroke-width:0.01;stroke:black;" x1="-0.5" y1="3" x2="0.0" y2="4" />
<circle style="fill:red;stroke-width:0.01;stroke:black" cx="0.0" cy="4" r="0.1" />
<line style="stroke-width:0.01;stroke:black;" x1="-0.5" y1="3" x2="0.0" y2="4" />
<text style="fill:black;text-anchor:left;font-size:0.3;" x="-0.2" y="3.65">8</text>
<line style="stroke-width:0.01;stroke:black;" x1="0.5" y1="2" x2="-0.5" y2="3" />
<text style="fill:black;text-anchor:left;font-size:0.3;" x="0.05" y="2.65">6</text>
<line style="stroke-width:0.01;stroke:black;" x1="0.5" y1="2" x2="1.5" y2="3" />
<text style="fill:blue;text-anchor:middle;font-size:0.4;" x="1.5" y="3.2">4</text>
<line style="stroke-width:0.01;stroke:black;" x1="1.5" y1="3" x2="1.0" y2="4" />
<text style="fill:blue;text-anchor:middle;font-size:0.4;" x="1.0" y="4.2">5</text>
<line style="stroke-width:0.01;stroke:black;" x1="1.0" y1="4" x2="0.5" y2="5" />
<circle style="fill:red;stroke-width:0.01;stroke:black" cx="0.5" cy="5" r="0.1" />
<line style="stroke-width:0.01;stroke:black;" x1="1.0" y1="4" x2="0.5" y2="5" />
<text style="fill:black;text-anchor:left;font-size:0.3;" x="0.8" y="4.65">6</text>
<line style="stroke-width:0.01;stroke:black;" x1="1.0" y1="4" x2="1.5" y2="5" />
<circle style="fill:red;stroke-width:0.01;stroke:black" cx="1.5" cy="5" r="0.1" />
<line style="stroke-width:0.01;stroke:black;" x1="1.0" y1="4" x2="1.5" y2="5" />
<text style="fill:black;text-anchor:left;font-size:0.3;" x="1.3" y="4.65">8</text>
<line style="stroke-width:0.01;stroke:black;" x1="1.5" y1="3" x2="1.0" y2="4" />
<text style="fill:black;text-anchor:left;font-size:0.3;" x="1.3" y="3.65">3</text>
<line style="stroke-width:0.01;stroke:black;" x1="1.5" y1="3" x2="2.0" y2="4" />
<circle style="fill:red;stroke-width:0.01;stroke:black" cx="2.0" cy="4" r="0.1" />
<line style="stroke-width:0.01;stroke:black;" x1="1.5" y1="3" x2="2.0" y2="4" />
<text style="fill:black;text-anchor:left;font-size:0.3;" x="1.8" y="3.65">5</text>
<line style="stroke-width:0.01;stroke:black;" x1="0.5" y1="2" x2="1.5" y2="3" />
<text style="fill:black;text-anchor:left;font-size:0.3;" x="1.05" y="2.65">7</text>
<line style="stroke-width:0.01;stroke:black;" x1="0.5" y1="2" x2="3.5" y2="3" />
<text style="fill:blue;text-anchor:middle;font-size:0.4;" x="3.5" y="3.2">4</text>
<line style="stroke-width:0.01;stroke:black;" x1="3.5" y1="3" x2="3.0" y2="4" />
<circle style="fill:red;stroke-width:0.01;stroke:black" cx="3.0" cy="4" r="0.1" />
<line style="stroke-width:0.01;stroke:black;" x1="3.5" y1="3" x2="3.0" y2="4" />
<text style="fill:black;text-anchor:left;font-size:0.3;" x="3.3" y="3.65">3</text>
<line style="stroke-width:0.01;stroke:black;" x1="3.5" y1="3" x2="4.0" y2="4" />
<circle style="fill:red;stroke-width:0.01;stroke:black" cx="4.0" cy="4" r="0.1" />
<line style="stroke-width:0.01;stroke:black;" x1="3.5" y1="3" x2="4.0" y2="4" />
<text style="fill:black;text-anchor:left;font-size:0.3;" x="3.8" y="3.65">5</text>
<line style="stroke-width:0.01;stroke:black;" x1="0.5" y1="2" x2="3.5" y2="3" />
<text style="fill:black;text-anchor:left;font-size:0.3;" x="2.05" y="2.65">8</text>
<line style="stroke-width:0.01;stroke:black;" x1="0.0" y1="1" x2="0.5" y2="2" />
<text style="fill:black;text-anchor:left;font-size:0.3;" x="0.3" y="1.65">4</text>
<line style="stroke-width:0.01;stroke:black;" x1="0.0" y1="1" x2="7.0" y2="2" />
<text style="fill:blue;text-anchor:middle;font-size:0.4;" x="7.0" y="2.2">3</text>
<line style="stroke-width:0.01;stroke:black;" x1="7.0" y1="2" x2="5.5" y2="3" />
<text style="fill:blue;text-anchor:middle;font-size:0.4;" x="5.5" y="3.2">4</text>
<line style="stroke-width:0.01;stroke:black;" x1="5.5" y1="3" x2="5.0" y2="4" />
<circle style="fill:red;stroke-width:0.01;stroke:black" cx="5.0" cy="4" r="0.1" />
<line style="stroke-width:0.01;stroke:black;" x1="5.5" y1="3" x2="5.0" y2="4" />
<text style="fill:black;text-anchor:left;font-size:0.3;" x="5.3" y="3.65">6</text>
<line style="stroke-width:0.01;stroke:black;" x1="5.5" y1="3" x2="6.0" y2="4" />
<text style="fill:blue;text-anchor:middle;font-size:0.4;" x="6.0" y="4.2">5</text>
<line style="stroke-width:0.01;stroke:black;" x1="6.0" y1="4" x2="5.5" y2="5" />
<circle style="fill:red;stroke-width:0.01;stroke:black" cx="5.5" cy="5" r="0.1" />
<line style="stroke-width:0.01;stroke:black;" x1="6.0" y1="4" x2="5.5" y2="5" />
<text style="fill:black;text-anchor:left;font-size:0.3;" x="5.8" y="4.65">3</text>
<line style="stroke-width:0.01;stroke:black;" x1="6.0" y1="4" x2="6.5" y2="5" />
<circle style="fill:red;stroke-width:0.01;stroke:black" cx="6.5" cy="5" r="0.1" />
<line style="stroke-width:0.01;stroke:black;" x1="6.0" y1="4" x2="6.5" y2="5" />
<text style="fill:black;text-anchor:left;font-size:0.3;" x="6.3" y="4.65">6</text>
<line style="stroke-width:0.01;stroke:black;" x1="5.5" y1="3" x2="6.0" y2="4" />
<text style="fill:black;text-anchor:left;font-size:0.3;" x="5.8" y="3.65">8</text>
<line style="stroke-width:0.01;stroke:black;" x1="7.0" y1="2" x2="5.5" y2="3" />
<text style="fill:black;text-anchor:left;font-size:0.3;" x="6.3" y="2.65">2</text>
<line style="stroke-width:0.01;stroke:black;" x1="7.0" y1="2" x2="7.5" y2="3" />
<text style="fill:blue;text-anchor:middle;font-size:0.4;" x="7.5" y="3.2">5</text>
<line style="stroke-width:0.01;stroke:black;" x1="7.5" y1="3" x2="7.0" y2="4" />
<circle style="fill:red;stroke-width:0.01;stroke:black" cx="7.0" cy="4" r="0.1" />
<line style="stroke-width:0.01;stroke:black;" x1="7.5" y1="3" x2="7.0" y2="4" />
<text style="fill:black;text-anchor:left;font-size:0.3;" x="7.3" y="3.65">4</text>
<line style="stroke-width:0.01;stroke:black;" x1="7.5" y1="3" x2="8.0" y2="4" />
<circle style="fill:red;stroke-width:0.01;stroke:black" cx="8.0" cy="4" r="0.1" />
<line style="stroke-width:0.01;stroke:black;" x1="7.5" y1="3" x2="8.0" y2="4" />
<text style="fill:black;text-anchor:left;font-size:0.3;" x="7.8" y="3.65">6</text>
<line style="stroke-width:0.01;stroke:black;" x1="7.0" y1="2" x2="7.5" y2="3" />
<text style="fill:black;text-anchor:left;font-size:0.3;" x="7.3" y="2.65">7</text>
<line style="stroke-width:0.01;stroke:black;" x1="7.0" y1="2" x2="8.5" y2="3" />
<text style="fill:blue;text-anchor:middle;font-size:0.4;" x="8.5" y="3.2">4</text>
<line style="stroke-width:0.01;stroke:black;" x1="7.0" y1="2" x2="8.5" y2="3" />
<text style="fill:black;text-anchor:left;font-size:0.3;" x="7.8" y="2.65">8</text>
<line style="stroke-width:0.01;stroke:black;" x1="0.0" y1="1" x2="7.0" y2="2" />
<text style="fill:black;text-anchor:left;font-size:0.3;" x="3.55" y="1.65">5</text>
<line style="stroke-width:0.01;stroke:black;" x1="0" y1="0" x2="0.0" y2="1" />
<text style="fill:black;text-anchor:left;font-size:0.3;" x="0.05" y="0.65">1</text>
</svg>
