<?xml version="1.0" encoding="UTF-8" standalone="no"?>
<svg
   xmlns:svg="http://www.w3.org/2000/svg"
   xmlns="http://www.w3.org/2000/svg"
   version="1.0"
   width="800px"
   height="800px"
   viewBox="-2.0 -1 5.5 6">
<text style="fill:blue;text-anchor:middle;font-size:0.4;" x="0" y="0.2">1</text>
<line style="stroke-width:0.01;stroke:black;" x1="0" y1="0" x2="0.0" y2="1" />
<text style="fill:blue;text-anchor:middle;font-size:0.4;" x="0.0" y="1.2">2</text>
<line style="stroke-width:0.01;stroke:black;" x1="0.0" y1="1" x2="-1.0" y2="2" />
<polygon style="fill:red;stroke-width:0.01;stroke:black;" points="-1.0,2 -0.5,2.5 -1.5,2.5" />
<text style="fill:black;text-anchor:middle;font-size:0.2;" x="-1.0" y="2.45">4</text>
<text style="fill:black;text-anchor:left;font-size:0.2;" x="-1.45" y="2.75">7</text>
<line style="stroke-width:0.01;stroke:black;" x1="0.0" y1="1" x2="-1.0" y2="2" />
<text style="fill:black;text-anchor:left;font-size:0.3;" x="-0.45" y="1.65">3</text>
<line style="stroke-width:0.01;stroke:black;" x1="0.0" y1="1" x2="0.0" y2="2" />
<polygon style="fill:red;stroke-width:0.01;stroke:black;" points="0.0,2 0.5,2.5 -0.5,2.5" />
<text style="fill:black;text-anchor:middle;font-size:0.2;" x="0.0" y="2.45">6</text>
<text style="fill:black;text-anchor:left;font-size:0.2;" x="-0.45" y="2.75">9</text>
<line style="stroke-width:0.01;stroke:black;" x1="0.0" y1="1" x2="0.0" y2="2" />
<text style="fill:black;text-anchor:left;font-size:0.3;" x="0.05" y="1.65">4</text>
<line style="stroke-width:0.01;stroke:black;" x1="0.0" y1="1" x2="1.0" y2="2" />
<text style="fill:blue;text-anchor:middle;font-size:0.4;" x="1.0" y="2.2">3</text>
<line style="stroke-width:0.01;stroke:black;" x1="1.0" y1="2" x2="0.0" y2="3" />
<polygon style="fill:red;stroke-width:0.01;stroke:black;" points="0.0,3 0.5,3.5 -0.5,3.5" />
<text style="fill:black;text-anchor:middle;font-size:0.2;" x="0.0" y="3.45">2</text>
<text style="fill:black;text-anchor:left;font-size:0.2;" x="-0.45" y="3.75">3</text>
<line style="stroke-width:0.01;stroke:black;" x1="1.0" y1="2" x2="0.0" y2="3" />
<text style="fill:black;text-anchor:left;font-size:0.3;" x="0.55" y="2.65">2</text>
<line style="stroke-width:0.01;stroke:black;" x1="1.0" y1="2" x2="1.0" y2="3" />
<polygon style="fill:red;stroke-width:0.01;stroke:black;" points="1.0,3 1.5,3.5 0.5,3.5" />
<text style="fill:black;text-anchor:middle;font-size:0.2;" x="1.0" y="3.45">1</text>
<text style="fill:black;text-anchor:left;font-size:0.2;" x="0.55" y="3.75">2</text>
<line style="stroke-width:0.01;stroke:black;" x1="1.0" y1="2" x2="1.0" y2="3" />
<text style="fill:black;text-anchor:left;font-size:0.3;" x="1.05" y="2.65">7</text>
<line style="stroke-width:0.01;stroke:black;" x1="1.0" y1="2" x2="2.0" y2="3" />
<text style="fill:blue;text-anchor:middle;font-size:0.4;" x="2.0" y="3.2">4</text>
<line style="stroke-width:0.01;stroke:black;" x1="2.0" y1="3" x2="1.5" y2="4" />
<polygon style="fill:red;stroke-width:0.01;stroke:black;" points="1.5,4 2.0,4.5 1.0,4.5" />
<text style="fill:black;text-anchor:middle;font-size:0.2;" x="1.5" y="4.45">1</text>
<text style="fill:black;text-anchor:left;font-size:0.2;" x="1.05" y="4.75">2</text>
<line style="stroke-width:0.01;stroke:black;" x1="2.0" y1="3" x2="1.5" y2="4" />
<text style="fill:black;text-anchor:left;font-size:0.3;" x="1.8" y="3.65">2</text>
<line style="stroke-width:0.01;stroke:black;" x1="2.0" y1="3" x2="2.5" y2="4" />
<circle style="fill:green;stroke-width:0.01;stroke:black" cx="2.5" cy="4" r="0.1" />
<line style="stroke-width:0.01;stroke:black;" x1="2.0" y1="3" x2="2.5" y2="4" />
<text style="fill:black;text-anchor:left;font-size:0.3;" x="2.3" y="3.65">6</text>
<line style="stroke-width:0.01;stroke:black;" x1="1.0" y1="2" x2="2.0" y2="3" />
<text style="fill:black;text-anchor:left;font-size:0.3;" x="1.55" y="2.65">8</text>
<line style="stroke-width:0.01;stroke:black;" x1="0.0" y1="1" x2="1.0" y2="2" />
<text style="fill:black;text-anchor:left;font-size:0.3;" x="0.55" y="1.65">5</text>
<line style="stroke-width:0.01;stroke:black;" x1="0" y1="0" x2="0.0" y2="1" />
<text style="fill:black;text-anchor:left;font-size:0.3;" x="0.05" y="0.65">1</text>
</svg>
