<?xml version="1.0" encoding="UTF-8" standalone="no"?>
<svg
   xmlns:svg="http://www.w3.org/2000/svg"
   xmlns="http://www.w3.org/2000/svg"
   version="1.0"
   width="640.0px"
   height="800px"
   viewBox="0 0 8 10">
<g>
<path d="M0,0 l0,10 M1,0 l0,10 M2,0 l0,10 M3,0 l0,10 M4,0 l0,10 M5,0 l0,10 M6,0 l0,10 M7,0 l0,10 M8,0 l0,10 M0,0 l8,0 M0,1 l8,0 M0,2 l8,0 M0,3 l8,0 M0,4 l8,0 M0,5 l8,0 M0,6 l8,0 M0,7 l8,0 M0,8 l8,0 M0,9 l8,0 M0,10 l8,0 " style="stroke-width:0.05;stroke:#000000;fill:none"/>
<rect x="0" y="9" width="1" height="1" style="stroke-width:0.05;stroke:#000000;fill:#FF8080;"/>
<rect x="1" y="4" width="1" height="1" style="stroke-width:0.05;stroke:#000000;fill:#00FF00;"/>
<rect x="1" y="5" width="1" height="1" style="stroke-width:0.05;stroke:#000000;fill:#00FF00;"/>
<rect x="1" y="6" width="1" height="1" style="stroke-width:0.05;stroke:#000000;fill:#00FF00;"/>
<rect x="1" y="7" width="1" height="1" style="stroke-width:0.05;stroke:#000000;fill:#00FF00;"/>
<rect x="2" y="5" width="1" height="1" style="stroke-width:0.05;stroke:#000000;fill:#00FF00;"/>
<rect x="2" y="6" width="1" height="1" style="stroke-width:0.05;stroke:#000000;fill:#00FF00;"/>
<rect x="2" y="7" width="1" height="1" style="stroke-width:0.05;stroke:#000000;fill:#00FF00;"/>
<rect x="2" y="8" width="1" height="1" style="stroke-width:0.05;stroke:#000000;fill:#00FF00;"/>
<rect x="3" y="2" width="1" height="1" style="stroke-width:0.05;stroke:#000000;fill:#00FF00;"/>
<rect x="3" y="3" width="1" height="1" style="stroke-width:0.05;stroke:#000000;fill:#00FF00;"/>
<rect x="3" y="4" width="1" height="1" style="stroke-width:0.05;stroke:#000000;fill:#00FF00;"/>
<rect x="3" y="5" width="1" height="1" style="stroke-width:0.05;stroke:#000000;fill:#00FF00;"/>
<rect x="3" y="6" width="1" height="1" style="stroke-width:0.05;stroke:#000000;fill:#00FF00;"/>
<rect x="3" y="7" width="1" height="1" style="stroke-width:0.05;stroke:#000000;fill:#00FF00;"/>
<rect x="3" y="8" width="1" height="1" style="stroke-width:0.05;stroke:#000000;fill:#00FF00;"/>
<rect x="4" y="1" width="1" height="1" style="stroke-width:0.05;stroke:#000000;fill:#FF8080;"/>
<rect x="5" y="0" width="1" height="1" style="stroke-width:0.05;stroke:#000000;fill:#FF8080;"/>
<rect x="6" y="2" width="1" height="1" style="stroke-width:0.05;stroke:#000000;fill:#00FF00;"/>
<rect x="6" y="3" width="1" height="1" style="stroke-width:0.05;stroke:#000000;fill:#00FF00;"/>
<rect x="6" y="4" width="1" height="1" style="stroke-width:0.05;stroke:#000000;fill:#00FF00;"/>
<rect x="6" y="5" width="1" height="1" style="stroke-width:0.05;stroke:#000000;fill:#00FF00;"/>
<rect x="6" y="6" width="1" height="1" style="stroke-width:0.05;stroke:#000000;fill:#00FF00;"/>
<rect x="6" y="7" width="1" height="1" style="stroke-width:0.05;stroke:#000000;fill:#00FF00;"/>
<rect x="6" y="8" width="1" height="1" style="stroke-width:0.05;stroke:#000000;fill:#00FF00;"/>
<rect x="7" y="2" width="1" height="1" style="stroke-width:0.05;stroke:#000000;fill:#00FF00;"/>
<rect x="7" y="3" width="1" height="1" style="stroke-width:0.05;stroke:#000000;fill:#00FF00;"/>
<rect x="7" y="4" width="1" height="1" style="stroke-width:0.05;stroke:#000000;fill:#00FF00;"/>
<rect x="7" y="5" width="1" height="1" style="stroke-width:0.05;stroke:#000000;fill:#00FF00;"/>
<rect x="7" y="6" width="1" height="1" style="stroke-width:0.05;stroke:#000000;fill:#00FF00;"/>
<rect x="7" y="7" width="1" height="1" style="stroke-width:0.05;stroke:#000000;fill:#00FF00;"/>
<rect x="7" y="8" width="1" height="1" style="stroke-width:0.05;stroke:#000000;fill:#00FF00;"/>
<rect x="0" y="0" width="1" height="10" style="stroke-width:0.1;stroke:#FFFF00;fill:none"/>
</g>
</svg>
