<?xml version="1.0" encoding="UTF-8" standalone="no"?>
<svg
   xmlns:svg="http://www.w3.org/2000/svg"
   xmlns="http://www.w3.org/2000/svg"
   version="1.0"
   width="800px"
   height="800.0px"
   viewBox="0 0 8 8">
<g>
<path d="M0,0 l0,8 M1,0 l0,8 M2,0 l0,8 M3,0 l0,8 M4,0 l0,8 M5,0 l0,8 M6,0 l0,8 M7,0 l0,8 M8,0 l0,8 M0,0 l8,0 M0,1 l8,0 M0,2 l8,0 M0,3 l8,0 M0,4 l8,0 M0,5 l8,0 M0,6 l8,0 M0,7 l8,0 M0,8 l8,0 " style="stroke-width:0.05;stroke:#000000;fill:none"/>
<rect x="0" y="0" width="1" height="1" style="stroke-width:0.05;stroke:#000000;fill:#FF8080;"/>
<rect x="1" y="3" width="1" height="1" style="stroke-width:0.05;stroke:#000000;fill:#FF8080;"/>
<rect x="2" y="1" width="1" height="1" style="stroke-width:0.05;stroke:#000000;fill:#FF8080;"/>
<rect x="3" y="4" width="1" height="1" style="stroke-width:0.05;stroke:#000000;fill:#00FF00;"/>
<rect x="3" y="6" width="1" height="1" style="stroke-width:0.05;stroke:#000000;fill:#00FF00;"/>
<rect x="3" y="7" width="1" height="1" style="stroke-width:0.05;stroke:#000000;fill:#00FF00;"/>
<rect x="4" y="2" width="1" height="1" style="stroke-width:0.05;stroke:#000000;fill:#00FF00;"/>
<rect x="4" y="5" width="1" height="1" style="stroke-width:0.05;stroke:#000000;fill:#00FF00;"/>
<rect x="4" y="7" width="1" height="1" style="stroke-width:0.05;stroke:#000000;fill:#00FF00;"/>
<rect x="5" y="2" width="1" height="1" style="stroke-width:0.05;stroke:#000000;fill:#00FF00;"/>
<rect x="5" y="6" width="1" height="1" style="stroke-width:0.05;stroke:#000000;fill:#00FF00;"/>
<rect x="6" y="2" width="1" height="1" style="stroke-width:0.05;stroke:#000000;fill:#00FF00;"/>
<rect x="6" y="4" width="1" height="1" style="stroke-width:0.05;stroke:#000000;fill:#00FF00;"/>
<rect x="6" y="7" width="1" height="1" style="stroke-width:0.05;stroke:#000000;fill:#00FF00;"/>
<rect x="7" y="2" width="1" height="1" style="stroke-width:0.05;stroke:#000000;fill:#00FF00;"/>
<rect x="7" y="4" width="1" height="1" style="stroke-width:0.05;stroke:#000000;fill:#00FF00;"/>
<rect x="7" y="5" width="1" height="1" style="stroke-width:0.05;stroke:#000000;fill:#00FF00;"/>
<rect x="3" y="6" width="1" height="1" style="stroke-width:0.05;stroke:#000000;fill:#FF0000;"/>
<rect x="3" y="0" width="1" height="8" style="stroke-width:0.1;stroke:#FF0000;fill:none"/>
</g>
</svg>
