<?xml version="1.0" encoding="UTF-8" standalone="no"?>
<!DOCTYPE svg PUBLIC "-//W3C//DTD SVG 1.1//EN"
 "http://www.w3.org/Graphics/SVG/1.1/DTD/svg11.dtd">
<svg
   xmlns:svg="http://www.w3.org/2000/svg"
   xmlns="http://www.w3.org/2000/svg"
   version="1.1"
   width="800px"
   height="800px"
   viewBox="-6.625 -1 14.0 7">
<text style="fill:blue;text-anchor:middle;font-size:0.4;" x="0" y="0.2">1</text>
<line style="stroke-width:0.01;stroke:black;" x1="0" y1="0" x2="0.0" y2="1" />
<text style="fill:blue;text-anchor:middle;font-size:0.4;" x="0.0" y="1.2">2</text>
<line style="stroke-width:0.01;stroke:black;" x1="0.0" y1="1" x2="-3.625" y2="2" />
<text style="fill:blue;text-anchor:middle;font-size:0.4;" x="-3.625" y="2.2">3</text>
<line style="stroke-width:0.01;stroke:black;" x1="-3.625" y1="2" x2="-5.625" y2="3" />
<circle style="fill:red;stroke-width:0.01;stroke:black" cx="-5.625" cy="3" r="0.1" />
<line style="stroke-width:0.01;stroke:black;" x1="-3.625" y1="2" x2="-5.625" y2="3" />
<text style="fill:black;text-anchor:start;font-size:0.3;" x="-4.575" y="2.65">5</text>
<line style="stroke-width:0.01;stroke:black;" x1="-3.625" y1="2" x2="-4.625" y2="3" />
<text style="fill:blue;text-anchor:middle;font-size:0.4;" x="-4.625" y="3.2">4</text>
<line style="stroke-width:0.01;stroke:black;" x1="-4.625" y1="3" x2="-5.125" y2="4" />
<circle style="fill:red;stroke-width:0.01;stroke:black" cx="-5.125" cy="4" r="0.1" />
<line style="stroke-width:0.01;stroke:black;" x1="-4.625" y1="3" x2="-5.125" y2="4" />
<text style="fill:black;text-anchor:start;font-size:0.3;" x="-4.825" y="3.65">2</text>
<line style="stroke-width:0.01;stroke:black;" x1="-4.625" y1="3" x2="-4.125" y2="4" />
<circle style="fill:red;stroke-width:0.01;stroke:black" cx="-4.125" cy="4" r="0.1" />
<line style="stroke-width:0.01;stroke:black;" x1="-4.625" y1="3" x2="-4.125" y2="4" />
<text style="fill:black;text-anchor:start;font-size:0.3;" x="-4.325" y="3.65">8</text>
<line style="stroke-width:0.01;stroke:black;" x1="-3.625" y1="2" x2="-4.625" y2="3" />
<text style="fill:black;text-anchor:start;font-size:0.3;" x="-4.075" y="2.65">6</text>
<line style="stroke-width:0.01;stroke:black;" x1="-3.625" y1="2" x2="-3.125" y2="3" />
<text style="fill:blue;text-anchor:middle;font-size:0.4;" x="-3.125" y="3.2">4</text>
<line style="stroke-width:0.01;stroke:black;" x1="-3.125" y1="3" x2="-3.125" y2="4" />
<text style="fill:blue;text-anchor:middle;font-size:0.4;" x="-3.125" y="4.2">5</text>
<line style="stroke-width:0.01;stroke:black;" x1="-3.125" y1="4" x2="-3.625" y2="5" />
<circle style="fill:red;stroke-width:0.01;stroke:black" cx="-3.625" cy="5" r="0.1" />
<line style="stroke-width:0.01;stroke:black;" x1="-3.125" y1="4" x2="-3.625" y2="5" />
<text style="fill:black;text-anchor:start;font-size:0.3;" x="-3.325" y="4.65">4</text>
<line style="stroke-width:0.01;stroke:black;" x1="-3.125" y1="4" x2="-2.625" y2="5" />
<circle style="fill:red;stroke-width:0.01;stroke:black" cx="-2.625" cy="5" r="0.1" />
<line style="stroke-width:0.01;stroke:black;" x1="-3.125" y1="4" x2="-2.625" y2="5" />
<text style="fill:black;text-anchor:start;font-size:0.3;" x="-2.825" y="4.65">8</text>
<line style="stroke-width:0.02;stroke:yellow;" x1="-3.125" y1="3" x2="-3.125" y2="4" />
<text style="fill:black;text-anchor:start;font-size:0.3;" x="-3.075" y="3.65">2</text>
<line style="stroke-width:0.01;stroke:black;" x1="-3.625" y1="2" x2="-3.125" y2="3" />
<text style="fill:black;text-anchor:start;font-size:0.3;" x="-3.325" y="2.65">7</text>
<line style="stroke-width:0.01;stroke:black;" x1="-3.625" y1="2" x2="-1.625" y2="3" />
<text style="fill:blue;text-anchor:middle;font-size:0.4;" x="-1.625" y="3.2">4</text>
<line style="stroke-width:0.01;stroke:black;" x1="-1.625" y1="3" x2="-2.125" y2="4" />
<circle style="fill:red;stroke-width:0.01;stroke:black" cx="-2.125" cy="4" r="0.1" />
<line style="stroke-width:0.01;stroke:black;" x1="-1.625" y1="3" x2="-2.125" y2="4" />
<text style="fill:black;text-anchor:start;font-size:0.3;" x="-1.825" y="3.65">2</text>
<line style="stroke-width:0.01;stroke:black;" x1="-1.625" y1="3" x2="-1.125" y2="4" />
<circle style="fill:red;stroke-width:0.01;stroke:black" cx="-1.125" cy="4" r="0.1" />
<line style="stroke-width:0.01;stroke:black;" x1="-1.625" y1="3" x2="-1.125" y2="4" />
<text style="fill:black;text-anchor:start;font-size:0.3;" x="-1.325" y="3.65">6</text>
<line style="stroke-width:0.01;stroke:black;" x1="-3.625" y1="2" x2="-1.625" y2="3" />
<text style="fill:black;text-anchor:start;font-size:0.3;" x="-2.575" y="2.65">8</text>
<line style="stroke-width:0.01;stroke:black;" x1="0.0" y1="1" x2="-3.625" y2="2" />
<text style="fill:black;text-anchor:start;font-size:0.3;" x="-1.7625" y="1.65">3</text>
<line style="stroke-width:0.01;stroke:black;" x1="0.0" y1="1" x2="3.625" y2="2" />
<text style="fill:blue;text-anchor:middle;font-size:0.4;" x="3.625" y="2.2">3</text>
<line style="stroke-width:0.01;stroke:black;" x1="3.625" y1="2" x2="0.875" y2="3" />
<text style="fill:blue;text-anchor:middle;font-size:0.4;" x="0.875" y="3.2">4</text>
<line style="stroke-width:0.01;stroke:black;" x1="0.875" y1="3" x2="-0.125" y2="4" />
<circle style="fill:red;stroke-width:0.01;stroke:black" cx="-0.125" cy="4" r="0.1" />
<line style="stroke-width:0.01;stroke:black;" x1="0.875" y1="3" x2="-0.125" y2="4" />
<text style="fill:black;text-anchor:start;font-size:0.3;" x="0.425" y="3.65">5</text>
<line style="stroke-width:0.01;stroke:black;" x1="0.875" y1="3" x2="0.875" y2="4" />
<circle style="fill:red;stroke-width:0.01;stroke:black" cx="0.875" cy="4" r="0.1" />
<line style="stroke-width:0.01;stroke:black;" x1="0.875" y1="3" x2="0.875" y2="4" />
<text style="fill:black;text-anchor:start;font-size:0.3;" x="0.925" y="3.65">7</text>
<line style="stroke-width:0.01;stroke:black;" x1="0.875" y1="3" x2="1.875" y2="4" />
<circle style="fill:red;stroke-width:0.01;stroke:black" cx="1.875" cy="4" r="0.1" />
<line style="stroke-width:0.01;stroke:black;" x1="0.875" y1="3" x2="1.875" y2="4" />
<text style="fill:black;text-anchor:start;font-size:0.3;" x="1.425" y="3.65">8</text>
<line style="stroke-width:0.01;stroke:black;" x1="3.625" y1="2" x2="0.875" y2="3" />
<text style="fill:black;text-anchor:start;font-size:0.3;" x="2.3" y="2.65">2</text>
<line style="stroke-width:0.01;stroke:black;" x1="3.625" y1="2" x2="3.375" y2="3" />
<text style="fill:blue;text-anchor:middle;font-size:0.4;" x="3.375" y="3.2">4</text>
<line style="stroke-width:0.01;stroke:black;" x1="3.375" y1="3" x2="2.875" y2="4" />
<circle style="fill:red;stroke-width:0.01;stroke:black" cx="2.875" cy="4" r="0.1" />
<line style="stroke-width:0.01;stroke:black;" x1="3.375" y1="3" x2="2.875" y2="4" />
<text style="fill:black;text-anchor:start;font-size:0.3;" x="3.175" y="3.65">3</text>
<line style="stroke-width:0.01;stroke:black;" x1="3.375" y1="3" x2="3.875" y2="4" />
<circle style="fill:red;stroke-width:0.01;stroke:black" cx="3.875" cy="4" r="0.1" />
<line style="stroke-width:0.01;stroke:black;" x1="3.375" y1="3" x2="3.875" y2="4" />
<text style="fill:black;text-anchor:start;font-size:0.3;" x="3.675" y="3.65">8</text>
<line style="stroke-width:0.01;stroke:black;" x1="3.625" y1="2" x2="3.375" y2="3" />
<text style="fill:black;text-anchor:start;font-size:0.3;" x="3.55" y="2.65">6</text>
<line style="stroke-width:0.01;stroke:black;" x1="3.625" y1="2" x2="5.375" y2="3" />
<text style="fill:blue;text-anchor:middle;font-size:0.4;" x="5.375" y="3.2">4</text>
<line style="stroke-width:0.01;stroke:black;" x1="5.375" y1="3" x2="4.875" y2="4" />
<text style="fill:blue;text-anchor:middle;font-size:0.4;" x="4.875" y="4.2">5</text>
<line style="stroke-width:0.01;stroke:black;" x1="4.875" y1="4" x2="4.375" y2="5" />
<circle style="fill:red;stroke-width:0.01;stroke:black" cx="4.375" cy="5" r="0.1" />
<line style="stroke-width:0.01;stroke:black;" x1="4.875" y1="4" x2="4.375" y2="5" />
<text style="fill:black;text-anchor:start;font-size:0.3;" x="4.675" y="4.65">6</text>
<line style="stroke-width:0.01;stroke:black;" x1="4.875" y1="4" x2="5.375" y2="5" />
<circle style="fill:red;stroke-width:0.01;stroke:black" cx="5.375" cy="5" r="0.1" />
<line style="stroke-width:0.01;stroke:black;" x1="4.875" y1="4" x2="5.375" y2="5" />
<text style="fill:black;text-anchor:start;font-size:0.3;" x="5.175" y="4.65">8</text>
<line style="stroke-width:0.01;stroke:black;" x1="5.375" y1="3" x2="4.875" y2="4" />
<text style="fill:black;text-anchor:start;font-size:0.3;" x="5.175" y="3.65">3</text>
<line style="stroke-width:0.01;stroke:black;" x1="5.375" y1="3" x2="5.875" y2="4" />
<circle style="fill:red;stroke-width:0.01;stroke:black" cx="5.875" cy="4" r="0.1" />
<line style="stroke-width:0.01;stroke:black;" x1="5.375" y1="3" x2="5.875" y2="4" />
<text style="fill:black;text-anchor:start;font-size:0.3;" x="5.675" y="3.65">5</text>
<line style="stroke-width:0.01;stroke:black;" x1="3.625" y1="2" x2="5.375" y2="3" />
<text style="fill:black;text-anchor:start;font-size:0.3;" x="4.55" y="2.65">7</text>
<line style="stroke-width:0.01;stroke:black;" x1="3.625" y1="2" x2="6.375" y2="3" />
<polygon style="fill:blue;stroke-width:0.01;stroke:black;" points="6.375,3 6.875,3.5 5.875,3.5" />
<line style="stroke-width:0.01;stroke:black;" x1="3.625" y1="2" x2="6.375" y2="3" />
<text style="fill:black;text-anchor:start;font-size:0.3;" x="5.05" y="2.65">8</text>
<line style="stroke-width:0.01;stroke:black;" x1="0.0" y1="1" x2="3.625" y2="2" />
<text style="fill:black;text-anchor:start;font-size:0.3;" x="1.8625" y="1.65">4</text>
<line style="stroke-width:0.01;stroke:black;" x1="0" y1="0" x2="0.0" y2="1" />
<text style="fill:black;text-anchor:start;font-size:0.3;" x="0.05" y="0.65">1</text>
</svg>
