<?xml version="1.0" encoding="UTF-8" standalone="no"?>
<!DOCTYPE svg PUBLIC "-//W3C//DTD SVG 1.1//EN"
 "http://www.w3.org/Graphics/SVG/1.1/DTD/svg11.dtd">
<svg
   xmlns:svg="http://www.w3.org/2000/svg"
   xmlns="http://www.w3.org/2000/svg"
   version="1.1"
   width="800px"
   height="800px"
   viewBox="-9.0 -1 16.0 7">
<text style="fill:blue;text-anchor:middle;font-size:0.4;" x="0" y="0.2">1</text>
<line style="stroke-width:0.01;stroke:black;" x1="0" y1="0" x2="0.0" y2="1" />
<text style="fill:blue;text-anchor:middle;font-size:0.4;" x="0.0" y="1.2">2</text>
<line style="stroke-width:0.01;stroke:black;" x1="0.0" y1="1" x2="-6.0" y2="2" />
<text style="fill:blue;text-anchor:middle;font-size:0.4;" x="-6.0" y="2.2">3</text>
<line style="stroke-width:0.01;stroke:black;" x1="-6.0" y1="2" x2="-8.0" y2="3" />
<circle style="fill:red;stroke-width:0.01;stroke:black" cx="-8.0" cy="3" r="0.1" />
<line style="stroke-width:0.01;stroke:black;" x1="-6.0" y1="2" x2="-8.0" y2="3" />
<text style="fill:black;text-anchor:start;font-size:0.3;" x="-6.95" y="2.65">5</text>
<line style="stroke-width:0.01;stroke:black;" x1="-6.0" y1="2" x2="-7.0" y2="3" />
<text style="fill:blue;text-anchor:middle;font-size:0.4;" x="-7.0" y="3.2">4</text>
<line style="stroke-width:0.01;stroke:black;" x1="-7.0" y1="3" x2="-7.5" y2="4" />
<circle style="fill:red;stroke-width:0.01;stroke:black" cx="-7.5" cy="4" r="0.1" />
<line style="stroke-width:0.01;stroke:black;" x1="-7.0" y1="3" x2="-7.5" y2="4" />
<text style="fill:black;text-anchor:start;font-size:0.3;" x="-7.2" y="3.65">2</text>
<line style="stroke-width:0.01;stroke:black;" x1="-7.0" y1="3" x2="-6.5" y2="4" />
<circle style="fill:red;stroke-width:0.01;stroke:black" cx="-6.5" cy="4" r="0.1" />
<line style="stroke-width:0.01;stroke:black;" x1="-7.0" y1="3" x2="-6.5" y2="4" />
<text style="fill:black;text-anchor:start;font-size:0.3;" x="-6.7" y="3.65">8</text>
<line style="stroke-width:0.01;stroke:black;" x1="-6.0" y1="2" x2="-7.0" y2="3" />
<text style="fill:black;text-anchor:start;font-size:0.3;" x="-6.45" y="2.65">6</text>
<line style="stroke-width:0.01;stroke:black;" x1="-6.0" y1="2" x2="-5.5" y2="3" />
<text style="fill:blue;text-anchor:middle;font-size:0.4;" x="-5.5" y="3.2">4</text>
<line style="stroke-width:0.01;stroke:black;" x1="-5.5" y1="3" x2="-5.5" y2="4" />
<text style="fill:blue;text-anchor:middle;font-size:0.4;" x="-5.5" y="4.2">5</text>
<line style="stroke-width:0.01;stroke:black;" x1="-5.5" y1="4" x2="-6.0" y2="5" />
<circle style="fill:red;stroke-width:0.01;stroke:black" cx="-6.0" cy="5" r="0.1" />
<line style="stroke-width:0.01;stroke:black;" x1="-5.5" y1="4" x2="-6.0" y2="5" />
<text style="fill:black;text-anchor:start;font-size:0.3;" x="-5.7" y="4.65">4</text>
<line style="stroke-width:0.01;stroke:black;" x1="-5.5" y1="4" x2="-5.0" y2="5" />
<circle style="fill:red;stroke-width:0.01;stroke:black" cx="-5.0" cy="5" r="0.1" />
<line style="stroke-width:0.01;stroke:black;" x1="-5.5" y1="4" x2="-5.0" y2="5" />
<text style="fill:black;text-anchor:start;font-size:0.3;" x="-5.2" y="4.65">8</text>
<line style="stroke-width:0.02;stroke:yellow;" x1="-5.5" y1="3" x2="-5.5" y2="4" />
<text style="fill:black;text-anchor:start;font-size:0.3;" x="-5.45" y="3.65">2</text>
<line style="stroke-width:0.01;stroke:black;" x1="-6.0" y1="2" x2="-5.5" y2="3" />
<text style="fill:black;text-anchor:start;font-size:0.3;" x="-5.7" y="2.65">7</text>
<line style="stroke-width:0.01;stroke:black;" x1="-6.0" y1="2" x2="-4.0" y2="3" />
<text style="fill:blue;text-anchor:middle;font-size:0.4;" x="-4.0" y="3.2">4</text>
<line style="stroke-width:0.01;stroke:black;" x1="-4.0" y1="3" x2="-4.5" y2="4" />
<circle style="fill:red;stroke-width:0.01;stroke:black" cx="-4.5" cy="4" r="0.1" />
<line style="stroke-width:0.01;stroke:black;" x1="-4.0" y1="3" x2="-4.5" y2="4" />
<text style="fill:black;text-anchor:start;font-size:0.3;" x="-4.2" y="3.65">2</text>
<line style="stroke-width:0.01;stroke:black;" x1="-4.0" y1="3" x2="-3.5" y2="4" />
<circle style="fill:red;stroke-width:0.01;stroke:black" cx="-3.5" cy="4" r="0.1" />
<line style="stroke-width:0.01;stroke:black;" x1="-4.0" y1="3" x2="-3.5" y2="4" />
<text style="fill:black;text-anchor:start;font-size:0.3;" x="-3.7" y="3.65">6</text>
<line style="stroke-width:0.01;stroke:black;" x1="-6.0" y1="2" x2="-4.0" y2="3" />
<text style="fill:black;text-anchor:start;font-size:0.3;" x="-4.95" y="2.65">8</text>
<line style="stroke-width:0.01;stroke:black;" x1="0.0" y1="1" x2="-6.0" y2="2" />
<text style="fill:black;text-anchor:start;font-size:0.3;" x="-2.95" y="1.65">3</text>
<line style="stroke-width:0.01;stroke:black;" x1="0.0" y1="1" x2="1.75" y2="2" />
<text style="fill:blue;text-anchor:middle;font-size:0.4;" x="1.75" y="2.2">3</text>
<line style="stroke-width:0.01;stroke:black;" x1="1.75" y1="2" x2="-1.5" y2="3" />
<text style="fill:blue;text-anchor:middle;font-size:0.4;" x="-1.5" y="3.2">4</text>
<line style="stroke-width:0.01;stroke:black;" x1="-1.5" y1="3" x2="-2.5" y2="4" />
<circle style="fill:red;stroke-width:0.01;stroke:black" cx="-2.5" cy="4" r="0.1" />
<line style="stroke-width:0.01;stroke:black;" x1="-1.5" y1="3" x2="-2.5" y2="4" />
<text style="fill:black;text-anchor:start;font-size:0.3;" x="-1.95" y="3.65">5</text>
<line style="stroke-width:0.01;stroke:black;" x1="-1.5" y1="3" x2="-1.5" y2="4" />
<circle style="fill:red;stroke-width:0.01;stroke:black" cx="-1.5" cy="4" r="0.1" />
<line style="stroke-width:0.01;stroke:black;" x1="-1.5" y1="3" x2="-1.5" y2="4" />
<text style="fill:black;text-anchor:start;font-size:0.3;" x="-1.45" y="3.65">7</text>
<line style="stroke-width:0.01;stroke:black;" x1="-1.5" y1="3" x2="-0.5" y2="4" />
<circle style="fill:red;stroke-width:0.01;stroke:black" cx="-0.5" cy="4" r="0.1" />
<line style="stroke-width:0.01;stroke:black;" x1="-1.5" y1="3" x2="-0.5" y2="4" />
<text style="fill:black;text-anchor:start;font-size:0.3;" x="-0.95" y="3.65">8</text>
<line style="stroke-width:0.01;stroke:black;" x1="1.75" y1="2" x2="-1.5" y2="3" />
<text style="fill:black;text-anchor:start;font-size:0.3;" x="0.175" y="2.65">2</text>
<line style="stroke-width:0.01;stroke:black;" x1="1.75" y1="2" x2="1.0" y2="3" />
<text style="fill:blue;text-anchor:middle;font-size:0.4;" x="1.0" y="3.2">4</text>
<line style="stroke-width:0.01;stroke:black;" x1="1.0" y1="3" x2="0.5" y2="4" />
<circle style="fill:red;stroke-width:0.01;stroke:black" cx="0.5" cy="4" r="0.1" />
<line style="stroke-width:0.01;stroke:black;" x1="1.0" y1="3" x2="0.5" y2="4" />
<text style="fill:black;text-anchor:start;font-size:0.3;" x="0.8" y="3.65">3</text>
<line style="stroke-width:0.01;stroke:black;" x1="1.0" y1="3" x2="1.5" y2="4" />
<circle style="fill:red;stroke-width:0.01;stroke:black" cx="1.5" cy="4" r="0.1" />
<line style="stroke-width:0.01;stroke:black;" x1="1.0" y1="3" x2="1.5" y2="4" />
<text style="fill:black;text-anchor:start;font-size:0.3;" x="1.3" y="3.65">8</text>
<line style="stroke-width:0.01;stroke:black;" x1="1.75" y1="2" x2="1.0" y2="3" />
<text style="fill:black;text-anchor:start;font-size:0.3;" x="1.425" y="2.65">6</text>
<line style="stroke-width:0.01;stroke:black;" x1="1.75" y1="2" x2="3.0" y2="3" />
<text style="fill:blue;text-anchor:middle;font-size:0.4;" x="3.0" y="3.2">4</text>
<line style="stroke-width:0.01;stroke:black;" x1="3.0" y1="3" x2="2.5" y2="4" />
<text style="fill:blue;text-anchor:middle;font-size:0.4;" x="2.5" y="4.2">5</text>
<line style="stroke-width:0.01;stroke:black;" x1="2.5" y1="4" x2="2.0" y2="5" />
<circle style="fill:red;stroke-width:0.01;stroke:black" cx="2.0" cy="5" r="0.1" />
<line style="stroke-width:0.01;stroke:black;" x1="2.5" y1="4" x2="2.0" y2="5" />
<text style="fill:black;text-anchor:start;font-size:0.3;" x="2.3" y="4.65">6</text>
<line style="stroke-width:0.01;stroke:black;" x1="2.5" y1="4" x2="3.0" y2="5" />
<circle style="fill:red;stroke-width:0.01;stroke:black" cx="3.0" cy="5" r="0.1" />
<line style="stroke-width:0.01;stroke:black;" x1="2.5" y1="4" x2="3.0" y2="5" />
<text style="fill:black;text-anchor:start;font-size:0.3;" x="2.8" y="4.65">8</text>
<line style="stroke-width:0.01;stroke:black;" x1="3.0" y1="3" x2="2.5" y2="4" />
<text style="fill:black;text-anchor:start;font-size:0.3;" x="2.8" y="3.65">3</text>
<line style="stroke-width:0.01;stroke:black;" x1="3.0" y1="3" x2="3.5" y2="4" />
<circle style="fill:red;stroke-width:0.01;stroke:black" cx="3.5" cy="4" r="0.1" />
<line style="stroke-width:0.01;stroke:black;" x1="3.0" y1="3" x2="3.5" y2="4" />
<text style="fill:black;text-anchor:start;font-size:0.3;" x="3.3" y="3.65">5</text>
<line style="stroke-width:0.01;stroke:black;" x1="1.75" y1="2" x2="3.0" y2="3" />
<text style="fill:black;text-anchor:start;font-size:0.3;" x="2.425" y="2.65">7</text>
<line style="stroke-width:0.01;stroke:black;" x1="1.75" y1="2" x2="5.0" y2="3" />
<text style="fill:blue;text-anchor:middle;font-size:0.4;" x="5.0" y="3.2">4</text>
<line style="stroke-width:0.01;stroke:black;" x1="5.0" y1="3" x2="4.5" y2="4" />
<circle style="fill:red;stroke-width:0.01;stroke:black" cx="4.5" cy="4" r="0.1" />
<line style="stroke-width:0.01;stroke:black;" x1="5.0" y1="3" x2="4.5" y2="4" />
<text style="fill:black;text-anchor:start;font-size:0.3;" x="4.8" y="3.65">3</text>
<line style="stroke-width:0.01;stroke:black;" x1="5.0" y1="3" x2="5.5" y2="4" />
<circle style="fill:red;stroke-width:0.01;stroke:black" cx="5.5" cy="4" r="0.1" />
<line style="stroke-width:0.01;stroke:black;" x1="5.0" y1="3" x2="5.5" y2="4" />
<text style="fill:black;text-anchor:start;font-size:0.3;" x="5.3" y="3.65">5</text>
<line style="stroke-width:0.01;stroke:black;" x1="1.75" y1="2" x2="5.0" y2="3" />
<text style="fill:black;text-anchor:start;font-size:0.3;" x="3.425" y="2.65">8</text>
<line style="stroke-width:0.01;stroke:black;" x1="0.0" y1="1" x2="1.75" y2="2" />
<text style="fill:black;text-anchor:start;font-size:0.3;" x="0.925" y="1.65">4</text>
<line style="stroke-width:0.01;stroke:black;" x1="0.0" y1="1" x2="6.0" y2="2" />
<text style="fill:blue;text-anchor:middle;font-size:0.4;" x="6.0" y="2.2">3</text>
<line style="stroke-width:0.01;stroke:black;" x1="6.0" y1="2" x2="6.0" y2="3" />
<polygon style="fill:blue;stroke-width:0.01;stroke:black;" points="6.0,3 6.5,3.5 5.5,3.5" />
<line style="stroke-width:0.01;stroke:black;" x1="6.0" y1="2" x2="6.0" y2="3" />
<text style="fill:black;text-anchor:start;font-size:0.3;" x="6.05" y="2.65">2</text>
<line style="stroke-width:0.01;stroke:black;" x1="0.0" y1="1" x2="6.0" y2="2" />
<text style="fill:black;text-anchor:start;font-size:0.3;" x="3.05" y="1.65">5</text>
<line style="stroke-width:0.01;stroke:black;" x1="0" y1="0" x2="0.0" y2="1" />
<text style="fill:black;text-anchor:start;font-size:0.3;" x="0.05" y="0.65">1</text>
</svg>
